<?xml version="1.0" encoding="utf-8"?>
<!-- Generator: Adobe Illustrator 24.0.3, SVG Export Plug-In . SVG Version: 6.00 Build 0)  -->
<svg version="1.1" id="Layer_55" xmlns="http://www.w3.org/2000/svg" xmlns:xlink="http://www.w3.org/1999/xlink" x="0px" y="0px"
	 viewBox="0 0 748.9 860.2" style="enable-background:new 0 0 748.9 860.2;" xml:space="preserve">
<style type="text/css">
	.st0{fill:#D35F40;}
	.st1{fill:#E2724B;}
	.st2{fill:#AF4319;}
	.st3{fill:#EA876C;}
	.st4{fill:#59AD7B;}
	.st5{fill:#479165;}
	.st6{fill:#3C8459;}
	.st7{fill:#2E6B47;}
</style>
<g>
	<g>
		<path class="st0" d="M454.4,706.4c-20.9,4.6-42.5,4.7-63.9,4.6c-16.9,0-33.8,0.2-50.6-0.6c-18.6-1-37.6-3-55.4-8.8
			c-7.5-2.5-14.9-5.8-21.5-10.3c0.7,3.1,1.4,6.2,2.1,9.3c2.4,10.7,5.1,21.4,7.8,32.1c2.2,8.5,4.3,17,6.5,25.4
			c0.2,0.8,0.4,1.7,0.7,2.5c1.6,6.1,2.7,12.8,4.1,19.6c1.7,9.1,3.6,18.4,6.7,26.7c0.8,2.4,1.7,4.6,2.8,6.8
			c6.1,12.5,19.6,19.7,31.6,25.1c26.7,11.9,57.7,15.9,86,7.8c20.5-5.9,48.2-16.7,54.5-39.8c0.1-0.3,0-0.5,0-0.8
			c0.8-0.4,1.5-1.1,1.9-2.2c0-0.1,0.1-0.2,0.1-0.3c3.1-8.6,5.1-17.8,6.5-27.2c1.1-7.1,1.8-14.3,2.4-21.5c0.8-9.2,1.4-18.4,2.4-27.2
			c0.3-3.1,0.7-6.2,1.2-9.3c0.7-5.4,1.4-10.8,1.8-16.3c0.2-2,0.3-4,0.5-6C473.9,700.7,464.4,704.2,454.4,706.4z"/>
		<path class="st1" d="M491.4,604.1c-2.4-13.5-39.8-20.3-67.2-23.6h-0.4c-3.8-0.4-7.8-0.9-11.8-1.2c2.5-5.5,5.2-11,7.8-16.4
			c-1.9-0.2-4-0.4-6-0.5c-11-0.9-22.1-1.3-33.1-1c-1-0.1-2.1-0.1-3.1,0c-0.7,0-1.3,0-2,0.1c-0.2-0.1-0.4-0.1-0.5,0
			c-1.6,0-3.3,0.1-4.9,0.1c-0.1,0-0.3,0-0.4,0.1c-2.8,0-5.5,0.1-8.1,0.4c-1.9,0.1-3.7,0.2-5.6,0.4c-2.8,0.2-5.7,0.5-8.4,0.9
			c-1.9,0.1-3.9,0.3-5.8,0.6c1.9,5.3,3.5,10.6,5,16c-24.9,2.2-49,6.6-68.9,12.6c-12.2,3.7-24,8.6-23.8,16.2
			c0.1,9.3,20.4,14.3,35.3,17.6c21.7,4.6,45.4,6.5,68.8,7.1c0.5,0,1,0.1,1.6,0.1c0.1,0,0.1,0,0.1,0h1c1,0,1.9,0.1,2.9,0.1h1.5
			c0.1,0,0.1,0,0.1,0c2.5,0.1,5.2,0.1,7.8,0.1c3.1,0.1,6.1,0.1,9.3,0.1h4.1c0.7,0,1.3,0,1.9-0.1c1.3,0.1,2.5,0,3.7,0
			c15.2-0.2,30.3-1,44.7-3.2C458.8,627.2,493.9,617.9,491.4,604.1z"/>
		<path class="st1" d="M499.9,664.5c-0.5,9.7-1.1,19.9-5.8,28.4c-7.2,13-22.5,19.1-36.9,21.4c-18.5,2.8-38.3,5.8-56.9,5.8
			c-37.7,0.1-76.5,1.8-113.3-7.5c-13.2-3.4-30.3-8.1-35.9-22.7c-1.3-3.4-1.8-7.2-2-11.2c-0.3-5.7,0-11.7-0.4-16.7
			c-0.8-12.3-1.5-24.5-3.6-36.6c-3.3-18.8,3.3-35.9,21.4-42.7c21.3-8.1,42.2-13.9,64.6-17.3c3.5-0.5,7.1-1,10.8-1.4
			c1.9,5.3,3.5,10.6,5,16c-24.9,2.2-49,6.6-68.9,12.6c-12.2,3.7-24,8.6-23.8,16.2c0.1,9.3,20.4,14.3,35.3,17.6
			c21.7,4.6,45.4,6.5,68.8,7.1c0.5,0,1,0.1,1.6,0.1c0.1,0,0.1,0,0.1,0h1c1,0,1.9,0.1,2.9,0.1h1.5c0.1,0,0.1,0,0.1,0
			c2.5,0.1,5.2,0.1,7.8,0.1c3.1,0.1,6.1,0.1,9.3,0.1h4.1c0.7,0,1.3,0,1.9-0.1c1.3,0.1,2.5,0,3.7,0c15.2-0.2,30.3-1,44.7-3.2
			c21.7-3.3,56.8-12.6,54.3-26.4c-2.4-13.5-39.8-20.3-67.2-23.6h-0.4c-3.8-0.4-7.8-0.9-11.8-1.2c2.5-5.5,5.2-11,7.8-16.4
			c21.3,2.2,42,6.6,60.4,14C512.5,589.8,501.4,636.5,499.9,664.5z"/>
		<path class="st2" d="M437.1,630.5c-14.3,2.2-29.5,3-44.7,3.2c-1.2,0-2.4,0.1-3.7,0c-0.6,0.1-1.3,0.1-1.9,0.1h-4.1
			c-3.1,0-6.2,0-9.3-0.1c-2.6,0.1-5.2,0-7.8-0.1c-0.1,0-0.1,0-0.1,0H364c-1,0-1.9-0.1-2.9-0.1h-1c-0.1,0-0.1,0-0.1,0
			c-0.5,0-1-0.1-1.6-0.1c-23.5-0.6-47.1-2.5-68.8-7.1c-14.9-3.2-35.3-8.3-35.3-17.6c-0.1-7.6,11.7-12.6,23.8-16.2
			c19.9-6.1,44-10.5,68.9-12.6c1.9-0.2,3.8-0.4,5.8-0.5c1.3-0.1,2.8-0.2,4.2-0.3c1.9-0.1,3.7-0.2,5.6-0.4c1.4,0,2.8-0.1,4.2-0.1
			c1-0.1,1.9-0.1,2.8-0.1c1,0,1.9,0,2.8-0.1c1.5,0,2.9-0.1,4.4-0.1h1.6c1.9-0.1,3.8-0.1,5.7-0.1c7.5,0,14.9,0.2,22,0.7
			c2,0.1,4,0.2,6,0.4c4,0.3,8,0.7,11.8,1.2h0.4c27.4,3.3,64.9,10.1,67.2,23.6C493.9,617.9,458.8,627.2,437.1,630.5z"/>
		<path class="st1" d="M466.4,725.9c-1-3.6-4.8-4-7.2-2.3c-2-1.2-4.8-1.1-6.6,1.2c-5.2,7.1-2.7,18-2.7,26.1
			c0.1,15.3-1.5,31.7-6,46.3c-1.1,3.7,3.4,7.7,6.7,5.3c10.1-7.4,9.9-19.9,11.7-31.3C464.7,756.3,470.5,740.9,466.4,725.9z"/>
		<path class="st3" d="M491.8,647.3c0-4.2-4.5-5.4-7.1-3.7c-2.6-0.5-5.6,0.9-5.6,4.3c-0.1,12-1.8,24-1.1,36c0.3,4.7,6,6.3,8.5,2.4
			C493.9,674.9,491.9,660.3,491.8,647.3z"/>
	</g>
	<g>
		<g>
			<path class="st4" d="M437.6,406.5c-0.1-1-0.7-1.8-1.5-2.3c-0.5-0.4-1-0.7-1.7-1c-1.5-0.4-3-0.7-4.5-0.7c-0.1-0.1-0.3-0.1-0.4,0
				c-7.6-0.7-15.5,1.9-23.2,6.2c-13.6,7.8-26,21.4-33.3,33.8c-1-8.5-2.1-17-3.4-25.6c-1.3-9.4-3-18.8-4.8-28.2
				c-0.2-1.5-0.5-2.9-0.8-4.4c-1.1-5.8-2.3-11.5-3.5-17.3c1.9-1.5,3.8-3,5.6-4.5c12.7-10.4,23.6-21.1,30-38c0.9-2.5,2-5.8,2.8-9.2
				c2.2-9.2,2.2-19.5-9.6-18.8c-13.2,0.8-23,15-29.7,25.3c-0.1,0.2-0.3,0.4-0.4,0.7c-2.2,3.6-4.5,7.5-6.5,11.6
				c-3.1-11.4-6.4-22.8-9.9-34.1c-2.7-8.9-5.7-17.9-8.7-26.7c-0.3-1-0.7-2-1-3.1c0.2-0.2,0.4-0.4,0.7-0.6c3.5-3,7.6-5.2,10.9-8.4
				c2.8-2.7,5.2-5.8,7.1-9.1c1.1-1.6,2-3.4,2.9-5.2c4.6-9.3,6.4-19.6,8-30.1c0.6-4.6,1.5-12.9,0.2-19.9c-1.2-7-4.9-12.6-12.3-11.8
				c-14.3,1.7-19.9,23.5-23.8,34.9c-2.1,6.9-3.9,14.3-5.3,21.9c-11.4-26-25-51-41.4-74.1c12.6-7.5,18.4-28,16.2-42.7
				c-0.8-6-2.5-12-5.3-17.5c-2.8-5.5-6.5-10.8-10.7-15.7c-4.4-4.8-9.4-9.2-14.6-13.1c-5.2-4-11.1-7.1-16.7-10
				c-3.1-1.6-5.8,0.7-5.4,3.7c4.2,22.7,6.9,45.5,13.2,65.6c-9.7-10.8-19.8-21.2-31.1-30.4c-6.4-17-17.6-32.6-33-44.2
				c-15.6-10.9-36-16.6-56.1-11.6c-2.1,0.4-3,3-2.2,4.8c2.4,5.4,5.5,9.9,9,13.7c1.7,1.9,3.6,3.7,5.5,5.3c1.9,1.9,3.8,3.6,5.8,5.2
				c8.1,6.1,17,11.7,25.1,16.7c4.6,3.2,9.6,5.3,14.6,7.7c4.9,2.5,10.2,4.6,15.3,6.9c4.7,2.4,9.6,4.3,14.3,6.6
				c4.6,2.4,9,5.5,13.1,9.3c7.7,7.8,15.2,15.8,22,24.4c-5.8-3.5-12-6.4-18.6-8.1c-6.4-1.9-12.9-3-19.4-2.5
				c-12.9,0.6-24.4,5.8-33.5,16.6c-1.6,1.9-1.3,4.1,0.4,5c9,4.5,23.7,9.3,39.2,12.6c15.7,2.8,32.2,3.7,45.4-5.8l0.7,1
				c0.1,0.2,0.4,0.4,0.6,0.5c17.6,24.7,31.8,51.8,43.7,79.7c-5.4-5.2-11.7-9.5-15.9-12.1c-8.3-5.6-17-10.1-26.3-12.9
				c-9.1-3-18.9-4.2-28.8-3.5c-2.5,0.1-4,2.4-3.7,4.5c1.4,8.7,5.7,15.6,12.3,20.9c1,0.9,2,1.7,3.1,2.5c5.8,4.4,12.9,7.7,19.7,10.6
				c2.9,1.2,6.1,2.1,9.3,2.8c12.6,2.9,26.9,3.6,36.9,12.2c15.9,14,12.5,42.8,21.4,61c0.1,0.4,0.4,0.7,0.5,1
				c-0.2-0.4-0.4-0.8-0.7-1.2c-10.9-20.3-30.6-39.1-50.7-47.4c-5.6-2.4-11.2-3.9-16.7-4.4c-1.9-0.1-4.1,1.1-4.4,2.9
				c-2.5,18.7,8,33.8,22.7,46.8c1.6,1.4,3.3,2.8,5,4.1c5.5,4.4,11.4,8.5,17.5,12.3c2.3,1.4,4.6,2.8,6.9,4.3
				c7,4.2,13.9,7.9,20.2,11.2c0.4,0.2,0.7,0.4,1.1,0.6c1.2,0.6,2.5,1.2,3.6,1.8c0.4,0.1,0.7,0.3,1.1,0.3c0.4,0.1,0.7,0.1,1.1,0
				c0.1,0.1,0.4,0.2,0.6,0.3c1.3,6.4,2.6,12.7,3.8,19.1c0.1,0.4,0.1,0.9,0.2,1.3c1.9,10.2,3.7,20.2,5.1,30.4
				c1,6.2,1.8,12.3,2.5,18.5c0.1,0.7,0.2,1.6,0.3,2.3c-0.4-0.7-0.8-1.3-1.3-1.9c-1-1.5-2.1-3-3.2-4.5c-1.6-2.2-3.4-4.5-5.4-6.6
				c-5.2-5.8-11.1-11.1-17.4-15.3c-6.1-4.1-12.5-7.2-19.1-8.8h-0.1c-4.7-1.3-9.6-1.7-14.3-1.3c-1.6,0.1-2.8,1.6-3,3.1
				c-0.1,0.7-0.1,1.3,0.3,1.9c2.4,3.7,4.9,7.6,7.7,11.6c10.1,14.5,22.6,29.5,38.6,38.6c2.1,1.2,4.2,2.3,6.4,3.2
				c0.2,0.1,0.4,0.3,0.7,0.3c1.5,0.7,3.1,1.3,4.7,1.9c0.1,0.1,0.1,0.1,0.2,0.1c1.1,0.4,2.2,0.7,3.4,1c1.4,0.4,2.9,0.8,4.4,1.1
				c0.8,0.1,1.3,6.3,1.6,13.7c0,0,0,0,0,0.1c0.2,4.3,0.4,9,0.4,13.4c0.2,6.6,0.2,12.3,0.3,13.6v1.1c0.1,0.7,0.1,1.4,0.1,2.2
				c0.1,1.1,0.1,2.3,0.1,3.4c0.1,0.7,0.1,1.3,0.1,2c0.1,5.3,0.2,10.5,0.2,15.8c0,3,0,6.1-0.1,9.1c0.1,3.3,0,6.6-0.1,10
				c-0.1,3-0.1,6-0.2,8.9c0,0.8,0,1.6-0.1,2.3c-0.1,5.7-0.4,11.3-0.7,16.8c-0.8,13.4-2.2,26.7-4.9,39.8v0.1c-0.5,2.5-1,4.9-1.7,7.4
				c-0.1,0.7-0.3,1.4-0.4,2.1c-0.4,1.9-1,3.7-1.3,5.7c1,0,1.9,0.1,2.9,0.1h1.5c0.1,0,0.1,0,0.1,0c2.5,0.1,5.2,0.1,7.8,0.1
				c0-0.1,0-0.1,0-0.1c0.6-18.4,2.2-36.8,3.3-55.2c0.1-2.2,0.3-4.3,0.4-6.6c0.2-3.4,0.4-6.9,0.5-10.3c0.1-3.5,0.3-7.1,0.4-10.6
				c0-0.9,0.1-1.8,0.1-2.7v-0.7c0.1-1.9-0.1-9-0.4-18.2c-0.1-2.5-0.1-5-0.2-7.7v-1.5c-0.1-4-0.3-8.1-0.4-12.2c0-0.9-0.1-1.8-0.1-2.8
				c-0.1-5.5-0.4-11.1-0.6-16.3c-0.1-5.5-0.4-10.5-0.5-14.7c-0.4-7-0.6-11.6-0.7-11.6c1.8-0.4,3.6-0.7,5.3-1.3
				c6.1-1.6,11.9-4,17.5-7.2c3.2-1.7,6.3-3.7,9.3-5.8c1.2-0.8,2.5-1.8,3.7-2.7c2.5-1.9,4.7-4,6.7-6.1c0.9-0.9,1.7-1.9,2.5-2.9
				c6.6-7.9,11.5-17.2,17.1-26.7C437.8,408.6,437.9,407.6,437.6,406.5z"/>
		</g>
		<g>
			<path class="st5" d="M726.5,272.9c-11-14.4-34.5-17.9-54.8-18.3c-11.7-0.2-23,2-34.2,5c-10.4,2.6-19.5,6.8-30.3,8.6
				c-10.6,1.9-21.2,4.2-31.6,7.3c21.7-14,46-30.8,43.7-51.6c-0.2-1.9-3-2.8-5.4-2c-13.7,4-31.7,12.8-44.4,24.4
				c-12.9,11.5-19.6,25.3-14.9,36.2l-1.1,0.5c-0.3,0.1-0.4,0.3-0.7,0.4c-14,5.5-27.1,13.1-39.6,21.6c-12.3,8.7-23.5,18.8-33.8,29.7
				c3.1-6.4,5.5-13.3,7.5-17.6c7.7-17.9,16.1-35.6,20-53.3c0.5-2.2-1.7-3.1-4.4-2.2c-11.4,3.6-20.6,11.3-27.2,19.8
				c-6.6,8.6-10.6,18.3-12.9,27.2c-3.5,15.2,2.9,29.1-1.1,44c-2.6,9.6-9.3,18.3-16.2,27.3c-5.7,7.3-11.5,14.9-15.2,22.6
				c-0.8,1.6-1.5,3.3-2.1,4.9c0.6-1.6,1.1-3.2,1.6-4.9c4-12.2,6.9-25.5,8.8-38.3c2.2-14.6,3-28.6,0.8-39.4c-0.4-1.6-2.1-2.5-4-1.3
				c-18,11.9-26.9,31.9-29.2,51.6c-1.6,11.5-1.1,23.1,0.4,33.6c1,7.5,2.6,14.4,4.3,20.3c0.1,0.4,0.1,0.7,0.3,1
				c0.3,1.1,0.7,2.2,0.9,3.3c0.2,0.7,0.7,1.1,1.1,1.4c0.1,0.1,0.1,0.4,0.1,0.5c-2.1,4.3-4.1,8.5-6,12.9c-2.3,5-4.6,10.2-6.6,15.2
				c-4.9,11.7-9.4,23.5-13.4,35.5c-0.1,0.5-0.4,1-0.5,1.5c0-0.4-0.1-0.7-0.1-1.1c-0.3-6.2-0.8-12.6-1.8-18.9
				c-0.5-3.8-1.2-7.5-2.1-11.2c-0.4-1.4-0.7-2.8-1.1-4.2c-0.4-1.3-0.7-2.5-1.1-3.8c-1.7-5.5-4-10.3-6.9-14.3c-2-2.9-4.4-5.4-7.2-7.2
				c-0.3-0.2-0.7-0.3-1.1-0.2c-0.3,0.1-0.6,0.1-1,0.4c-1.1,0.6-2.2,1.9-2.3,3.4c-0.7,4.3-1.2,8.9-1.5,13.4c-0.2,2.4-0.3,4.8-0.4,7.2
				c-0.1,3.8-0.1,7.7,0.1,11.4c-0.1,0.1-0.1,0.3,0,0.4c0.3,4.7,0.8,9.4,1.6,13.8c1.3,7.1,3.2,13.7,6.1,19.4c0.3,0.7,0.6,1.3,1,1.9
				c0.1,0.4,0.4,0.9,0.7,1.3c0.3,0.5,0.6,1,0.9,1.5c1.9,2.8,4,5.4,6.5,7.5c0.1,0.1,0.3,0.3,0.5,0.4c0.6,0.6,1.3,1.1,1.9,1.6
				c-0.6,2-1.2,4.1-1.7,6.1c-0.7,2.5-1.4,5.2-2,7.7c-1.1,4.1-2.1,8.2-3.1,12.4c-0.7,3.3-1.5,6.6-2.2,10.1c-0.1,0.7-0.3,1.6-0.4,2.4
				c-1.2,5.6-2.3,11.2-3.2,16.9c-1.2,6.7-2.2,13.4-3.1,20.2c-0.8,6-1.5,12-2.1,18c-0.5,5.5-1,11.1-1.3,16.7h1c1,0,1.9,0.1,2.9,0.1
				h1.5c0.1,0,0.1,0,0.1,0c1.2-18.5,3.4-36.9,6.6-55.2c1-5.2,1.9-10.4,3-15.6c0.1-0.4,0.2-0.8,0.3-1.3c0.7-3.6,1.5-7.1,2.4-10.7
				c0.1-0.5,0.2-1,0.3-1.5c2.2-9.3,4.6-18.4,7.2-27.5c5.5,0.9,11.2,0.7,16.9-0.2c4.5-0.7,9-1.8,13.3-3.1c2.7-0.8,5.2-1.9,7.5-3
				c8-4,14.9-9.6,22.9-14.4c2.1-1.3,2.2-4,0.7-5.5c-6-6.4-15.7-8.1-26.1-6.3c-2.9,0.5-5.8,1.3-8.7,2.3c-3.1,1-6.1,2.4-8.9,4
				c-4.3,2.2-8.4,5.1-12,8.1c1.3-4.2,2.8-8.3,4.3-12.4c3.2-9.1,6.8-18.2,10.6-27c3.4-8.4,7.2-16.7,11.3-24.9
				c0.4-0.9,0.8-1.9,1.3-2.8c0.4-0.1,0.8-0.1,1.3-0.1c10.7-1,20.5-1.9,30.6-5.4c3.7-1.3,7.5-2.8,11.4-4.9
				c4.2-2.4,11.2-6.1,14.1-10.6c1.9-2.9,2.2-6.1-1-9.6c-6.8-7.5-20.2-5-30-1.9c-2.4,0.7-4.9,1.6-7.5,2.6c-1.3,0.5-2.5,1-3.8,1.6
				c0.7-1.3,1.6-2.6,2.3-4c9.9-16.9,20.7-33.5,32.9-48.8c3.8,0.7,7.1,2.7,10.8,3.4c4.4,0.9,9,0.9,13.7,0.5c7.9-0.6,15.8-2.5,23.5-4
				c3.4-0.7,9.2-1.7,13.7-3.5c4.4-1.8,7.5-4.6,6.1-9.9c-1.5-5.2-6.1-8.4-12-10.2c-5.8-1.7-12.6-1.9-17.6-1.6
				c-5.9,0.3-12.4,1.3-18.9,3.4c9.5-9.6,19.7-18.4,30.9-25.8c11.2-7.4,22.9-14,35.4-18.9c1.7,5.2,6.4,9.4,12,13
				c5.5,3.4,11.7,5.9,17.1,7.5c17.4,4.6,36.5,0.1,54.5-5.7c2.4-0.8,2.8-3.5,1-4.9c-14-10.1-31-19-50.4-20.9
				c13.3-3.2,26.9-5.5,40.5-7.1c31.2,9.2,62.7,17.7,96.1,6.1C726.9,276.1,727.5,274.2,726.5,272.9z"/>
		</g>
		<g>
			<path class="st6" d="M398.1,433.5c-9.3-1.8-17.9,4.1-24.8,13.3c-4,5.2-7.3,11.6-9.9,18.1c-1.4,3.6-2.5,7.2-3.4,10.7
				c-0.1,0.1-0.1,0.1-0.1,0.1c-0.1,0.4-0.1,0.7-0.2,1c-1.5-4.9-3-9.9-4.6-14.8c-0.2-0.7-0.4-1.3-0.6-1.9
				c-5-15.8-10.5-31.3-16.5-46.6c-0.9-2.5-1.9-5.1-2.9-7.5c1-1.5,2.1-3.1,3.2-4.6c0,0,0,0,0-0.1c6.3-9.2,11.6-18.5,13.4-31.3
				c0.3-1.6,0.4-3.4,0.5-5.3c0.1-0.6,0.1-1.3,0.1-1.9c0.4-7.2-0.2-21.4-6.9-25.2c-0.1-0.1-0.1-0.1-0.1-0.1c-1-0.6-2.2-1-3.6-1
				c-0.7,0-1.5,0.1-2.3,0.2c-7.6,1.6-11.4,10.7-13.7,19.4c-0.7,2.6-1.3,5.1-1.8,7.4c-0.4,2-0.9,4-1.3,6.2c-0.4,1.9-0.7,3.9-1,6
				c-6.1-12.5-12.9-24.6-20.3-36.2c-4.4-6.8-9-13.3-13.9-19.6c1.5-3.6,4.2-6.4,5.6-10.1c1.6-4.3,2.2-9.2,2.1-14.4
				c-0.1-1.7-0.2-3.5-0.4-5.3c-1-7.3-3.3-15-6.3-22.5c-0.4-1-0.7-2-1.3-3.2c-1.8-4.2-4.4-9.6-8-14c-4.5-5.7-10.2-9.7-15.8-7.2
				c-3.2,1.5-4.7,4.3-5.2,7.8c-0.4,2.2-0.3,4.8-0.1,7.4c0.7,6.7,2.8,14,4,19.3c1.6,6.1,3.4,12.9,5.5,19.5
				c-19.6-19.6-42.7-36.2-68.7-46.2c2.5-4.9,1.8-11.4-1-17.9c-2.9-6.4-8.2-12.7-13.8-17c-9.3-7.1-21.7-11.4-34.4-12.7
				c-12.8-1.3-25.8,0-37.1,2.8c-3.1,0.7-3.7,3.5-1.5,4.8c16.7,10.3,34.3,21.4,52.1,30.5c-14.1-2.1-28.4-2.7-42.7-2
				c-15.8-5.7-33.4-8.8-50.8-7.9c-17.4,0.8-34.4,5.6-49.7,15.5c-1.6,1-1.6,3.1-0.4,4c14.7,11.3,38.9,8.7,58.8,6.4
				c11.5-1.3,22.3-4.6,33.3-7.2c10.2-2.5,19.7-5.8,30.7-5.2c10.7,0.5,21.3,1.9,31.8,4.2c-12.8,0.7-25.4,4.9-34.2,11.6
				c-8.9,6.6-14.1,15.8-13.8,26.1c0.1,1.9,2,3.1,3.8,2.7c10.2-2.4,23.5-6.6,35.9-11.7c12.3-5.2,24.7-11.2,28.9-22.4l1.1,0.4
				c0.3,0.1,0.5,0.1,0.7,0.1c27.3,10.6,51.8,28.5,71.8,50.1c-6.1-3.4-12.9-5.5-17.1-6.9c-17.3-5.6-34.6-5.4-48.2,2.1
				c-1.7,1-1.8,3.1-0.7,4.4c4.8,6,10.8,9.5,17.7,12c6.8,2.5,14.6,3.9,22.2,4.9c12.8,1.7,27.1-3.4,40.4,4
				c8.6,4.9,14.7,14.4,19.7,24.5c5.1,10.2,9.2,20.9,15.1,29.1c-8.4-11.7-19.9-22.3-32.1-29c-12-6.9-24.4-9.9-34.3-8.5
				c-1.5,0.1-2.8,1.6-2.3,3.2c4.1,15.7,15.7,26.4,30.1,36.4c12.6,8.5,27.3,16.2,39.7,22.3h0.1c1.8,0.8,3.5,1.6,5.2,2.5
				c0.3,0.2,0.6,0.4,1,0.4c1,0.4,2.1,1,3.1,1.4c0.7,0.3,1.3,0.3,1.8,0.1c0.1,0.1,0.3,0.1,0.5,0.2c6.4,16.1,12.3,32.6,17.6,49.2
				c2,6.1,4,12.2,5.8,18.3c-3-4-6.3-7.8-9.9-11.4c-1.9-2-3.9-4-6-5.7c-1.1-1-2.2-1.9-3.4-2.8c-7.5-6-15.3-10.3-22.9-12
				c-1.9-0.4-3.7-0.6-5.5-0.6c-2.1-0.1-4,0-6,0.4c-1.7,0.4-2.2,3.4-1,5.1c0.7,1,1.6,2.1,2.4,3.1c5.8,7.7,12.2,15.8,19.1,23
				c0.1,0.1,0.1,0.1,0.1,0.1c4.9,5,9.9,9.6,15.2,13.4c7.7,5.5,15.8,9.4,24.3,10.2c0.9,3.4,1.8,6.8,2.7,10.2c0.4,1.2,0.7,2.4,1,3.6
				c1.6,6.6,3.3,13.1,4.8,19.8c0.6,2.4,1.1,4.7,1.6,7.1c0.7,2.9,1.3,5.8,1.9,8.8c0.9,4,1.8,8.1,2.5,12.3c0.1,0.4,0.2,0.8,0.2,1.3
				c0.7,3,1.3,6,1.8,9c0.4,2.2,0.9,4.3,1.2,6.6c3,15.8,5.5,31.8,7.5,47.8c0.4,2.5,0.7,5.1,1,7.7c0.7,0,1.3,0,1.9-0.1
				c1.3,0.1,2.5,0,3.7,0c-0.3-2.3-0.5-4.6-0.9-6.8c-0.4-3.7-0.9-7.5-1.5-11.2c-1.7-12.6-3.7-25.1-6.1-37.5c-1-5.6-2-11.3-3.2-16.8
				c-0.7-4.1-1.6-8.1-2.5-12.1c-0.1-0.4-0.1-0.8-0.2-1.2c-0.8-3.8-1.6-7.5-2.5-11.3c-0.7-3.1-1.5-6.3-2.2-9.4c-1-4-1.9-8-2.9-12
				c-0.3-1.2-0.6-2.3-1-3.5c-0.1-0.4-0.1-1-0.4-1.4c-0.1-0.7-0.3-1.3-0.5-2c-1-4.3-2.2-8.7-3.4-13c1.6-0.7,3.3-1.5,4.8-2.4
				c2.2-1.3,4.3-2.7,6.3-4.4c3-2.4,5.8-5.2,8.4-8.4c1.4-1.6,2.7-3.2,3.9-4.9c2.5-3.4,4.4-7.2,6-11.3c1.3-3.3,2.3-6.6,3.3-10.2
				c1.3-4.7,2.4-9.6,3.7-14.6C402.1,436.5,400.4,433.9,398.1,433.5z"/>
		</g>
		<g>
			<path class="st5" d="M378.8,507.4c-0.6,0.1-1.3,0.1-1.9,0.4c-2.2,0.4-4.5,1.2-6.6,2.2c-0.4,0.1-0.8,0.3-1.2,0.5
				c-0.1,0.1-0.2,0.1-0.3,0.1c-1.6,0.8-3.1,1.8-4.6,2.8c-1.3,0.8-2.6,1.8-3.9,2.9c-1.9,1.5-3.8,3.2-5.5,5.1
				c-6.5,6.6-11.9,14.4-14.9,20.8c-5-12.4-10.8-24.4-17-36.2c3.3-3.6,6.4-7.2,9.2-10.8c1.6-1.9,2.9-3.9,4.2-5.8
				c3.1-4.7,5.4-9.7,6.7-15.3c0.4-1.3,0.7-3,0.9-4.7c0.2-1.4,0.3-2.8,0.1-4.2c-0.1-3.7-1.6-6.6-6-5.7c-0.2,0.1-0.4,0.1-0.7,0.2
				c-0.6,0.1-1.2,0.4-1.9,0.7c-6.5,2.9-11.1,9.3-14.4,15.3c-0.1,0.1-0.1,0.1-0.1,0.1c-1.3,2.2-2.3,4.4-3.2,6.4
				c-1.2,2.6-2.5,5.5-3.6,8.4c-6.1-10-12.5-19.8-19.6-29.1c2.1-2.8,4.9-5.4,7-8.3c0.1-0.1,0.1-0.2,0.2-0.4c2-2.8,3.4-5.7,4.6-8.7
				c0.3-0.6,0.4-1.1,0.7-1.7c2.1-6.4,2.6-12.9,2.6-19.4c0-0.9,0-2.1-0.1-3.4c-0.4-5.7-2.4-13.7-8-13.4c-1,0.1-2.2,0.4-3.4,1
				c-9,5.2-10.3,20.1-11.8,27.6c-0.7,4.6-1.4,9.4-1.7,14c-9.6-11.4-20.2-22-33-29.7c6.4-9,6-23.5,1.2-32.1
				c-7.4-14-24.9-18.4-38.1-16.4c-1.9,0.2-2.7,2.7-1.9,4.4c6.9,12.8,13.7,25.8,20.9,35.4c-7.1-2.7-14.5-4.7-22-6.2
				c-14-15.8-34.1-25.8-52.8-14.5c-1,0.5-1.3,2.5-0.8,3.7c5.7,14.6,18.4,18.3,28.8,20.5c6,1.2,12,0.2,18.1-0.6
				c5.6-0.7,11.2-2.5,16.8-1c5.5,1.6,10.8,3.4,15.8,5.7c-7.2,0.6-14.9,3.7-20.9,9.3c-6.1,5.6-10.5,13.7-12.6,23.9
				c-0.4,1.9,0.3,3.2,1.2,3c5.1-1,12-4.3,19.7-9.3c7.5-5,16.5-11.4,22.7-21.7l0.6,0.3c0.1,0.1,0.2,0.1,0.4,0.1
				c13.1,8,24.2,19.2,34.1,31.5c-3.9-1.4-8.6-1.9-11.4-2.2c-11.6-1.4-23.5,0.8-34.7,9c-1.4,1-2.2,2.8-2,3.7
				c1.3,7.8,11.2,7.4,22.6,6.4c9.6-1,22.6-7.2,31.8-4.9c12.3,3.2,12.5,20.2,20.8,27.3c-12.1-10.5-33.6-15.2-50.7-9.3
				c-1.3,0.4-2.7,1.8-2.7,2.8c-0.1,10.8,8,15.4,19.1,18.1c11.1,2.6,25.6,3.2,37.1,3.4c0.3,0.1,0.5,0.1,0.8,0.1h2.7
				c0.6,0,1.1-0.1,1.6-0.4h0.4c6,11.1,11.4,22.5,16.1,34.1c-12.3-7.8-30.6-11.9-47-4.9c-1.6,0.7-2.3,2.5-1.3,3.1
				c12.3,7.7,30.3,17.2,53,13.7c1,2.8,2,5.6,2.9,8.4c1.9,5.3,3.5,10.6,5,16c5.2,17.5,9,35.4,11.4,53.5c0.5,0,1,0.1,1.6,0.1
				c0.1,0,0.1,0,0.1,0h1c1,0,1.9,0.1,2.9,0.1c-0.3-2.6-0.7-5.2-1.1-7.8c-0.4-3-1-6-1.5-8.9c-1-5.8-2.2-11.5-3.5-17.2
				c-1.5-6.8-3.3-13.5-5.2-20.2c-1.5-5.4-3.2-10.8-5-16.1c-1.3-3.7-2.5-7.5-4-11.3c4.2-1.9,8.1-4.2,11.7-6.8
				c1.9-1.3,3.7-2.7,5.5-4.2c2.2-1.8,4.3-3.7,6.3-5.8c0.7-0.7,1.3-1.3,1.8-2c0.7-0.7,1.2-1.3,1.7-2c1-1.3,1.9-2.5,2.7-3.9
				c1.3-2.1,2.5-4.3,3.5-6.4c0.1-0.4,0.3-0.7,0.5-1c1.4-3.1,2.7-6.4,4.2-9.6C382.4,508.3,380.9,507.1,378.8,507.4z"/>
		</g>
		<g>
			<path class="st7" d="M687.6,378.4c-9.8-13.1-27.1-13.7-41.6-12c-8.4,1-16,4.3-23.5,8.1c-6.9,3.5-12.8,8.1-20.3,10.3
				c-7.3,2.2-14.6,4.7-21.8,7.5c13.8-12.9,28-31.2,22.9-51.5c-0.4-1.8-2.6-2.5-4.2-1.6c-9,4.8-20.5,13.7-27.8,24.7
				c-7.4,11-10.5,23.5-5.5,34.4l-0.8,0.4c-0.1,0.1-0.3,0.1-0.4,0.3c-19.4,8.7-37.9,19.9-54.4,33.5c2.5-4.6,4.3-10,5.5-13.4
				c5.8-13.5,10.7-28.2,11.6-44c0.1-1.9-1.7-3.1-3.6-2.6c-8.2,1.6-14.6,6.5-19.3,12.6c-4.9,6-7.6,13.5-9.1,20.7
				c-2.7,12,3.2,25.8-0.2,37.1c-2.4,7.2-7.8,12.8-14.2,17.9c-5.8,5.6-12.6,10.8-15.4,17.6c8-18,13.3-43.3,10.6-62.6
				c0-0.7-0.1-1.6-0.3-2.3c-0.3-1.4-1.8-2.6-3.4-2.1c-3.9,1.3-7.4,3.1-10.5,5.5c-2.9,2.4-5.5,5.2-7.6,8.3c-1.4,1.9-2.7,4-3.7,6.2
				c-2.3,4.7-3.8,9.9-4.7,15.3c-1.5,7.7-1.3,15.8-0.4,23.5c0.7,7.6,2.3,14.8,4.3,21c0.1,0.3,0.1,0.6,0.3,0.9
				c0.3,0.9,0.5,1.9,0.8,2.8c0.2,0.6,0.6,1,1,1.3c0,0.2,0.1,0.4,0.1,0.5c-9.7,13.7-18.2,28.2-26.3,42.9c0.1-7.5-0.6-15.8-2.5-23.8
				c-0.3-1.4-0.7-2.8-1.1-4.2c-2.1-7.4-5.3-14.3-10.1-19.7c-1.1-1.3-2.3-2.4-3.6-3.4c-1.3-1.1-3.8-0.1-4.2,1.6
				c-0.4,1.9-0.8,3.8-1.1,5.8c-1.4,8.4-1.7,17.5-0.7,26.1c0.1,1,0.1,1.9,0.3,2.8c1.9,11.5,6.4,22.1,15.2,29.8
				c-1.3,2.7-2.8,5.5-4,8.2c-2.7,5.5-5.3,11-7.8,16.6c-5.6,12.1-10.9,24.4-16,36.8c-1.4,3.4-2.8,6.9-4.3,10.4c-1,2.5-2,5.2-3.1,7.7
				h4.1c0.7,0,1.3,0,1.9-0.1c0.9-2.2,1.9-4.6,2.8-6.8c6.4-16,13.2-31.9,20.5-47.6c2.5-5.5,5.2-11,7.8-16.4c1.3-2.7,2.6-5.4,4-8.1
				c9.3,3.8,19.2,5.1,28.8,5.2c10.9,0.1,19.5-3.2,29.3-5.5c2-0.4,2.2-2.4,0.8-4c-10.8-12.8-36.5-14.5-52.6-7.8
				c8.3-15.2,17-30.1,27-44.2c13.7,2.5,26.2,5.3,39.2,3.1c6.1-1.3,18.8-2.6,11.2-12.1c-6.1-7.8-17.9-9.6-26.6-9.9
				c-3.2-0.1-6.7,0-10.1,0.4c4.7-5.9,9.8-11.6,14.8-17.2c5.4-5.4,10.3-11.1,16.1-16c3.3,1.6,6.1,4.2,9.3,5.9
				c3.8,1.9,7.7,3.2,11.6,4.1c6.6,1.5,13.4,2.2,19.7,2.7c5.6,0.1,19.1,2.7,15.8-7.8c-2.8-10.1-16.7-14.9-25-16.7
				c-4.9-1.2-10.1-1.6-15.5-1.5c7.4-6.1,15.6-11.1,23.6-16.4c8.2-4.9,16.8-9.3,25.5-13.3c4.1,10.3,16.5,18,25,21
				c13.9,4.9,27.3-0.3,39-7.4c1.6-0.9,1.3-3.6-0.1-4.8c-11.8-8.8-25.6-16.5-40.1-18.2c9.3-3.2,18.6-6.1,28.1-8.5
				c24,6.9,47.3,11.4,68.8-3.7C688.5,381.6,688.5,379.5,687.6,378.4z"/>
		</g>
		<g>
			<path class="st7" d="M421.1,155.2c24-21.3,46.3-42.7,55.1-75c0.4-1.7-0.9-3.3-2.4-3.3C456,77,439.7,94.6,429,111.5
				c-6.2,9.6-10.1,20.2-13.2,31.1c-3.1,9.9-4,19.6-8.4,29.4c-4,9.6-7.8,19.4-11.3,29.1c0.7-12.5,0.4-25.6-2.6-37
				c-2.7-11.3-8-20.8-17.5-25.2c-1.7-0.8-3.8,0.9-4.4,3.3c-3.5,12.9-5.3,31.2-2.8,46.8c2.3,15.6,9,28.6,20.4,32.1l-0.4,1.1
				c-0.1,0.2-0.1,0.4-0.1,0.7c-8.7,27.4-15.3,55.4-20.5,83.7c-1-6.8-2.8-13.5-3.9-17.9c-3.1-13.1-6.9-25.6-12.9-36.6
				c-2.2-4.2-4.6-8.1-7.4-11.8c-1.3-1.6-3.4-0.9-4.6,1.1c-5.2,9-6.7,18.8-6.1,28.2c0.1,1.3,0.1,2.5,0.3,3.7c1,7.5,3.1,14.9,5.9,21.3
				c0.8,1.9,1.8,3.7,2.8,5.4c4.9,7.9,12,14.3,16.4,22.6c1.3,2.4,2.5,4.9,3.2,7.7c4.9,17.9-6.4,41.1-4.9,60.1c0.1,0.5,0.1,1,0.1,1.6
				c-0.1-1-0.2-1.9-0.4-2.8c-1-8.1-2.7-16.4-5-24.7c-2.7-10.1-6.2-19.8-10.5-28.2c-3.7-7.4-8-13.7-12.7-18.5c-1-1.1-3-1-4,0.7
				c-5.8,10.4-7.3,21.8-6.3,33.2c0.6,6,1.9,12,3.8,17.9c0.4,1.2,0.7,2.4,1.2,3.6c3.7,10.2,8.8,19.6,14.5,28c0,0.1,0,0.1,0,0.1
				c4.1,6.3,8.5,12,12.6,16.7c0.2,0.3,0.4,0.6,0.7,0.8c0.7,0.8,1.5,1.7,2.2,2.5c0.4,0.6,1,0.7,1.5,0.8c0.1,0.2,0.3,0.3,0.4,0.4
				c-0.1,2-0.2,4.1-0.3,6.1c-0.4,10.4-0.7,20.8-0.9,31.3c0,0.5-0.1,1.1-0.1,1.6c-0.1,9.6-0.1,19.3-0.1,28.9
				c-2.8-7.1-6.4-14.3-10.5-21c-2-3.4-4.2-6.7-6.6-9.6c-0.8-1-1.6-2.1-2.6-3.1c-6.1-6.9-13-12-20.6-13.4c-0.9-0.1-1.7,0.5-2.3,1.5
				c-0.4,0.9-0.7,2.1-0.4,3.1c2.4,9.2,5.5,18.9,9.6,27.9c0,0.1,0,0.1,0.1,0.2c3.1,7,6.8,13.6,11.1,19.3c6.2,8.4,13.7,14.9,22.5,17.9
				c0.1,2.8,0.1,5.5,0.2,8.2c0.1,7.9,0.4,15.8,0.7,23.8c0.1,5.8,0.4,11.5,0.7,17.2c0.2,5.5,0.4,11.1,0.7,16.7
				c0.3,6.9,0.7,13.7,1,20.5c0.7,11.3,1.3,22.6,2,33.8c0.1,0,0.1,0,0.1,0h1c1,0,1.9,0.1,2.9,0.1h1.5c-0.3-5.1-0.6-10.2-0.9-15.2
				v-0.1c-0.4-6.5-0.8-12.9-1.1-19.4c-0.4-6.7-0.7-13.4-1-20.1c-0.3-5.6-0.5-11.1-0.7-16.7c-0.3-7-0.6-14-0.8-21
				c-0.2-8.2-0.4-16.4-0.6-24.7c-0.1-2-0.1-4-0.1-6c1-0.1,2.1-0.3,3.1-0.5c1.6-0.3,3.1-0.7,4.6-1.2c0.2-0.1,0.5-0.1,0.8-0.2
				c0.5-0.2,1.1-0.4,1.6-0.7c2.2-0.7,4.4-1.7,6.6-2.8c3.3-1.6,6.5-3.6,9.6-5.8c0.2-0.1,0.4-0.2,0.6-0.4c0.3-0.2,0.7-0.4,1-0.7
				c2.8-2.1,5.4-4.4,7.6-6.9c5.6-6.1,10.2-13.1,15.3-20.1c1.5-2,0.7-4.6-1.2-5.6c-1.1-0.6-2.3-1-3.5-1.3c-1.9-0.6-3.7-0.8-5.8-0.8
				c-1.9,0-4,0.2-6,0.7c-4,0.9-8,2.7-12,5c-2.3,1.4-4.6,3.1-6.8,4.9c-2.2,1.7-4.3,3.7-6.2,5.7c0,0,0,0,0,0.1c-3.1,3-5.7,6.3-7.8,9.6
				c-0.7,0.8-1.2,1.7-1.7,2.6v-16.4c0,0,0,0,0.1-0.1c-0.1-0.1-0.1-0.2,0-0.4c0-3.7,0-7.5,0.1-11.4c0-2.4,0.1-4.8,0.1-7.2
				c0.1-7.1,0.3-14.2,0.6-21.3c0.1-4.6,0.4-9.2,0.6-13.8c0.4-0.2,0.7-0.4,1.1-0.6c2.4-1.3,4.7-2.6,7-3.9
				c9.9-5.6,19.1-11.8,26.9-22.5c4.8-6.4,14.3-19.7,3-24.1c-9.3-3.6-20.5,4.6-27.8,11.4c-2.3,2.1-4.7,4.4-6.9,7
				c-0.5,0.4-0.9,1-1.3,1.4c0.1-1.9,0.3-3.9,0.5-5.8c0.5-7.2,1.3-14.5,2.1-21.7c1.2-11.3,2.7-22.5,4.4-33.7
				c3.7-1.3,7.5-1.2,11.1-2.4c4.3-1.4,8.2-3.8,12.1-6.6c1.9-1.3,3.6-2.8,5.3-4.4c4.3-3.9,8.3-8.4,12.3-12.8
				c2.5-2.8,6.8-7.5,9.3-12.3c2.6-4.8,3.4-9.7-1.1-13.1c-8.7-6.6-23.2,3.8-30.8,10.2c-4.5,3.8-9.3,8.3-13.5,13.5
				c4.9-25.7,11.2-51.1,19-76.1c10.3,4.1,25.4-3.2,34.1-10.5c14.3-12.2,21.5-31.6,25.6-49.7c0.6-2.4-1.5-4.1-3.6-3.3
				c-16,6.5-32.2,16.2-44.7,30.6c2.4-6.3,5-12.4,7.5-18.6L421.1,155.2z"/>
		</g>
	</g>
</g>
</svg>
