<?xml version="1.0" encoding="utf-8"?>
<!-- Generator: Adobe Illustrator 24.0.3, SVG Export Plug-In . SVG Version: 6.00 Build 0)  -->
<svg version="1.1" id="Layer_55" xmlns="http://www.w3.org/2000/svg" xmlns:xlink="http://www.w3.org/1999/xlink" x="0px" y="0px"
	 viewBox="0 0 748.9 587.9" style="enable-background:new 0 0 748.9 587.9;" xml:space="preserve">
<style type="text/css">
	.st0{fill:#6E7696;}
	.st1{fill:#2F2B00;}
	.st2{fill:#475919;}
	.st3{fill:#5C6D26;}
	.st4{fill:#3D5811;}
	.st5{fill:#597318;}
	.st6{fill:#4C7916;}
	.st7{fill:#6D9932;}
	.st8{fill:#81AB12;}
	.st9{fill:#70A22E;}
	.st10{fill:#6A991E;}
	.st11{fill:#8CB426;}
	.st12{fill:#7FA531;}
	.st13{fill:#87B726;}
</style>
<g>
	<circle class="st0" cx="360.4" cy="258.9" r="162.6"/>
	<path class="st1" d="M360.4,404.5c-80.3,0-145.6-65.3-145.6-145.6c0-80.3,65.3-145.6,145.6-145.6c80.3,0,145.6,65.3,145.6,145.6
		C506,339.2,440.6,404.5,360.4,404.5z"/>
	<g>
		<path class="st2" d="M148.9,137c0,0,1.2,1.1,3.5,2.4c2.4,1.4,6.1,3.2,11,5.2c5,2,11.1,4.3,18.1,7.1c7,2.8,15,6,23.1,11.2
			c4,2.6,8.1,5.6,11.6,9.9c1.7,2.1,3.3,4.5,4.3,7.3l0.7,2.1l0.5,1.9c0.3,1.2,0.7,2.6,1,3.8c2.9,9.8,7.4,19.9,14.3,28.6
			c6.9,8.7,16.2,15.8,27,20.4c10.8,4.6,22.8,6.9,34.8,7.7c12.1,0.8,24.3,0.3,36.2-0.8c12-1.2,23.7-2.9,35.1-4.8
			c11.4-1.9,22.3-4,32.9-5.4c10.7-1.6,21.2-0.8,30.4,1.5c9.2,2.3,17.4,6.2,23.3,11.5c5.9,5.3,9.1,12,10.2,17.5
			c0.6,2.8,0.7,5.3,0.6,7.6c-0.1,2-0.3,4-0.5,5.5c-0.2,1.5-0.5,2.6-0.6,3.4c-0.2,0.8-0.3,1.1-0.3,1.1c-0.2,0.9-1.1,1.5-2,1.3
			c-0.9-0.2-1.5-1.1-1.3-2l0-0.1c0,0,0.1-0.4,0.2-1.1c0.2-0.7,0.4-1.7,0.6-3.1c0.2-1.4,0.4-2.9,0.4-5.1c0-1.9-0.1-4.3-0.7-6.7
			c-1-4.9-3.8-10.7-9.2-15.3c-5.3-4.7-12.9-8.2-21.6-10.2c-8.8-2-18.5-2.6-28.8-1c-10.4,1.4-21.3,3.6-32.7,5.5
			c-11.4,2-23.2,3.8-35.4,5c-12.2,1.2-24.6,1.8-37.1,1c-12.5-0.8-25-3.1-36.6-8c-11.6-4.8-21.8-12.5-29.3-21.9
			c-7.5-9.4-12.3-20.1-15.5-30.5c-0.4-1.3-0.7-2.6-1.1-3.8l-0.5-1.9L215,182c-0.8-2.1-2-4-3.3-5.7c-2.8-3.5-6.5-6.3-10.2-8.7
			c-7.5-4.8-15.2-8.2-22-11.2c-6.8-3-12.9-5.4-17.8-7.8c-4.9-2.3-8.7-4.4-11.2-6.1c-2.6-1.8-3.7-2.8-3.7-2.8l-0.2-0.2
			c-0.7-0.7-0.7-1.7,0-2.4C147.2,136.5,148.2,136.4,148.9,137z"/>
		<path class="st3" d="M443.8,144.2c0,0-0.8,0.5-2.3,1.5c-1.5,1-3.6,2.6-6.2,4.8c-5,4.5-12,11.4-17.5,21.5c-2.7,5-5.1,10.9-4.9,17.3
			c0.1,6.5,2.3,13.1,6.6,18.6c4.2,5.6,10.1,10.1,16.4,14.1c6.3,4,13.1,7.6,19.9,11.4c6.8,3.7,13.6,7.6,19.9,12.2
			c6.3,4.6,12.1,9.9,16.4,16.2c4.3,6.3,6.9,13.5,7.8,20.4c0.5,3.4,0.5,7,0.4,10.1c-0.2,3.4-0.7,6.4-1.3,9.4
			c-1.3,5.9-3.2,11.1-5.5,15.5c-2.2,4.3-4.5,7.9-6.7,10.6c-2.2,2.7-4,4.7-5.4,6c-1.4,1.3-2.1,1.9-2.1,1.9c-0.7,0.6-1.8,0.6-2.4-0.1
			c-0.6-0.6-0.6-1.6-0.1-2.3l0.1-0.1c0,0,0.6-0.7,1.7-2.1c1.1-1.4,2.7-3.4,4.5-6.1c1.8-2.7,3.9-6.1,5.7-10.3c1.8-4.1,3.5-9,4.7-14.4
			c0.5-2.7,0.9-5.6,1.1-8.5c0.1-3.2,0.1-6-0.2-9.2c-0.7-6.2-2.8-12.6-6.6-18.3c-3.7-5.8-9-10.8-14.9-15.3
			c-5.9-4.5-12.5-8.4-19.2-12.3c-6.7-3.8-13.4-7.7-19.8-12c-6.3-4.3-12.4-9.3-16.7-15.4c-4.4-6.1-6.6-13.5-6.5-20.3
			c0.1-7.1,2.9-13.1,5.8-18.1c6-10.1,13.3-16.7,18.5-21c2.7-2.1,4.8-3.6,6.4-4.6C443,144.7,443.8,144.2,443.8,144.2z"/>
		<g>
			<path class="st2" d="M439.7,307.4c-0.2,0-0.4,0-0.6-0.1c-32-12.4-45.9-47.7-52-75c-8.1-36.6,20.3-86.9,25.2-90.5
				c0.7-0.6,1.8-0.4,2.4,0.3c0.6,0.8,0.4,1.8-0.3,2.4c-4.4,3.3-31.5,52.5-23.9,87.1c5.9,26.5,19.3,60.7,49.9,72.6
				c0.9,0.3,1.3,1.3,1,2.2C441,307,440.4,307.4,439.7,307.4z"/>
		</g>
		<path class="st3" d="M278.2,57.7c0,0-1,0.3-2.7,0.7c-0.9,0.2-2,0.5-3.2,1c-1.3,0.4-2.7,1-4.2,1.8c-3,1.5-6.5,3.8-9.6,7.3
			c-3.1,3.5-5.7,8.1-7.5,13.6c-1.8,5.4-2.8,11.7-3.1,18.3c-0.1,3.3,0,6.7,0.2,10.3c0.3,3.5,0.5,7,1.2,10.6c1.2,7.1,3.4,14.3,7,20.9
			c3.6,6.6,8.6,12.5,14.4,17.6c5.7,5.2,12.1,9.7,18.4,14.4c6.2,4.6,12.4,9.3,18,14.4c5.6,5,10.5,10.4,14.7,15.9
			c4.3,5.4,7.6,11.1,10.4,16.4c2.7,5.4,4.9,10.4,6.6,15c1.7,4.6,2.9,8.6,3.9,12c1,3.3,1.5,6,2,7.8c0.4,1.8,0.7,2.8,0.7,2.8
			c0.2,0.9-0.3,1.8-1.3,2.1c-0.9,0.2-1.8-0.3-2-1.2l0-0.1c0,0-0.2-0.9-0.7-2.7c-0.5-1.8-1.1-4.4-2.1-7.7c-1-3.3-2.2-7.2-4-11.6
			c-1.7-4.4-3.9-9.3-6.6-14.5c-2.8-5.1-6.1-10.5-10.2-15.7c-4.1-5.3-8.9-10.4-14.3-15.3c-5.4-4.9-11.4-9.5-17.7-14.1
			c-6.2-4.6-12.7-9.3-18.6-14.7c-6-5.4-11.3-11.7-15.1-18.8c-3.8-7.1-6.1-14.7-7.2-22.2c-0.7-3.7-0.9-7.5-1.1-11.1
			c0-1.8-0.1-3.5-0.1-5.3c0-1.9,0.1-3.5,0.2-5.3c0.5-6.9,1.7-13.4,3.8-19.1c2-5.8,5.3-10.5,8.8-14c3.5-3.6,7.3-5.7,10.6-6.9
			c1.6-0.7,3.1-1.1,4.4-1.4c1.3-0.4,2.4-0.6,3.3-0.7C277.2,57.9,278.2,57.7,278.2,57.7z"/>
		<path class="st2" d="M209.3,368c0,0,1.6-1.9,4.3-5.3c1.3-1.7,3.2-3.7,5.3-5.8c1.1-1.1,2.2-2.3,3.4-3.5c1.3-1.2,2.6-2.4,4-3.6
			c2.7-2.6,5.9-5.1,9.2-7.9c3.3-2.7,7-5.3,10.8-8.1c7.7-5.4,16.2-10.7,24.8-15.7c17.3-10,35-19.3,47.9-26.8c6.5-3.7,11.8-7,15.4-9.3
			c3.6-2.4,5.7-3.7,5.7-3.7l0.1,0c0.8-0.5,1.8-0.3,2.4,0.5c0.5,0.8,0.3,1.8-0.5,2.4c0,0,0,0,0,0c0,0-2.1,1.3-5.9,3.7
			c-3.7,2.3-9.1,5.5-15.7,9.1c-13.1,7.3-31,16.2-48.5,25.8c-8.7,4.9-17.3,10-25,15.2c-3.8,2.7-7.6,5.2-10.9,7.8
			c-3.4,2.6-6.6,5.1-9.3,7.6c-1.4,1.2-2.7,2.4-4,3.5c-1.2,1.2-2.3,2.3-3.4,3.4c-2.2,2.1-4,4-5.4,5.7C211,366.1,209.3,368,209.3,368z
			"/>
		<path class="st3" d="M90.1,440.3c0,0,1,0.2,2.9,0.7c1.9,0.5,4.6,1.1,8.2,1.7c7.1,1.3,17.3,2.6,29.5,2.8c3.1,0,6.2,0,9.6-0.2
			c1.7-0.1,3.3-0.1,5.1-0.2c1.7-0.2,3.4-0.3,5.1-0.5c7-0.6,14.3-1.9,21.6-3.9c14.7-3.8,29.5-11.1,42.3-21.2
			c12.8-10,23.7-22.4,33.7-34c10-11.7,19.4-22.7,28.8-31c9.3-8.4,18.3-13.9,24.9-17.1c1.7-0.8,3.1-1.5,4.4-2.1
			c1.3-0.5,2.5-0.9,3.4-1.3c1.8-0.7,2.8-1.1,2.8-1.1c0.9-0.3,1.9,0.1,2.2,1c0.3,0.9-0.1,1.8-1,2.2l-0.1,0c0,0-0.9,0.4-2.7,1.1
			c-0.9,0.3-2,0.8-3.2,1.3c-1.2,0.6-2.7,1.3-4.2,2c-6.3,3.1-15,8.5-23.9,16.8c-4.5,4.1-9.2,8.7-14,13.9c-4.8,5.2-9.6,10.8-14.7,16.6
			c-10.1,11.6-21.1,24.1-34.4,34.3c-6.6,5.1-13.7,9.6-21,13.2c-7.4,3.6-15,6.5-22.6,8.3c-7.6,1.8-15,3-22.2,3.5
			c-3.6,0.3-7,0.5-10.3,0.5c-3.3,0.1-6.6,0-9.7-0.1c-6.2-0.3-11.8-0.9-16.8-1.7c-5-0.8-9.3-1.7-12.8-2.5c-3.5-0.9-6.2-1.6-8.1-2.2
			C91.1,440.6,90.1,440.3,90.1,440.3z"/>
		<path class="st2" d="M96,478.6c0,0,1.1-0.7,3.2-2.1c2.2-1.2,5.4-3,9.9-4.3c4.5-1.3,10.2-2.1,16.7-1.9c6.5,0.1,13.9,1.4,21.6,3.2
			c7.8,1.8,16.1,4.3,25.1,6c8.9,1.8,18.5,2.8,28.2,1.4c9.7-1.4,18.7-6.7,24.4-15.2c5.8-8.4,9-18.6,12.7-28.6
			c3.6-10,7.5-20.2,13.5-29.1c3-4.4,6.5-8.5,10.5-12c4-3.4,8-6.5,11.9-9.6c15.7-12.3,30.3-24,40-36.5c4.9-6.2,8.5-12.4,10.9-18.3
			c2.5-5.9,3.8-11.3,4.4-15.8c0.7-4.5,0.8-8.1,0.8-10.5c0-2.5,0-3.8,0-3.8l0,0c0-0.9,0.7-1.7,1.7-1.7c0.9,0,1.7,0.7,1.7,1.7v0
			c0,0,0,1.3,0,3.9c-0.1,2.5-0.2,6.3-0.9,11c-0.7,4.7-2.1,10.4-4.7,16.5c-2.5,6.1-6.4,12.7-11.4,19.1c-10,12.9-24.8,24.7-40.6,37
			c-3.9,3.1-8,6.2-11.8,9.5c-3.8,3.3-7.1,7.1-10,11.4c-5.8,8.5-9.6,18.4-13.2,28.4c-3.7,10-6.9,20.4-13.1,29.3
			c-3.1,4.4-7,8.4-11.6,11.2c-1.2,0.6-2.3,1.3-3.6,1.8c-1.3,0.4-2.5,0.9-3.7,1.3c-2.5,0.8-5,1.3-7.6,1.7c-10.1,1.3-20.1-0.1-29-2.1
			c-9-2-17.3-4.7-25-6.7c-7.7-2-14.9-3.4-21.4-3.7c-6.5-0.4-12.1,0.3-16.6,1.5c-4.5,1.2-7.8,2.9-10,4C97.1,477.9,96,478.6,96,478.6z
			"/>
		<path class="st3" d="M295.9,494.9c0,0,2.8-2.1,8.1-5.1c5.3-3,12.9-7.3,22.1-12.5c9.1-5.2,19.5-11.6,29.5-19.9
			c5-4.1,9.8-8.8,13.7-14.2c3.9-5.4,6.8-11.6,7.4-18.1c0.4-6.5-0.7-13.3-2.5-19.8c-1.8-6.5-4.2-12.8-6.2-19.1
			c-2.1-6.3-3.8-12.6-4.4-18.9c-0.1-1.6-0.2-3-0.2-4.8l0.2-2.2c0.1-0.8,0.3-1.6,0.4-2.4c0.7-3.1,1.6-5.7,2.8-8.2
			c2.2-5,4.7-9.1,6.7-12.8c2-3.7,3.6-7,4.5-9.7c0.9-2.8,1.4-5,1.4-6.5c0-0.4,0.1-0.7,0.1-1c0,0,0-0.5,0-0.6
			c-0.1-0.1-0.1-0.2-0.1-0.2l0.1-0.8c0.1-0.9,0.9-1.5,1.8-1.4c0.6,0.1,1.2,0.5,1.3,1.1c0,0,0.1,0.3,0.2,1c0,0.3,0.1,0.3,0.1,0.9
			c0,0.3,0,0.7-0.1,1.2c0,1.8-0.4,4.3-1.3,7.4c-1,3.1-2.5,6.6-4.4,10.4c-1.9,3.9-4.3,8.1-6.3,12.7c-1,2.3-1.9,4.8-2.4,7.3l-0.3,1.8
			l-0.1,2.2c0,1.1,0.1,2.7,0.2,4.1c0.6,5.7,2.2,11.7,4.2,17.8c2,6.2,4.4,12.6,6.2,19.4c1.8,6.8,3.1,14,2.4,21.4
			c-0.8,7.5-4.3,14.3-8.6,20c-4.3,5.7-9.5,10.4-14.7,14.5c-10.5,8.2-21.4,14.1-30.7,19c-9.3,4.8-17.3,8.4-22.8,11.2
			C298.8,493,295.9,494.9,295.9,494.9z"/>
		<path class="st2" d="M329.5,454.5c0,0-0.3-1.4-0.7-3.9c-0.2-1.2-0.5-2.8-0.8-4.5c-0.3-1.7-0.2-3.7-0.4-5.9c0-1.1-0.2-2.2-0.1-3.4
			c0.1-1.2,0.2-2.4,0.3-3.6c0.2-1.2,0.1-2.5,0.4-3.8c0.3-1.3,0.6-2.6,1-3.9c0.3-1.3,0.7-2.6,1.3-3.9c0.6-1.3,1-2.6,1.7-3.9
			c1.5-2.5,2.9-5,4.8-7.2c1.7-2.4,3.8-4.4,5.8-6.4c2.1-1.9,4.1-3.9,6.2-5.6c2-1.8,4-3.5,5.9-5.1c1.9-1.6,3.5-3.3,4.9-4.9
			c1.5-1.5,2.5-3.2,3.6-4.5c0.7-1.5,1.4-2.8,1.8-3.9c0.5-2.3,0.8-3.6,0.8-3.6l0.1-0.4c0.2-0.9,1.1-1.5,2-1.3c0.9,0.2,1.5,1.1,1.3,2
			c0,0.1,0,0.2-0.1,0.2c0,0-0.6,1.5-1.5,4.1c-0.6,1.2-1.6,2.6-2.6,4.1c-1.3,1.3-2.4,3.1-4.1,4.5c-1.6,1.5-3.4,3-5.4,4.6
			c-1.9,1.6-4,3.2-6.1,4.9c-2.1,1.7-4.3,3.5-6.4,5.4c-2,2-4.1,4-5.8,6.3c-1.9,2.2-3.3,4.7-4.8,7.1c-0.7,1.3-1.1,2.6-1.7,3.8
			c-0.6,1.3-1.1,2.5-1.4,3.9c-0.3,1.3-0.7,2.6-1,3.8c-0.3,1.3-0.3,2.5-0.5,3.8c-0.1,1.2-0.3,2.4-0.4,3.6c-0.1,1.2,0.1,2.3,0.1,3.4
			c0.1,2.2,0.1,4.2,0.3,5.9c0.3,1.7,0.5,3.3,0.7,4.5C329.3,453.1,329.5,454.5,329.5,454.5z"/>
		<g>
			<path class="st2" d="M408.2,463.2c-0.6,0-1.1-0.3-1.4-0.8c-7.5-11.6-11.4-24.8-11.4-38.2c0-10.6,3.3-23.5,6.7-37.1
				c3.9-15.6,8-31.7,8-46.7c0-17.6-5.6-30.6-17.5-41.1c-0.7-0.6-0.8-1.7-0.2-2.4c0.6-0.7,1.7-0.8,2.4-0.2
				c12.6,11,18.7,25.3,18.7,43.6c0,15.4-4.1,31.7-8.1,47.5c-3.4,13.5-6.6,26.2-6.6,36.3c0,12.8,3.8,25.3,10.9,36.3
				c0.5,0.8,0.3,1.8-0.5,2.4C408.9,463.1,408.5,463.2,408.2,463.2z"/>
		</g>
		<path class="st2" d="M567.4,343.7c0,0,0.2-3.5,0.5-9.5c0.2-2.9-0.2-6.7-0.9-10.7c-0.6-4.1-1.7-8.6-3.5-13.3
			c-3.4-9.5-9.7-19.6-19-28.1c-4.6-4.2-9.9-8.2-15.6-11.5c-5.7-3.4-11.9-6.4-18.2-8.7c-12.8-4.7-26.4-7.1-39.2-7.7
			c-12.8-0.5-24.9,0.4-34.6,3.3c-9.7,2.9-17.3,7.3-22.7,9.9c-5.5,2.7-8.6,4.2-8.6,4.2c-0.8,0.4-1.9,0.1-2.3-0.8
			c-0.4-0.8-0.1-1.9,0.8-2.3l0,0l0,0c0,0,3.1-1.5,8.5-4.1c5.4-2.6,13.1-6.9,23.3-10.1c10.2-3.1,22.6-4.1,35.7-3.6
			c13.1,0.6,27.1,2.9,40.4,7.3c6.7,2.2,13.2,5,19.3,8.3c6.1,3.4,11.9,7.2,16.7,11.9c4.9,4.6,9.2,9.6,12.3,14.9
			c3.2,5.3,5.5,10.7,6.9,15.9c1.4,5.2,2,10,2.2,14.4c0.2,4.3-0.2,8-0.5,11.1c-0.4,3-0.9,5.4-1.2,7
			C567.5,342.8,567.4,343.7,567.4,343.7z"/>
		<path class="st2" d="M612.3,372.9c0-0.1-1.1,0.9-3.6,1.1c-1.2,0.1-2.7-0.3-4.1-1.4c-1.3-1.1-2.4-2.7-3.3-4.6
			c-0.9-1.9-1.6-4-2.1-6.4c-0.5-2.3-0.8-4.9-0.8-7.5c-0.2-5.1-0.9-10.6-2.2-15.9c-1.3-5.3-3.3-10.4-6-14.6c-2.7-4.2-6.3-7.2-9.9-8.7
			c-1.8-0.7-3.5-1.1-5-1.3c-0.8-0.1-1.5-0.2-2.2-0.1c-0.7,0-1.2,0-1.9,0.1c-2.4,0.2-3.5,0.5-3.5,0.4l-1.3-1.1
			c-0.5-0.5-0.6-1.3-0.1-1.8c0.2-0.2,0.5-0.4,0.8-0.4c0,0,0.4,0,1.1-0.1c0.7-0.1,1.7-0.2,2.9-0.2c1.1-0.1,2.9,0,4.6,0.3
			c1.8,0.3,3.8,0.8,5.8,1.7c4.1,1.8,8,5.5,10.7,10.1c2.8,4.6,4.6,10,5.7,15.4c1.1,5.5,1.6,11,1.6,16.2c-0.2,5.1,0.8,9.9,2.4,13.6
			c0.8,1.9,1.8,3.5,3.1,4.6c1.2,1.1,2.7,1.6,3.9,1.5C611.1,373.8,612.3,372.9,612.3,372.9z"/>
		<path class="st2" d="M616.6,390.4c0,0-0.4-0.5-1.2-1.6c-0.8-1-1.9-2.6-3.5-4.4c-1.6-1.8-3.5-4-6-6.4c-2.4-2.4-5.3-4.9-8.6-7.4
			c-3.4-2.4-7.1-5-11.3-7.2c-4.2-2.3-8.8-4.3-13.6-6.2c-4.9-1.8-10-3.4-15.2-5c-5.2-1.6-10.6-3.2-15.7-5.5
			c-5.1-2.3-10.1-5.4-13.5-10.1c-3.5-4.5-5-10.1-5.8-15.4c-0.7-5.3-0.7-10.4,0-15.3c0.6-4.9,2-9.4,3.8-13.3
			c1.8-3.9,3.7-7.1,4.1-10.1c0.2-0.7,0.1-1.5,0.2-2.1c0-0.8-0.1-1.6-0.2-2.2c-0.2-1.3-0.5-2.5-0.9-3.6c-0.7-2.2-1.6-3.8-2.2-4.9
			c-0.6-1.1-1-1.6-1-1.6l0-0.1c-0.5-0.8-0.2-1.9,0.6-2.3s1.9-0.2,2.3,0.6c0,0,0,0,0,0c0,0,0.4,0.6,1,1.8c0.6,1.2,1.6,3,2.3,5.5
			c0.4,1.3,0.8,2.6,1,4.2c0.1,0.9,0.2,1.6,0.2,2.4c0,1,0,1.8-0.2,2.8c-0.7,3.8-2.9,7.1-4.6,10.8c-1.8,3.7-3.2,7.8-3.9,12.4
			c-0.7,4.5-0.8,9.7-0.2,14.6c0.6,5,1.9,10.2,5.1,14.5c3,4.3,7.7,7.4,12.6,9.7c5,2.3,10.3,4,15.5,5.7c5.2,1.7,10.3,3.4,15.2,5.4
			c4.9,1.9,9.4,4.1,13.6,6.5c4.2,2.3,7.9,5,11.2,7.5c3.3,2.6,6.1,5.2,8.5,7.6c2.4,2.4,4.3,4.6,5.9,6.5c1.6,1.8,2.6,3.4,3.5,4.5
			C616.2,389.9,616.6,390.4,616.6,390.4z"/>
		<g>
			<path class="st3" d="M318.9,286.1c-0.2,0-0.4,0-0.6-0.1c-18.7-7.7-21.6-21.2-23.9-32.1c-2-9.4-3.3-15.5-13.3-15.5
				c-0.6,0-1.3,0-1.9,0.1c-0.9,0.1-1.8-0.5-1.9-1.5c-0.1-0.9,0.5-1.8,1.5-1.9c0.8-0.1,1.5-0.1,2.3-0.1c12.8,0,14.7,8.9,16.7,18.2
				c2.3,10.6,4.9,22.7,21.9,29.7c0.9,0.4,1.3,1.4,0.9,2.2C320.2,285.7,319.5,286.1,318.9,286.1z"/>
		</g>
		<g>
			<path class="st2" d="M214.2,324.8c-7.8,0-10.4-20.9-10.4-28.2c0-35.4,15.9-55.8,43.6-55.8c9.6,0,19.3,3.1,28.7,6.1
				c9.4,3,18.3,5.9,27.2,5.9c7.5,0,14.2-2.1,20.6-6.5c0.8-0.5,1.8-0.3,2.4,0.4c0.5,0.8,0.3,1.8-0.4,2.4c-6.9,4.8-14.3,7.1-22.5,7.1
				c-9.4,0-19-3.1-28.2-6c-9.1-2.9-18.6-6-27.7-6c-35,0-40.2,32.8-40.2,52.4c0,11.1,3.9,24.8,7,24.8c0.3,0,0.6-0.1,0.9-0.2
				c0.8-0.4,1.9-0.1,2.3,0.8c0.4,0.8,0.1,1.9-0.8,2.3C215.9,324.6,215.1,324.8,214.2,324.8z"/>
		</g>
	</g>
	<g>
		<path class="st4" d="M317.4,238.4c9.4,10.2,19.4,19.2,27.3,31.4c12.3,18.9,38.4,11.2,33.6,49.3c-0.7,5.9-5.8,14.6-13.2,13.7
			c-4.6-0.6-9.4-3.9-14.5-4.6c-1.7-0.2-3.2-0.1-4.4,0.3C343.9,294.7,341.1,265.4,317.4,238.4z"/>
		<path class="st5" d="M326.8,276.1c1.6-12.9-3.1-26-9.4-37.7c23.7,27,26.4,56.2,28.7,90.2c-7.5,2.3-8.8,13.3-21.3,11.8
			c-12.7-1.6-16.4-15.3-15-26.5C312.1,296.3,324.3,296.4,326.8,276.1z"/>
	</g>
	<g>
		<path class="st4" d="M213.5,324c18.5,4.1,36.7,6.4,55.2,13.8c28.5,11.5,51.7-17.5,76.2,29c3.8,7.2,4.9,21-4.1,25.7
			c-5.6,2.9-13.6,3-19.9,6.3c-2.1,1.1-3.6,2.4-4.7,3.8C287.2,366.3,261.2,335.7,213.5,324z"/>
		<path class="st5" d="M253.6,358.8c-8.3-15.8-23.9-26.7-40-34.9c47.7,11.7,73.7,42.3,102.8,78.6c-6.7,8.4,0.6,21.8-14.6,29.8
			c-15.5,8.1-30.4-4.4-37.5-18C252.9,392.9,266.6,383.6,253.6,358.8z"/>
	</g>
	<g>
		<path class="st4" d="M307.7,192.8c-13,7.6-24.8,16-39.6,21.6c-22.8,8.6-20.7,38-60,24.1c-6.1-2.1-14.1-9.6-11.4-17.1
			c1.7-4.7,6.3-9,8.2-14.3c0.6-1.7,0.8-3.3,0.7-4.8C242.1,207.7,273.6,211.5,307.7,192.8z"/>
		<path class="st5" d="M265.6,194c13.3,4.7,28.2,2.7,42-1.2c-34.1,18.8-65.6,14.9-102.1,9.5c-0.6-8.5-12.1-12.4-7.5-25.2
			c4.6-13,20-13.8,31.5-9.7C247.7,173.8,244.8,186.6,265.6,194z"/>
	</g>
	<g>
		<path class="st6" d="M375.3,268.6c0,12.5-6.8,18.8-12.6,18.8c-7.2,0-10.7-10.7-16.6-10.9c-1.3-5-1.9-10.1-1.9-15.2
			c0-29,13.8-47.5,32.2-60.4c-5,5.3-9,11.4-10.8,17.8c-1,3.5-1.4,6.9-1.4,10.4C364.3,246.7,375.3,256.4,375.3,268.6z"/>
		<path class="st7" d="M376.5,200.9c-18.4,12.9-32.2,31.4-32.2,60.4c0,5.1,0.6,10.2,1.9,15.2c-0.1,0-0.1,0-0.2,0
			c-7.9,0,0.6,12.9-10.9,12.9c-1.5,0-2.9,0.1-4.4,0.1c-12,0-27.1-8.9-27.1-30.9c0-24.8,15-33.3,28.2-37c10.8-3.1,20.5-9.1,28.6-16.9
			c7.9-7.6,19.6-17.1,34.4-24.7C387.7,183.6,383.1,193.8,376.5,200.9z"/>
	</g>
	<g>
		<path class="st6" d="M243,307c-5.8-7.9-4.4-15-0.8-17.7c4.5-3.3,11.7,1.8,15.5-0.8c3.1,2.5,5.9,5.5,8.2,8.7
			c13.4,18.3,13.3,36.3,7.6,53c0.7-5.7,0.4-11.3-1.4-16.2c-1-2.7-2.3-5-3.9-7.2C260.1,315.7,248.6,314.7,243,307z"/>
		<path class="st7" d="M273.6,350.2c5.6-16.6,5.8-34.7-7.6-53c-2.4-3.2-5.1-6.2-8.2-8.7c0.1,0,0.1,0,0.1-0.1c5-3.6-6.3-7.9,0.9-13.2
			c0.9-0.7,1.8-1.4,2.7-2.1c7.5-5.5,21.2-6.9,31.4,7c17.3,23.6-4.1,39.5-9.3,46.3c0,0-4.5,21.1-16.1,44.4
			C270.2,365.3,272.7,357.7,273.6,350.2z"/>
	</g>
	<g>
		<path class="st6" d="M293.9,541.5c0,8-4.4,12-8,12c-4.6,0-6.8-6.8-10.6-7c-0.8-3.2-1.2-6.4-1.2-9.7c0-18.5,8.8-30.4,20.6-38.6
			c-3.2,3.4-5.7,7.3-6.9,11.4c-0.6,2.2-0.9,4.4-0.9,6.6C286.8,527.5,293.9,533.7,293.9,541.5z"/>
		<path class="st7" d="M294.6,498.2c-11.8,8.2-20.6,20.1-20.6,38.6c0,3.3,0.4,6.5,1.2,9.7c0,0-0.1,0-0.1,0c-5,0,0.4,8.2-7,8.2
			c-0.9,0-1.8,0.1-2.8,0.1c-7.6,0-17.3-5.7-17.3-19.8c0-23.9,21.8-24.1,28.5-26c0,0,13.1-11.8,32.1-21.5
			C304.2,489.9,298.9,493.6,294.6,498.2z"/>
	</g>
	<g>
		<path class="st6" d="M324.4,442.5c0,13.1-6.9,19.7-12.7,19.7c-7.3,0-10.8-11.2-16.8-11.4c-1.3-5.2-1.9-10.5-1.9-15.9
			c0-30.4,13.9-49.7,32.5-63.2c-5,5.6-9.1,11.9-10.9,18.6c-1,3.7-1.4,7.3-1.4,10.9C313.3,419.5,324.4,429.7,324.4,442.5z"/>
		<path class="st7" d="M325.6,371.6C307,385.1,293,404.5,293,434.9c0,5.3,0.6,10.7,1.9,15.9c-0.1,0-0.1,0-0.2,0
			c-7.9,0,0.6,13.5-11,13.5c-1.5,0-2.9,0.1-4.4,0.1c-12.1,0-27.4-9.3-27.4-32.4c0-39.2,34.4-39.4,45.1-42.6c0,0,20.8-19.2,50.8-35.2
			C340.7,358,332.3,364.2,325.6,371.6z"/>
	</g>
	<g>
		<path class="st8" d="M125.9,415c-4.8-6.6-17.4-8-21.3-13.4c-3.8-5.1,3.2-18.3,10.9-24c28.8-21.1,59.8,10.5,100.6-18.5
			c-8.1,8-16.9,15.3-26.1,22c-19.5,14.3-41.1,26.1-63.5,35.7C126.5,416.2,126.3,415.6,125.9,415z"/>
		<path class="st9" d="M218.1,357.7c-11.2,19.8-32.5,29.6-32.8,45.8c-0.2,14.7-6.8,26.2-16.7,33.4c-13.9,10.2-37.3,12.5-45.2,2.3
			c-0.1-0.1-0.1-0.2-0.2-0.2c-5.5-7.5,3.4-16.8,3.3-22.1c22.4-9.6,44-21.3,63.5-35.7c9.2-6.8,18-14.1,26.1-22
			c0.4-0.2,0.7-0.5,1.1-0.8C217.5,358.2,217.8,358,218.1,357.7z"/>
	</g>
	<g>
		<path class="st8" d="M101.8,83.2c5.5-6,6.2-17,10.7-21.9c4.3-4.7,16.1-2.8,21.3,2.1c19.6,18-6.6,53.5,20.4,79.3
			c-7.3-4.5-14-9.7-20.3-15.5c-13.3-12.2-24.4-26.9-33.7-42.9C100.8,84,101.3,83.7,101.8,83.2z"/>
		<path class="st9" d="M155.6,143.9c-17.7-3.6-27.2-18.6-41.2-14.1c-12.8,4.1-23.1,2-29.8-4.2c-9.4-8.7-12.5-27.7-3.9-37.4
			c0.1-0.1,0.1-0.1,0.2-0.2c6.3-6.9,14.8-2.1,19.3-3.8c9.3,16,20.4,30.7,33.7,42.9c6.3,5.8,13,11,20.3,15.5c0.2,0.2,0.5,0.5,0.7,0.7
			C155.1,143.5,155.4,143.7,155.6,143.9z"/>
	</g>
	<g>
		<path class="st8" d="M67.7,554.8c6.1,2.9,9.5,12.2,14.5,14.5c4.8,2.2,13.9-4.5,17-11c11.4-24.2-19.4-43.8-4-78
			c-4.8,7.1-9,14.6-12.6,22.3c-7.7,16.4-13,34-16.4,52C66.7,554.5,67.2,554.6,67.7,554.8z"/>
		<path class="st9" d="M96,478.6c-13.6,10.8-17.4,28-30.1,30.1c-11.6,1.9-19.4,8.2-23.4,16.5c-5.5,11.6-3,29.5,6.6,34.3
			c0.1,0,0.1,0.1,0.2,0.1c7,3.3,12.7-4.5,16.8-5.1c3.4-18,8.7-35.6,16.4-52c3.6-7.7,7.8-15.2,12.6-22.3c0.1-0.3,0.3-0.6,0.4-0.9
			C95.7,479.1,95.8,478.9,96,478.6z"/>
	</g>
	<g>
		<path class="st8" d="M583.6,420.2c6.7-0.8,14.5,5.4,20,4.7c5.2-0.6,9.4-11.2,8.6-18.3c-3-26.6-39.5-27.1-44.4-64.3
			c-0.4,8.5,0,17.1,1,25.6c2.1,18,6.8,35.8,13.3,52.9C582.5,420.5,583,420.3,583.6,420.2z"/>
		<path class="st9" d="M567.6,340.6c-5.9,16.3-0.1,33-9.8,41.4c-8.8,7.7-12.2,17.2-11.2,26.3c1.5,12.8,13,26.7,23.7,25.8
			c0.1,0,0.2,0,0.2,0c7.7-0.9,8.4-10.5,11.7-13.2c-6.6-17.1-11.3-34.9-13.3-52.9c-1-8.5-1.4-17-1-25.6c-0.1-0.3-0.1-0.7-0.1-1
			C567.6,341.2,567.6,340.9,567.6,340.6z"/>
	</g>
	<g>
		<path class="st8" d="M174.4,262.6c1.2,10.7-6.9,23-5.9,31.8c0.9,8.4,15.1,15.6,24.6,14.6c35.5-3.8,35.5-62.2,85-68.5
			c-11.4-0.9-22.8-0.6-34.2,0.6c-24,2.6-47.7,9.4-70.4,19.2C174,260.9,174.3,261.7,174.4,262.6z"/>
		<path class="st9" d="M280.6,240.1c-21.9-10.1-44.1-1.5-55.6-17.3c-10.5-14.5-23.2-20.3-35.4-19c-17,1.8-35.4,19.7-34,36.8
			c0,0.1,0,0.3,0,0.4c1.3,12.3,14.2,13.9,17.8,19.2c22.8-9.8,46.4-16.7,70.4-19.2c11.3-1.2,22.8-1.5,34.2-0.6
			c0.4-0.1,0.9-0.1,1.3-0.2C279.8,240.2,280.2,240.1,280.6,240.1z"/>
	</g>
	<g>
		<path class="st8" d="M481.8,308.2c0.7-4.6,5.4-8.8,5.9-12.6c0.5-3.6-4.6-8.1-8.6-8.7c-15.2-2.3-21.5,22-42.8,19.3
			c4.6,1.6,9.4,2.7,14.3,3.5c10.3,1.5,20.9,1.3,31.4-0.4C481.8,309,481.8,308.6,481.8,308.2z"/>
		<path class="st9" d="M435.2,306.1c8,6.6,18.2,5.4,21.2,13.2c2.8,7.2,7.4,11,12.7,11.7c7.3,1.1,16.9-4.4,18.1-11.6
			c0-0.1,0-0.1,0-0.2c0.8-5.3-4.4-7.3-5.3-9.9c-10.5,1.6-21.1,1.9-31.4,0.4c-4.8-0.7-9.6-1.9-14.3-3.5c-0.2,0-0.4,0-0.6-0.1
			C435.5,306.1,435.4,306.1,435.2,306.1z"/>
	</g>
	<g>
		<path class="st8" d="M49.3,453.7c0.8,4.6-2.4,10.1-1.7,13.8c0.6,3.6,6.9,6.3,10.9,5.6c15.1-2.5,13.6-27.6,34.8-31.6
			c-4.9-0.1-9.8,0.3-14.7,1.1c-10.2,1.7-20.2,5.3-29.7,10.1C49,453,49.2,453.3,49.3,453.7z"/>
		<path class="st9" d="M94.3,441.4c-9.7-3.8-19,0.5-24.3-6c-4.9-5.9-10.5-8.1-15.7-7.3c-7.3,1.2-14.7,9.4-13.7,16.7
			c0,0.1,0,0.1,0,0.2c0.9,5.2,6.5,5.6,8.1,7.8c9.5-4.8,19.5-8.3,29.7-10.1c4.8-0.8,9.7-1.2,14.7-1.1c0.2,0,0.4-0.1,0.6-0.1
			C93.9,441.4,94.1,441.4,94.3,441.4z"/>
	</g>
	<g>
		<path class="st10" d="M291,345.3c17.4-4.4,33.7-10.2,52.5-11.8c29-2.4,36.2-36.8,76.7-7.9c6.2,4.5,13.1,15.6,7.5,23.4
			c-3.5,4.8-10.2,8.3-14.1,13.7c-1.3,1.8-2,3.5-2.4,5.2C371.2,349.8,336.2,335,291,345.3z"/>
		<path class="st11" d="M339.6,357.8c-13.7-9.8-31.5-12.4-48.6-12.4c45.2-10.3,80.2,4.4,120.2,22.7c-2,10,9.8,18.2,0.3,31.4
			c-9.6,13.4-27.5,9.2-39.3,0.7C353.5,386.8,361.1,373.1,339.6,357.8z"/>
	</g>
	<g>
		<path class="st10" d="M327.4,441.2c2.2,16.3,2.8,32,7.9,48.7c8,25.8-19.5,40.8,19.6,68.8c6,4.3,18.1,7.5,23,0.6
			c3-4.2,3.7-11,7.1-15.8c1.1-1.6,2.4-2.7,3.7-3.4C359.1,509.9,334.1,483.2,327.4,441.2z"/>
		<path class="st11" d="M355.1,480.4c-13.3-9.5-21.7-24.3-27.6-39.2c6.7,42,31.6,68.7,61.4,99c8-4.3,19.2,4,27.5-7.6
			c8.4-11.7-1.5-26.3-13-34.4C385.2,485.2,375.9,495.2,355.1,480.4z"/>
	</g>
	<g>
		<path class="st12" d="M642.7,397.5c17.3,1.6,28.5-1.2,44,0.2c16.6,1.6,31.7,7,30.1,23.7c-1.4,14.8-10.7,12.6-14.3,19.4
			c-18.5-27.6-59.3-32.3-82.8-47.3c0,0,0,0-0.1,0c-1-1-2-2-3.1-3.1C624.7,394.6,633.6,396.6,642.7,397.5z"/>
		<path class="st13" d="M702.5,440.8c-0.6,1.2-1.1,2.8-1.3,4.8c-1.1,11.5-15.6,17.4-23.5,16.6c-9.8-0.9-26.3-15.4-24.5-33.9
			c1.1-11.4-13.7-15.7-33.4-34.8C643.2,408.5,684,413.3,702.5,440.8z"/>
	</g>
	<g>
		<path class="st12" d="M623.8,372.9c9.6,0.9,15.4,3.8,23.9,4.6c9.2,0.9,18-0.8,19-11c0.9-9.1-4.4-8.8-5.7-13.2
			c-13,14.6-35.7,13-50.1,19.4c0,0,0,0,0,0c-0.7,0.5-1.3,1-2,1.5C613.7,372.7,618.7,372.4,623.8,372.9z"/>
		<path class="st13" d="M661,353.4c-0.2-0.8-0.3-1.8-0.2-3c0.7-7.1-6.6-12.1-11-12.5c-5.4-0.5-16,6.4-17,17.7
			c-0.7,7-9.1,7.9-21.9,17.3C625.2,366.3,647.9,367.9,661,353.4z"/>
	</g>
	<g>
		<path class="st12" d="M430.5,467.5c15.8,1.5,26.2-1.9,40.3-0.6c15.1,1.4,28.9,7.3,27.2,26.1c-1.6,16.7-10,14.4-13.5,22
			c-16.4-30.6-53.7-35.2-74.9-51.5c0,0,0,0-0.1,0c-0.9-1.1-1.8-2.2-2.7-3.4C414.1,464.6,422.2,466.7,430.5,467.5z"/>
		<path class="st13" d="M484.5,515c-0.6,1.4-1.1,3.1-1.3,5.4c-1.2,13-14.6,19.8-21.9,19.1c-8.9-0.8-23.8-16.8-21.8-37.6
			c1.2-12.9-12.2-17.4-29.9-38.4C430.8,479.8,468.1,484.4,484.5,515z"/>
	</g>
	<g>
		<path class="st12" d="M276.6,212.7c0.6-15.8-3.4-26-2.9-40.2c0.5-15.2,5.6-29.3,24.5-28.6c16.7,0.6,15,9.2,22.8,12.2
			c-29.6,18.1-32,55.7-47.1,77.8c0,0,0,0,0,0.1c-1,1-2.1,2-3.2,2.9C274.7,229.2,276.3,221,276.6,212.7z"/>
		<path class="st13" d="M320.9,156.1c1.4,0.5,3.2,0.9,5.5,1c13,0.5,20.6,13.4,20.4,20.8c-0.3,9-15.4,24.7-36.3,23.9
			c-12.9-0.5-16.6,13.2-36.6,32.1C288.9,211.7,291.3,174.2,320.9,156.1z"/>
	</g>
	<g>
		<path class="st12" d="M291.3,46.7c10.1-9.4,14.3-17.8,23.3-26.2c9.7-9,21.2-14.9,31.2-4.1c8.8,9.5,2.5,13.8,4.9,19.9
			c-27.5-5.1-52.1,16.5-74.1,21.8c0,0,0,0-0.1,0c-1.2,0-2.4,0-3.6,0C280,55.7,286,51.6,291.3,46.7z"/>
		<path class="st13" d="M350.8,36.3c0.5,1.1,1.2,2.3,2.4,3.6c6.9,7.4,3,19.5-1.7,23.9c-5.7,5.3-23.8,6.7-34.8-5.2
			c-6.8-7.4-17.3-1-40-0.4C298.7,52.9,323.3,31.2,350.8,36.3z"/>
	</g>
	<g>
		<path class="st12" d="M454,128.4c9.3-15.9,11.5-28.2,19.9-42.4c9-15.3,21.3-27.3,37.6-17.7c14.4,8.5,8.1,16.4,13.3,23.2
			c-36.3,4.6-59.3,41.8-85,57.2c0,0-0.1,0-0.1,0.1c-1.4,0.5-2.9,1-4.5,1.5C443.1,144.3,449.1,136.8,454,128.4z"/>
		<path class="st13" d="M524.8,91.4c1,1.2,2.3,2.4,4.3,3.5c11.3,6.6,10.7,23.4,6.4,30.8c-5.3,9-27.4,18-45.4,7.4
			c-11.2-6.6-22,5.6-50.3,15.6C465.4,133.2,488.5,96,524.8,91.4z"/>
	</g>
</g>
</svg>
