<?xml version="1.0" encoding="utf-8"?>
<!-- Generator: Adobe Illustrator 24.0.3, SVG Export Plug-In . SVG Version: 6.00 Build 0)  -->
<svg version="1.1" id="Layer_55" xmlns="http://www.w3.org/2000/svg" xmlns:xlink="http://www.w3.org/1999/xlink" x="0px" y="0px"
	 viewBox="0 0 599.3 587.9" style="enable-background:new 0 0 599.3 587.9;" xml:space="preserve">
<style type="text/css">
	.st0{fill:#6E7696;}
	.st1{fill:#17280E;}
	.st2{fill:#386045;}
	.st3{fill:#456951;}
	.st4{fill:#1C3E21;}
	.st5{fill:#28472E;}
	.st6{fill:#356043;}
	.st7{fill:#24572A;}
	.st8{fill:#51893F;}
	.st9{fill:#6EA56D;}
	.st10{fill:#4C7747;}
	.st11{fill:#559055;}
	.st12{fill:#4B873D;}
	.st13{fill:#599059;}
	.st14{fill:#69996A;}
	.st15{fill:#3D6E35;}
	.st16{fill:#3E6F34;}
	.st17{fill:#6AA166;}
	.st18{fill:#5D9158;}
	.st19{fill:#669B61;}
	.st20{fill:#61985F;}
	.st21{fill:#487B39;}
	.st22{fill:#3D7130;}
	.st23{fill:#68A530;}
	.st24{fill:#76B725;}
	.st25{fill:#75B223;}
	.st26{fill:#5DA129;}
</style>
<g>
	
		<ellipse transform="matrix(0.7071 -0.7071 0.7071 0.7071 -146.1876 294.0154)" class="st0" cx="281.8" cy="323.5" rx="112.3" ry="112.3"/>
	<circle class="st1" cx="281.8" cy="323.5" r="93.6"/>
	<g>
		<g>
			<path class="st2" d="M577.5,410.2c-112-29-167.4-86.7-277.4-67.2c2,0.3,3.9,0.8,5.8,1.3c45.9,11.9,154.6,92.1,273.5,67.5
				C579.4,411.1,578.8,410.5,577.5,410.2z"/>
			<path class="st3" d="M490.4,436.8c52.8-1.6,89-19,88.9-24.9c-118.9,24.6-227.6-55.6-273.5-67.5c-1.9-0.5-3.8-1-5.8-1.3
				c-10,1.7-20.5,4.1-31.5,7.2c0.3,0.3,0.6,0.7,0.9,1c19.4,5.3,40.6,11.9,58.5,16.6C385.4,382.8,433.7,415.8,490.4,436.8z"/>
			<path class="st4" d="M327.9,367.9c-17.9-4.6-39-11.3-58.5-16.6c22.2,26.9,99,64.6,148,77.3c26.2,6.8,51,8.8,72.9,8.2
				C433.7,415.8,385.4,382.8,327.9,367.9z"/>
		</g>
		<g>
			<path class="st5" d="M110.8,287.7c-6.3,5.2-26,9-26,9c1.4,8.2,11.2,16.8,26,24.6c107.5,6.6,133.7,15.6,184.6,14
				c-4.5-2.5-8.9-6.9-13.3-8.7c-2.3-0.9-14.6-7.9-32-16.5c0,0,0,0-0.1,0c-61.3-12.1-1.9,23.8-130.4-27.8
				C116.4,283.7,113.4,285.5,110.8,287.7z"/>
			<path class="st6" d="M250.1,310.1c-37.2-18.1-97.3-42.6-130.4-27.8C248.2,334,188.8,298,250.1,310.1z"/>
			<path class="st7" d="M295.4,335.3c-50.9,1.6-77.1-7.4-184.6-14c45.7,23.9,139.5,40.4,186.9,15.1
				C297,336.1,296.2,335.7,295.4,335.3z"/>
		</g>
		<g>
			<path class="st8" d="M569,220.1c0.2-0.1,0.5-0.1,0.7-0.1c-72.6,78.7-187.2,91.7-286.5,115.4c0.2-0.3,0.5-0.6,0.9-1.1
				C374.1,286.1,470.1,245.7,569,220.1z"/>
			<path class="st9" d="M569,220.1c-98.9,25.5-194.9,66-284.9,114.2C294.6,321.1,384.2,230.6,569,220.1z"/>
		</g>
		<g>
			<path class="st8" d="M54.7,147.8c-0.2-0.2-0.3-0.4-0.4-0.5c104.8,21.9,174.8,113.6,246.1,186.6c-0.3,0-0.8-0.1-1.4-0.2
				C211.4,281.1,127.4,219.6,54.7,147.8z"/>
			<path class="st9" d="M54.7,147.8c72.7,71.7,156.7,133.3,244.3,185.9C282.3,331.4,158.6,301,54.7,147.8z"/>
		</g>
		<g>
			<path class="st10" d="M445.5,519.1c0,13.1,10.2,41.4,10.2,41.4c-7.6,6.7-21.1,3.4-37.3-6.9C340.9,427.4,316,404.3,283.1,339.6
				c5.1,3,11.5,3.9,15.9,7.5c2.3,1.9,16.2,9.9,34.8,22.7c0,0,0,0,0.1,0.1c50.9,63.4-18,26.9,110,132.8
				C444.9,508.1,445.5,513.5,445.5,519.1z"/>
			<path class="st11" d="M333.9,369.8c39.5,27.4,99.7,76.5,110,132.8C315.9,396.7,384.8,433.2,333.9,369.8z"/>
			<path class="st12" d="M283.1,339.6c32.9,64.7,57.7,87.8,135.2,214.1c-49.9-31.9-126.1-131.1-137.7-215.8
				C281.5,338.5,282.3,339.1,283.1,339.6z"/>
		</g>
		<g>
			<path class="st13" d="M298.2,14.3c0,115.7,36.3,183.8-3.9,285.4c0.2-2,0.2-3.9,0.2-5.9c0-47.4-43.6-172.7,2.7-281.7
				C297.9,12.2,298.2,13,298.2,14.3z"/>
			<path class="st14" d="M257.1,91.9c12.7-50.7,35.2-81.4,40.1-79.9c-46.3,108.9-2.7,234.3-2.7,281.7c0,2,0,3.9-0.2,5.9
				c-3.6,9.2-7.9,18.8-12.9,28.7c-0.2-0.4-0.5-0.8-0.7-1.1c-0.2-20.2-1.2-42.3-1.2-60.8C279.5,207.2,262.4,152.2,257.1,91.9z"/>
			<path class="st15" d="M279.5,266.5c0,18.5,1,40.6,1.2,60.8C263,299,248.2,215.2,248.2,164.6c0-27,3.6-51.6,8.9-72.7
				C262.4,152.2,279.5,207.2,279.5,266.5z"/>
		</g>
		<g>
			<path class="st2" d="M353.9,578c-34.1-86.3-81.3-126.4-81.3-214c0.5,1.5,1,3,1.6,4.5c14,35.4,83.4,116,81.1,210.9
				C354.8,579.4,354.3,578.9,353.9,578z"/>
			<path class="st3" d="M361.7,508c5.5,41.6-2.2,71.1-6.3,71.4c2.4-94.9-67.1-175.5-81.1-210.9c-0.6-1.5-1.2-2.9-1.6-4.5
				c-0.1-7.9,0.3-16.3,1.1-25.2c0.3,0.2,0.6,0.4,0.8,0.6c6.1,15,13.4,31.2,18.8,45C310.9,428.6,339.9,464.6,361.7,508z"/>
			<path class="st4" d="M293.4,384.4c-5.5-13.8-12.7-30-18.8-45c21.6,15.8,57.4,73.9,72.3,111.7c8,20.2,12.5,39.5,14.8,56.8
				C339.9,464.6,310.9,428.6,293.4,384.4z"/>
		</g>
		<g>
			<path class="st16" d="M273.3,341.6c0.8-0.6,1.5-1.3,2.3-2c-0.7,17.3-4,34.4-11.1,51.1c-24.8,58.9-54.7,136.4-154.7,163
				c0.2-0.2,1.1-1.5,2.6-3.7C271.4,435.8,193.6,451.9,273.3,341.6z"/>
			<path class="st17" d="M273.3,341.6c-79.7,110.4-2,94.3-160.8,208.5C128.2,526.3,210.6,394.9,273.3,341.6z"/>
		</g>
		<g>
			<path class="st18" d="M189.5,205c19.5-11.1,100.2,61.7,90.5,131C261.3,308.5,214.3,240.7,189.5,205z"/>
			<path class="st19" d="M279.9,336c0,0.7-0.2,1.3-0.2,2c-54.2-13.9-94.4-67.5-94.4-123.6c0-4.8,1.5-7.9,4.2-9.3
				C214.3,240.7,261.3,308.5,279.9,336z"/>
		</g>
		<g>
			<path class="st20" d="M268.4,348.5c0.3,0.2,0.7,0.3,1,0.5c-5.4,5.4-12.3,9.9-19.1,14.5c-42.3,28.3-88,40.2-134,40.2
				C55.9,403.7,25,399,13.7,392C98.1,387.2,186.3,370,268.4,348.5z"/>
			<path class="st21" d="M249.7,341.2c6.3,2,12.5,4.5,18.7,7.3C186.3,370,98.1,387.2,13.7,392c-9.5-5.9-4.9-13.5,7.9-21.2h0.1
				C88.5,367.5,180.1,350.7,249.7,341.2z"/>
			<path class="st22" d="M182.5,330.8c22.7,0,45.2,3.1,67.2,10.5c-69.5,9.5-161.1,26.3-228,29.5C53.6,351.5,136.7,330.8,182.5,330.8
				z"/>
		</g>
		<g>
			<path class="st20" d="M280.7,335.6c-0.2-0.2-0.4-0.3-0.6-0.5c4.6-2.8,10.2-4.7,15.7-6.7c34.1-12.2,67.7-12.4,99.4-4.4
				c41.6,10.5,62.2,19.1,68.8,25.9C404.9,338.5,341.1,335.1,280.7,335.6z"/>
			<path class="st21" d="M292.3,343.9c-4-2.5-7.8-5.3-11.6-8.3c60.4-0.5,124.2,2.9,183.3,14.2c5.5,5.7,1.1,10.2-9.1,13.3l-0.1,0
				C408.1,353.7,342,349.4,292.3,343.9z"/>
			<path class="st22" d="M336.9,362.7c-15.6-3.9-30.6-10-44.5-18.9c49.6,5.5,115.7,9.8,162.5,19.2
				C429.4,370.8,368.5,370.7,336.9,362.7z"/>
		</g>
		<g>
			<path class="st23" d="M410.6,412.5c-1.3,1-3.8,1.4-7.8,1c-50.7-5.3-102.2-28.8-124.2-76.6c0.1,0,0.2,0,0.3,0
				c34.4,20.1,45.5,20.4,70.3,35.3C370.5,384.9,389.6,400.2,410.6,412.5z"/>
			<path class="st24" d="M310,339.4c23.5,2.5,112.5,64,100.6,73.1c-21-12.4-40.1-27.6-61.4-40.4c-24.8-14.9-35.9-15.2-70.3-35.3
				C289.2,338.3,299.7,338.4,310,339.4z"/>
		</g>
		<g>
			<path class="st23" d="M354.3,171.2c1.4,1.4,2.1,4.4,2.1,9.2c0,61.7-21.8,126.6-76.7,159.1c0-0.2,0-0.2,0-0.4
				c19.8-43.9,18.9-57.4,33.6-89C326.1,223,342,198.1,354.3,171.2z"/>
			<path class="st24" d="M278.9,301.5c0-28.6,63-143.4,75.4-130.2c-12.3,26.8-28.2,51.7-40.9,78.9c-14.8,31.7-13.8,45.1-33.6,89
				C280.1,326.7,278.9,314,278.9,301.5z"/>
		</g>
		<g>
			<path class="st25" d="M281.6,337.9c3.4,10.7-29.4,48-108,52.4c0.5-0.5,1-1,1.5-1.4C211.3,375.7,248.4,356,281.6,337.9z"/>
			<path class="st26" d="M276.8,335.1c2.6,0,4.2,1,4.8,2.8c-33.2,18.1-70.2,37.8-106.5,50.9C220.7,345.3,269.3,335.1,276.8,335.1z"
				/>
		</g>
	</g>
</g>
</svg>
