<?xml version="1.0" encoding="utf-8"?>
<!-- Generator: Adobe Illustrator 24.0.3, SVG Export Plug-In . SVG Version: 6.00 Build 0)  -->
<svg version="1.1" id="Layer_55" xmlns="http://www.w3.org/2000/svg" xmlns:xlink="http://www.w3.org/1999/xlink" x="0px" y="0px"
	 viewBox="0 0 748.9 731.6" style="enable-background:new 0 0 748.9 731.6;" xml:space="preserve">
<style type="text/css">
	.st0{fill:#86CD65;}
	.st1{fill:#66AD3B;}
	.st2{fill:#6EB149;}
	.st3{fill:#51A52E;}
	.st4{fill:#A7EFA6;}
	.st5{fill:#7DC471;}
	.st6{fill:#C5FEBA;}
	.st7{fill:#77CC6E;}
	.st8{fill:#BDEEAC;}
	.st9{fill:#A04944;}
	.st10{fill:#17280E;}
	.st11{fill:#2D501B;}
	.st12{fill:#4A7A33;}
	.st13{fill:#4A8220;}
	.st14{fill:#3B7828;}
	.st15{fill:#3E8136;}
	.st16{fill:#457C36;}
	.st17{fill:#317821;}
	.st18{fill:#739144;}
	.st19{fill:#2D6F0D;}
	.st20{fill:#2C6D17;}
	.st21{fill:#438D53;}
	.st22{fill:#A0D189;}
	.st23{fill:#99D96A;}
	.st24{fill:#8BCF76;}
	.st25{fill:#96D88E;}
	.st26{fill:#9DD38E;}
	.st27{fill:#7DCF6A;}
	.st28{fill:#CEE8A5;}
	.st29{fill:#70C646;}
	.st30{fill:#72C458;}
	.st31{fill:#A3E4B1;}
	.st32{fill:#48832D;}
	.st33{fill:#316313;}
	.st34{fill:#36671B;}
	.st35{fill:#235B0C;}
	.st36{fill:#5BA55A;}
	.st37{fill:#3E7A34;}
	.st38{fill:#75B469;}
	.st39{fill:#3A8233;}
	.st40{fill:#70A45E;}
</style>
<g>
	<g id="XMLID_32_">
		<path class="st0" d="M126.3,340.5c0.3,1.9,0.5,3.9,0.5,5.9c0,13.3-6.5,26.8-18.2,31.6c-3.1,1.3-6.3,2.8-9.6,4.2
			c-4-24.2-11.2-22.7-17.9-45.3c0.2,0,0.4,0.1,0.6,0.1c0.5,0,1.1-0.1,1.6-0.5c8.7,3.6,18,4.6,27.3,4.6
			C114,341.1,120.7,340.8,126.3,340.5z"/>
		<path class="st1" d="M126.3,340.5c-5.6,0.3-12.3,0.6-15.7,0.6c-9.3,0-18.5-1-27.3-4.6c0.5-0.4,0.9-0.9,0.9-1.7
			c0-0.3,0-0.6-0.1-0.8c10.6-2.5,21.1-15,29.4-22.1c0,0.2-0.1,0.4-0.1,0.6C113.5,312.5,124,325.3,126.3,340.5z"/>
		<path class="st2" d="M114.2,308.8c0,1.1-0.5,2.1-0.7,3.1c-8.3,7.1-18.8,19.6-29.4,22.1c-0.3-1-1-1.9-1.8-2.3
			c8.6-12.2-0.4-29,9.3-42.7C99.5,290.5,114.2,301.4,114.2,308.8z"/>
		<path class="st3" d="M89.9,288.7c0.5,0,1.1,0.1,1.7,0.2c-9.7,13.7-0.7,30.4-9.3,42.7c-0.3-0.2-0.6-0.3-0.9-0.3
			c-0.1,0-0.4,0-0.5,0.1c-8.6-13.6-11.5-11.1-24.7-25.5C69.8,297.1,89.5,288.7,89.9,288.7z"/>
		<path class="st4" d="M83.4,380.1c0,1.7-0.1,3.5-0.3,5.2c-5.7-1-9.3-4.7-9.3-4.7s-1.5,2.6-6,2.6c-10.6,0-19.1-19.6-23-35.8
			c11.5-2.9,22.2-10.3,33.5-14.2c0,0,0,0,0,0c0,1.3,0.6,2.4,1.4,3c-1.1,2.6-2.6,5.2-2.6,8.3C77.3,350.5,83.4,367.7,83.4,380.1z"/>
		<path class="st5" d="M80.7,331.4c-0.2,0-0.4,0.1-0.6,0.2C70,321.4,59,316.9,48,311.9c2.2-2,5-4,8.2-6
			c13.2,14.4,16.2,11.9,24.7,25.5C80.8,331.4,80.8,331.4,80.7,331.4z"/>
		<path class="st6" d="M84.2,333.9c-0.3-1-1-1.9-1.8-2.3c-0.3-0.2-0.6-0.3-0.9-0.3c-0.1,0-0.4,0-0.5,0.1c-0.1,0-0.1,0-0.2,0
			c-0.2,0-0.4,0.1-0.6,0.2c-0.1,0.1-0.3,0.1-0.5,0.1c-1,0-1.2,0.4-1.2,1.5c0,0,0,0,0,0c0,1.3,0.6,2.4,1.4,3c0.4,0.3,0.8,0.5,1.3,0.6
			c0.2,0,0.4,0.1,0.6,0.1c0.5,0,1.1-0.1,1.6-0.5c0.5-0.4,0.9-0.9,0.9-1.7C84.3,334.5,84.2,334.2,84.2,333.9z"/>
		<path class="st7" d="M80.1,331.6c-0.1,0.1-0.3,0.1-0.5,0.1c-1,0-1.2,0.4-1.2,1.5c-11.3,4-22,11.4-33.5,14.2
			c-1.5-6.2-2.3-11.9-2.3-15.8c0-7,1.6-11.8,1.6-11.8c0-0.2-0.8-1.2-0.8-1.5c0,0,0,0,0,0c0.3-1.9,2-4.1,4.6-6.4
			C59,316.9,70,321.4,80.1,331.6z"/>
		<path class="st8" d="M99.1,382.2c-4.4,1.9-8.9,3.4-13.3,3.4c-0.9,0-1.8-0.1-2.7-0.2c0.2-1.8,0.3-3.5,0.3-5.2
			c0-12.4-6.2-29.6-6.2-35.5c0-3.1,1.4-5.7,2.6-8.3c0.4,0.3,0.8,0.5,1.3,0.6C87.9,359.5,95.1,358,99.1,382.2z"/>
	</g>
	<g>
		
			<ellipse transform="matrix(0.7071 -0.7071 0.7071 0.7071 -176.8009 364.7371)" class="st9" cx="351.9" cy="395.8" rx="267.1" ry="267.1"/>
		
			<ellipse transform="matrix(0.7071 -0.7071 0.7071 0.7071 -176.8009 364.7371)" class="st10" cx="351.9" cy="395.8" rx="222.6" ry="222.6"/>
		<g>
			<g>
				<path class="st11" d="M486.1,345.3c-1.2,0-2.3-0.8-2.6-2.1c-0.3-1.5,0.6-2.9,2-3.2c25.3-5.8,32-13,44.2-25.9
					c10.8-11.5,25.7-27.3,61.3-49.6c1.3-0.8,2.9-0.4,3.7,0.9c0.8,1.3,0.4,2.9-0.9,3.7c-35,21.9-49.6,37.4-60.2,48.7
					c-12,12.8-20,21.2-46.9,27.4C486.5,345.2,486.3,345.3,486.1,345.3z"/>
			</g>
			<g>
				<path class="st11" d="M540.3,417.7c-17,0-30.7-2-43.2-6.4c-1.4-0.5-2.1-2-1.7-3.4c0.5-1.4,2-2.1,3.4-1.7
					c11.9,4.2,25.1,6.1,41.4,6.1c12.3,0,27.9-1.3,44.5-2.7c17.6-1.5,35.8-3,50.9-3c14.6,0,27.4,1.3,39,3.9c1.5,0.3,2.4,1.8,2,3.2
					c-0.3,1.5-1.8,2.4-3.2,2c-11.3-2.5-23.6-3.8-37.8-3.8c-14.9,0-33,1.5-50.5,3C568.6,416.4,552.8,417.7,540.3,417.7z"/>
			</g>
			<g>
				<path class="st11" d="M547.8,574.9c-0.7,0-1.4-0.3-2-0.9c-14.6-15.8-31.1-18-50.1-20.5c-22.3-3-47.6-6.4-72.6-34.5
					c-1-1.1-0.9-2.8,0.2-3.8c1.1-1,2.8-0.9,3.8,0.2c23.7,26.6,46.8,29.7,69.2,32.7c19.2,2.6,37.4,5,53.4,22.2c1,1.1,1,2.8-0.1,3.8
					C549.1,574.7,548.5,574.9,547.8,574.9z"/>
			</g>
			<g>
				<path class="st11" d="M298.8,314c-0.7,0-1.4-0.3-1.9-0.8c-1.1-1.1-1.1-2.8,0-3.8c2.3-2.3,2.3-2.3,2.3-7.2l0-10.7
					c0-21.6,1.6-43.5,20.7-53.9c1.3-0.7,2.9-0.2,3.7,1.1c0.7,1.3,0.2,3-1.1,3.7c-16.5,9-17.9,29.3-17.9,49.2l0,10.7
					c0,6.4-0.1,7.2-3.9,11C300.2,313.8,299.5,314,298.8,314z"/>
			</g>
			<g>
				<path class="st11" d="M426.9,249.7c-0.6,0-1.3-0.2-1.8-0.7c-1.1-1-1.2-2.7-0.3-3.8c18.4-21,25.3-41.2,32-60.8
					c6.6-19.2,13.4-39.1,30.9-59.2c1-1.1,2.7-1.2,3.8-0.3c1.1,1,1.2,2.7,0.3,3.8c-16.8,19.3-23.1,37.8-29.8,57.4
					c-6.9,20.1-14,40.8-33.1,62.6C428.4,249.4,427.7,249.7,426.9,249.7z"/>
			</g>
			<g>
				<path class="st11" d="M428.1,317.8c-0.9,0-1.9-0.5-2.3-1.4c-17.1-30.1-17.5-51.7-18-76.7c-0.6-29.6-1.2-63.2-29-121.9
					c-0.6-1.4-0.1-3,1.3-3.6c1.4-0.6,3-0.1,3.6,1.3c28.3,59.7,28.9,93.9,29.5,124.1c0.4,24.3,0.8,45.3,17.2,74.2
					c0.7,1.3,0.3,2.9-1,3.7C429,317.6,428.6,317.8,428.1,317.8z"/>
			</g>
			<g>
				<path class="st11" d="M257.9,480.5c-1.5,0-2.7-1.2-2.7-2.7c0-6.5,6.7-12.2,15.3-19.4c12.7-10.7,28.5-24,30.8-45.6
					c0.2-1.5,1.5-2.6,3-2.4c1.5,0.2,2.6,1.5,2.4,3c-2.6,23.8-20,38.4-32.7,49.1c-7.2,6-13.4,11.2-13.4,15.3
					C260.6,479.3,259.4,480.5,257.9,480.5z"/>
			</g>
			<g>
				<path class="st11" d="M74.3,462c-1.3,0-2.4-0.9-2.6-2.1c-0.3-1.5,0.6-2.9,2.1-3.2c15.2-3.2,30.4-7.4,45-11.5
					c25.9-7.2,52.7-14.7,81-16.8c23.6-1.7,49.4-10.8,76.9-27.1c1.3-0.8,2.9-0.3,3.7,0.9c0.8,1.3,0.3,2.9-0.9,3.7
					c-28.2,16.7-54.8,26.1-79.2,27.9c-27.7,2-54.2,9.4-79.9,16.6c-14.7,4.1-29.9,8.4-45.4,11.6C74.7,461.9,74.5,462,74.3,462z"/>
			</g>
			<g>
				<path class="st11" d="M183.5,401.5c-38.3,0-99.1-14.1-99.1-52c0-3.1,0.5-6.2,1.4-9.2c0.5-1.4,2-2.2,3.4-1.8
					c1.4,0.5,2.2,2,1.8,3.4c-0.8,2.5-1.2,5-1.2,7.6c0,32.2,54.8,46.6,93.7,46.6c50.6,0,105.1-9.5,105.6-9.6c2.1,0,3.8,0,5.4,0.2
					c1.5,0.1,2.6,1.4,2.5,2.9c-0.1,1.5-1.4,2.6-2.9,2.5c-1.5-0.1-3-0.2-4.5-0.2C289.5,392,234.6,401.5,183.5,401.5z"/>
			</g>
			<g>
				<path class="st11" d="M350.1,577.2c-0.8,0-1.5-0.3-2.1-0.9c-1-1.1-0.8-2.8,0.3-3.8c19-16.2,22.4-26.9,27.2-41.6
					c3.3-10.3,7.1-21.9,16.9-38.1c2.9-4.8,3.6-10.8,4.4-17.2c0.7-5.5,1.4-11.2,3.6-16.6c1.9-4.7,3.5-9.6,5.1-16
					c0.4-1.4,1.8-2.3,3.3-2c1.4,0.4,2.3,1.8,2,3.3c-1.7,6.6-3.3,11.8-5.3,16.7c-1.9,4.7-2.6,10-3.2,15.2c-0.8,6.7-1.7,13.5-5.2,19.3
					c-9.5,15.6-13.1,27-16.4,36.9c-4.8,14.9-8.7,26.8-28.8,44C351.3,577,350.7,577.2,350.1,577.2z"/>
			</g>
			<g>
				<path class="st11" d="M444.5,650.8c-1,0-1.9-0.5-2.4-1.4c-5.3-9.6-10.9-16.1-16.3-22.3c-11.2-13-21-24.2-21-56.8
					c0-28.9,5.3-57,9.6-79.6c3.1-16.2,5.7-30.3,5.7-40.6c0-13.5-2.8-25.4-8.5-36.5c-0.7-1.3-0.2-3,1.1-3.6c1.3-0.7,3-0.2,3.6,1.1
					c6.2,11.8,9.2,24.6,9.2,39c0,10.8-2.7,25.1-5.8,41.6c-4.2,22.3-9.5,50.1-9.5,78.6c0,30.6,8.7,40.6,19.6,53.2
					c5.3,6.2,11.4,13.1,17,23.2c0.7,1.3,0.2,2.9-1.1,3.7C445.4,650.7,444.9,650.8,444.5,650.8z"/>
			</g>
			<g>
				<path class="st11" d="M551.4,440.2c-14.5,0-29.1-2.7-40.8-4.9c-8.5-1.6-15.8-2.9-21-2.9c-4.4,0-8.4,0.6-12.4,2
					c-1.4,0.5-2.9-0.3-3.4-1.7c-0.5-1.4,0.3-2.9,1.7-3.4c4.5-1.5,9.2-2.2,14.1-2.2c5.7,0,13.2,1.4,21.9,3
					c12.1,2.2,25.7,4.8,39.8,4.8c10,0,19-1.3,27.5-4.1c1.4-0.5,2.9,0.3,3.4,1.7c0.5,1.4-0.3,2.9-1.7,3.4
					C571.6,438.7,562,440.2,551.4,440.2z"/>
			</g>
		</g>
		<g id="XMLID_23_">
			<path class="st12" d="M317.8,468.5l0.7,24.2c-0.2,1.8-2.2,3.4-2.4,5c0,0.2,0.5,2.5,0.3,4.1c0,0.4-0.1,0.7-0.2,1
				c-17.3-11.1-39.7-12.6-51.4-22.6c0.7-0.4,1.1-1,1.5-1.7c0.5,0.1,0.9,0.1,1.4,0.2C284.1,481,278.5,463.2,317.8,468.5z"/>
			<path class="st13" d="M316.2,502.8c-1.1,3.7-5.3,5.8-9.5,8c-1.7,0.9-0.4,6.4-3.3,6.4c-11.7-0.1-10.5,8.1-16.1,7.3
				c-0.9-0.1-1.7-0.4-2.5-0.6c-6.2-20.1-23.3-22.6-23.1-43.4c1.4,0.2,2.4,0,3.1-0.4C276.4,490.2,298.9,491.8,316.2,502.8z"/>
			<path class="st14" d="M284.7,524c-0.5-0.1-1.1-0.3-1.6-0.3c-6.7-0.9-13,4.2-19,3.4c-2.1-0.3-2.4-1-5.4-1.4
				c-3.5-0.5-7.1,0.2-10.6-0.3c-10.1-1.4-11.5-13.8-12.4-13.9c-0.5-0.1-1.2,0.5-1.9,0.4c-1.7-0.2-10-4-9.2-9.7
				c0.4-2.9-1-4.5-2.8-5.9c13.5-2.2,26.5-9.6,36.6-17.5c0.3,1,1.2,1.8,3.1,2.1c0,0,0,0,0.1,0C261.4,501.4,278.5,503.9,284.7,524z"/>
			<path class="st15" d="M269,420.5c6.2,1.1,11.2,4.1,15.5,6.9c-10.5,10.8-12.7,25.6-17.2,39.7c0.9-8.4-3.7-23-2-35.4
				C265.7,427.8,266.9,424.1,269,420.5z"/>
			<path class="st16" d="M267.2,467.1c-0.7,2.2-1.4,4.3-2.3,6.4c-0.3-0.1-0.6-0.2-0.9-0.3c-3.4-17.1-19-30.9-24.9-45.9
				c0.1-0.1,0.1-0.2,0.2-0.4c0.8-5.6,9.2-5.5,15.9-4.1c4.1-2.5,8.5-3.2,12.8-2.6c0.4,0.1,0.8,0.1,1.1,0.2c-2.1,3.6-3.2,7.3-3.8,11.2
				C263.5,444.1,268.1,458.8,267.2,467.1z"/>
			<path class="st17" d="M264,473.3c-0.2,0-0.4-0.1-0.6-0.1c-0.4-0.1-0.7-0.1-1.1-0.1c-12-10-31.4-10.7-45.4-20.1
				c-0.5-1.1-0.9-2.3-0.7-3.7c0.7-5.3,7-6.5,11.2-9.8c-1.3-0.7-1.3-2.6-1.2-3.8c1.1-8.3,11.4-6.5,12.9-8.4
				C245,442.4,260.5,456.1,264,473.3z"/>
			<path class="st18" d="M265.7,473.8c-0.1,0-0.2-0.1-0.2-0.1c-0.2-0.1-0.4-0.1-0.6-0.2c-0.3-0.1-0.6-0.2-0.9-0.3
				c-0.2,0-0.4-0.1-0.6-0.1c-0.4-0.1-0.7-0.1-1.1-0.1c-1,0-1.9,0.4-2.5,0.9c-0.8,0.7-1.3,1.7-1.4,2.9c-0.1,0.6-0.1,1.2,0.1,1.6
				c0.3,1,1.2,1.8,3.1,2.1c0,0,0,0,0.1,0c1.4,0.2,2.4,0,3.1-0.4c0.7-0.4,1.1-1,1.5-1.7c0.4-0.8,0.6-1.8,0.7-2.9
				C266.5,475.2,266.7,474.2,265.7,473.8z"/>
			<path class="st19" d="M262.3,473.1c-1,0-1.9,0.4-2.5,0.9c-7.4-4.9-16.6-8-25.9-9.3c-8.1-1.1-10.8-0.3-17-1c1.2-2.8,2.7-5,2.7-5.1
				c0.2-1.6-1.6-3.4-2.6-5.6C230.9,462.4,250.3,463.1,262.3,473.1z"/>
			<path class="st20" d="M259.8,474c-0.8,0.7-1.3,1.7-1.4,2.9c-0.1,0.6-0.1,1.2,0.1,1.6c-10.1,7.9-23.1,15.3-36.6,17.5
				c-2.7-2.2-6.2-3.9-5.5-8.7c0.3-2.2,2.2-4.3,2.4-6.1c0-0.2-4-7.1-3.2-13c0.2-1.6,0.7-3.2,1.3-4.6c6.1,0.7,8.9-0.1,17,1
				C243.2,466.1,252.4,469.2,259.8,474z"/>
			<path class="st21" d="M317.6,462.4c-0.3-4-6.2-4.9-7.7-7.9c-5-10.1-10.7-10.3-11.7-18.5c-0.1-0.8-0.7-2.1-2.1-2.3
				c0,0-0.1,0-0.1,0c-3.4-0.5-7.1-3.3-11.6-6.3c-10.5,10.8-12.7,25.6-17.2,39.7c-0.7,2.2-1.4,4.3-2.3,6.4c0.2,0.1,0.4,0.1,0.6,0.2
				c0.1,0,0.2,0.1,0.2,0.1c1,0.4,0.8,1.3,1.2,1.8c-0.1,1.1-0.4,2.1-0.7,2.9c0.5,0.1,0.9,0.1,1.4,0.2c16.5,2.3,11-15.5,50.2-10.2
				L317.6,462.4z"/>
		</g>
		<g id="XMLID_16_">
			<path class="st22" d="M484.2,629.9l0,25.9c-0.3,1.9-2,3.7-2.3,5.4c0,0.3,0.4,2.6,0.1,4.4c-0.1,0.4-0.1,0.8-0.2,1.1
				c-15-11.4-34.9-12.5-45.1-22.9c0.6-0.4,1-1.1,1.4-1.9c0.4,0.1,0.8,0.1,1.2,0.2C453.9,644.1,449.5,625.2,484.2,629.9z"/>
			<path class="st23" d="M481.9,666.7c-1.1,4-4.8,6.3-8.7,8.8c-1.5,1-0.5,6.9-3.1,6.9c-10.4,0.2-9.6,8.9-14.5,8.2
				c-0.8-0.1-1.5-0.3-2.2-0.5c-5-21.4-20.1-23.6-19.4-45.8c1.2,0.2,2.1,0,2.8-0.5C446.9,654.2,466.8,655.2,481.9,666.7z"/>
			<path class="st24" d="M453.4,690.1c-0.5-0.1-0.9-0.3-1.5-0.3c-6-0.8-11.6,4.8-16.9,4.1c-1.9-0.3-2.1-1-4.7-1.4
				c-3.1-0.4-6.3,0.3-9.4-0.1c-9-1.2-9.9-14.5-10.6-14.6c-0.4-0.1-1,0.6-1.7,0.5c-1.5-0.2-8.8-4-8-10.2c0.4-3.1-0.8-4.8-2.3-6.3
				c12.1-2.7,23.7-11,32.9-19.7c0.2,1.1,1,1.9,2.7,2.1c0,0,0,0,0.1,0C433.3,666.5,448.4,668.7,453.4,690.1z"/>
			<path class="st25" d="M442.1,579.7c5.5,1,9.8,4.1,13.6,7c-9.6,11.8-11.9,27.7-16.3,43c1-9-2.7-24.6-0.9-37.9
				C439,587.6,440.1,583.6,442.1,579.7z"/>
			<path class="st26" d="M439.3,629.7c-0.7,2.3-1.4,4.7-2.2,6.9c-0.3-0.1-0.6-0.2-0.8-0.3c-2.6-18.3-16-32.6-21-48.5
				c0.1-0.1,0.1-0.3,0.2-0.4c0.8-6,8.3-6.1,14.2-4.8c3.7-2.8,7.6-3.6,11.4-3.1c0.3,0,0.7,0.1,1,0.2c-2,3.9-3.1,7.9-3.6,12.1
				C436.6,605.1,440.3,620.7,439.3,629.7z"/>
			<path class="st27" d="M436.3,636.4c-0.2,0-0.4-0.1-0.5-0.1c-0.3,0-0.7-0.1-1,0c-10.4-10.4-27.6-10.7-39.8-20.3
				c-0.5-1.2-0.7-2.5-0.5-3.9c0.8-5.7,6.4-7.1,10.1-10.7c-1.1-0.7-1.1-2.7-0.9-4c1.2-8.9,10.3-7.2,11.6-9.3
				C420.2,603.8,433.7,618.1,436.3,636.4z"/>
			<path class="st28" d="M437.8,636.9c-0.1,0-0.1-0.1-0.2-0.1c-0.2-0.1-0.3-0.1-0.5-0.2c-0.3-0.1-0.6-0.2-0.8-0.3
				c-0.2,0-0.4-0.1-0.5-0.1c-0.3,0-0.7-0.1-1,0c-0.9,0.1-1.7,0.4-2.2,1c-0.7,0.7-1.2,1.8-1.4,3.1c-0.1,0.6-0.1,1.2,0,1.8
				c0.2,1.1,1,1.9,2.7,2.1c0,0,0,0,0.1,0c1.2,0.2,2.1,0,2.8-0.5c0.6-0.4,1-1.1,1.4-1.9c0.3-0.9,0.5-1.9,0.7-3.1
				C438.5,638.3,438.7,637.3,437.8,636.9z"/>
			<path class="st29" d="M434.8,636.2c-0.9,0.1-1.7,0.4-2.2,1c-6.5-5-14.5-8.1-22.8-9.3c-7.1-1-9.6,0-15.1-0.7
				c1.1-3.1,2.5-5.5,2.5-5.5c0.2-1.7-1.3-3.6-2.2-5.9C407.2,625.6,424.4,625.8,434.8,636.2z"/>
			<path class="st30" d="M432.6,637.3c-0.7,0.7-1.2,1.8-1.4,3.1c-0.1,0.6-0.1,1.2,0,1.8c-9.2,8.7-20.9,17-32.9,19.7
				c-2.3-2.2-5.4-4-4.7-9.1c0.3-2.4,2.1-4.6,2.3-6.5c0-0.2-3.4-7.5-2.5-13.9c0.2-1.7,0.7-3.4,1.3-5c5.4,0.6,7.9-0.3,15.1,0.7
				C418,629.1,426.1,632.2,432.6,637.3z"/>
			<path class="st31" d="M484.2,623.3c-0.2-4.3-5.4-5-6.7-8.3c-4.2-10.7-9.2-10.7-9.9-19.5c-0.1-0.9-0.6-2.2-1.8-2.4
				c0,0-0.1,0-0.1,0c-3-0.4-6.2-3.4-10.1-6.4c-9.6,11.8-11.9,27.7-16.3,43c-0.7,2.3-1.4,4.7-2.2,6.9c0.2,0.1,0.3,0.1,0.5,0.2
				c0.1,0,0.1,0.1,0.2,0.1c0.9,0.4,0.7,1.4,1,1.9c-0.2,1.2-0.4,2.2-0.7,3.1c0.4,0.1,0.8,0.1,1.2,0.2c14.6,2,10.1-16.9,44.9-12.2
				V623.3z"/>
		</g>
		<g id="XMLID_27_">
			<path class="st22" d="M321,478.5l1.8-25.9c0.4-1.9,2.3-3.6,2.6-5.2c0.1-0.2-0.2-2.6,0.2-4.4c0.1-0.4,0.2-0.7,0.3-1.1
				c14.2,12.4,34,14.9,43.4,25.9c-0.6,0.4-1.1,1-1.5,1.8c-0.4-0.1-0.8-0.2-1.2-0.3C352.2,466.4,355.3,485.6,321,478.5z"/>
			<path class="st23" d="M325.9,442c1.4-3.9,5.3-6,9.2-8.2c1.6-0.9,1-6.8,3.6-6.7c10.4,0.5,10.2-8.2,15-7.2c0.8,0.2,1.5,0.4,2.2,0.7
				c3.5,21.7,18.5,24.9,16.2,47c-1.2-0.2-2.1-0.1-2.8,0.3C359.9,456.8,340.1,454.4,325.9,442z"/>
			<path class="st24" d="M355.9,420.6c0.5,0.2,0.9,0.3,1.4,0.4c5.9,1.2,11.9-4,17.2-2.9c1.9,0.4,2.1,1.2,4.6,1.7
				c3.1,0.6,6.3,0.1,9.4,0.7c8.9,1.8,8.9,15.1,9.6,15.3c0.4,0.1,1.1-0.5,1.7-0.4c1.5,0.3,8.5,4.6,7.2,10.7c-0.6,3,0.5,4.8,1.9,6.4
				c-12.2,1.9-24.4,9.3-34.2,17.4c-0.2-1.1-0.9-2-2.6-2.3c0,0,0,0-0.1,0C374.3,445.4,359.4,442.2,355.9,420.6z"/>
			<path class="st25" d="M359.6,531.5c-5.4-1.4-9.5-4.7-13-7.9c10.4-11.1,13.8-26.9,19.2-41.7c-1.6,8.9,1,24.7-1.7,37.8
				C363.2,523.8,361.8,527.7,359.6,531.5z"/>
			<path class="st26" d="M365.8,481.8c0.8-2.3,1.7-4.6,2.7-6.8c0.3,0.1,0.5,0.2,0.8,0.3c1.4,18.4,13.8,33.6,17.6,49.8
				c-0.1,0.1-0.2,0.3-0.2,0.4c-1.2,5.9-8.7,5.5-14.5,3.9c-3.9,2.6-7.8,3.1-11.6,2.3c-0.3-0.1-0.7-0.1-1-0.2
				c2.2-3.7,3.6-7.7,4.5-11.8C366.8,506.5,364.2,490.7,365.8,481.8z"/>
			<path class="st27" d="M369.3,475.3c0.2,0.1,0.3,0.1,0.5,0.1c0.3,0.1,0.7,0.1,1,0.1c9.6,11.1,26.8,12.5,38.3,23
				c0.4,1.2,0.6,2.5,0.3,4c-1.2,5.7-6.8,6.7-10.9,10c1,0.8,0.9,2.8,0.7,4.1c-1.8,8.8-10.7,6.5-12.2,8.5
				C383,509,370.6,493.7,369.3,475.3z"/>
			<path class="st28" d="M367.8,474.7c0.1,0,0.1,0.1,0.2,0.1c0.2,0.1,0.3,0.2,0.5,0.2c0.3,0.1,0.5,0.2,0.8,0.3
				c0.2,0.1,0.3,0.1,0.5,0.1c0.3,0.1,0.7,0.1,1,0.1c0.9,0,1.7-0.3,2.3-0.9c0.8-0.7,1.3-1.8,1.6-3c0.1-0.6,0.2-1.2,0.1-1.8
				c-0.2-1.1-0.9-2-2.6-2.3c0,0,0,0-0.1,0c-1.2-0.2-2.1-0.1-2.8,0.3c-0.6,0.4-1.1,1-1.5,1.8c-0.4,0.8-0.7,1.9-0.9,3.1
				C367.2,473.3,366.9,474.2,367.8,474.7z"/>
			<path class="st29" d="M370.7,475.6c0.9,0,1.7-0.3,2.3-0.9c6.1,5.5,13.9,9.1,22.1,10.8c7.1,1.5,9.6,0.7,15,1.7
				c-1.3,3-2.9,5.3-2.9,5.3c-0.4,1.7,1.1,3.7,1.8,6.1C397.5,488.1,380.3,486.7,370.7,475.6z"/>
			<path class="st30" d="M373,474.7c0.8-0.7,1.3-1.8,1.6-3c0.1-0.6,0.2-1.2,0.1-1.8c9.8-8.1,22-15.5,34.2-17.4
				c2.2,2.4,5.1,4.3,4,9.4c-0.5,2.4-2.4,4.5-2.8,6.4c0,0.2,2.8,7.7,1.5,14c-0.3,1.7-1,3.3-1.6,4.9c-5.4-1-7.9-0.2-15-1.7
				C387,483.8,379.1,480.2,373,474.7z"/>
			<path class="st31" d="M320.6,485c-0.1,4.3,5,5.4,6.1,8.7c3.4,10.9,8.5,11.4,8.5,20.1c0,0.9,0.4,2.3,1.7,2.5c0,0,0.1,0,0.1,0
				c3,0.6,6,3.8,9.6,7.1c10.4-11.1,13.8-26.9,19.2-41.7c0.8-2.3,1.7-4.6,2.7-6.8c-0.2-0.1-0.3-0.1-0.5-0.2c-0.1,0-0.1-0.1-0.2-0.1
				c-0.8-0.5-0.6-1.4-0.9-1.9c0.2-1.2,0.5-2.2,0.9-3.1c-0.4-0.1-0.8-0.2-1.2-0.3c-14.4-3-11.3,16.2-45.6,9.1L320.6,485z"/>
		</g>
		<g id="XMLID_17_">
			<path class="st22" d="M392.1,576.1l0.4,37.5c-0.4,2.8-3.1,5.4-3.4,7.8c0,0.4,0.6,3.8,0.3,6.3c-0.1,0.6-0.2,1.1-0.3,1.6
				c-23.4-16.7-54.1-18.5-69.8-33.7c0.9-0.6,1.6-1.5,2.1-2.7c0.6,0.1,1.2,0.2,1.8,0.3C345.6,596.2,338.4,568.8,392.1,576.1z"/>
			<path class="st23" d="M389,629.3c-1.6,5.8-7.4,9.1-13.3,12.6c-2.3,1.4-0.7,9.9-4.7,10c-16.1,0.2-14.6,12.8-22.2,11.7
				c-1.3-0.2-2.4-0.5-3.4-0.8c-8-31-31.4-34.3-30.5-66.6c1.9,0.2,3.3,0,4.3-0.7C334.9,610.8,365.6,612.6,389,629.3z"/>
			<path class="st24" d="M345.4,662.8c-0.7-0.2-1.5-0.4-2.2-0.5c-9.2-1.3-17.9,6.8-26.1,5.7c-2.9-0.4-3.3-1.5-7.3-2
				c-4.8-0.7-9.7,0.4-14.5-0.2c-13.8-1.9-15.4-21.1-16.6-21.3c-0.6-0.1-1.6,0.8-2.6,0.7c-2.4-0.3-13.6-5.9-12.4-14.9
				c0.6-4.5-1.3-7-3.7-9.1c18.6-3.8,36.5-15.6,50.5-28.1c0.4,1.6,1.6,2.7,4.2,3.1c0,0,0.1,0,0.1,0
				C314,628.5,337.3,631.8,345.4,662.8z"/>
			<path class="st25" d="M326.4,502.9c8.4,1.5,15.2,6,21,10.3c-14.7,16.9-18.1,40-24.6,61.9c1.4-13-4.5-35.6-1.8-54.8
				C321.8,514.4,323.5,508.5,326.4,502.9z"/>
			<path class="st26" d="M322.8,575.2c-1,3.4-2.1,6.7-3.3,10c-0.4-0.2-0.9-0.3-1.3-0.4c-4.3-26.5-25.2-47.4-33-70.4
				c0.1-0.2,0.2-0.4,0.2-0.6c1.2-8.7,12.7-8.7,21.8-6.8c5.7-4,11.7-5.1,17.6-4.3c0.5,0.1,1,0.1,1.5,0.2c-3,5.6-4.6,11.4-5.4,17.5
				C318.4,539.6,324.3,562.2,322.8,575.2z"/>
			<path class="st27" d="M318.2,584.8c-0.3-0.1-0.5-0.1-0.8-0.1c-0.5-0.1-1-0.1-1.5-0.1c-16.1-15.2-42.7-15.8-61.6-29.9
				c-0.7-1.7-1.2-3.6-0.9-5.7c1.1-8.3,9.7-10.2,15.5-15.4c-1.7-1.1-1.8-4-1.5-5.9c1.7-12.8,15.7-10.3,17.8-13.3
				C293.1,537.5,314,558.4,318.2,584.8z"/>
			<path class="st28" d="M320.6,585.6c-0.1,0-0.2-0.1-0.3-0.1c-0.3-0.1-0.5-0.2-0.8-0.3c-0.4-0.2-0.9-0.3-1.3-0.4
				c-0.3-0.1-0.5-0.1-0.8-0.1c-0.5-0.1-1-0.1-1.5-0.1c-1.4,0.1-2.6,0.6-3.4,1.5c-1.1,1.1-1.8,2.7-2,4.5c-0.1,0.9-0.1,1.8,0,2.5
				c0.4,1.6,1.6,2.7,4.2,3.1c0,0,0.1,0,0.1,0c1.9,0.2,3.3,0,4.3-0.7c0.9-0.6,1.6-1.5,2.1-2.7c0.5-1.3,0.8-2.8,1-4.5
				C321.7,587.7,322,586.2,320.6,585.6z"/>
			<path class="st29" d="M316,584.6c-1.4,0.1-2.6,0.6-3.4,1.5c-10.1-7.4-22.5-12-35.3-13.7c-11-1.5-14.8-0.2-23.2-1.2
				c1.7-4.4,3.8-7.9,3.8-7.9c0.3-2.5-2.1-5.3-3.5-8.6C273.2,568.8,299.8,569.4,316,584.6z"/>
			<path class="st30" d="M312.5,586.1c-1.1,1.1-1.8,2.7-2,4.5c-0.1,0.9-0.1,1.8,0,2.5c-14,12.5-32,24.3-50.5,28.1
				c-3.6-3.3-8.4-5.8-7.3-13.3c0.5-3.5,3.1-6.7,3.5-9.4c0-0.3-5.3-10.9-4.1-20.1c0.3-2.4,1.1-4.9,1.9-7.2c8.4,1,12.2-0.3,23.2,1.2
				C290,574.1,302.5,578.7,312.5,586.1z"/>
			<path class="st31" d="M392,566.6c-0.3-6.2-8.4-7.4-10.4-12c-6.6-15.5-14.4-15.7-15.5-28.4c-0.1-1.2-0.9-3.2-2.9-3.5
				c0,0-0.1,0-0.2,0c-4.7-0.6-9.6-5-15.7-9.4c-14.7,16.9-18.1,40-24.6,61.9c-1,3.4-2.1,6.7-3.3,10c0.3,0.1,0.5,0.2,0.8,0.3
				c0.1,0,0.2,0.1,0.3,0.1c1.3,0.6,1.1,2,1.6,2.7c-0.2,1.7-0.5,3.2-1,4.5c0.6,0.1,1.2,0.2,1.8,0.3c22.5,3.1,15.4-24.3,69-17.1
				L392,566.6z"/>
		</g>
		<g id="XMLID_18_">
			<path class="st22" d="M624.8,423.8l0,24.1c-0.2,1.8-1.9,3.5-2.1,5c0,0.2,0.4,2.4,0.1,4.1c0,0.4-0.1,0.7-0.2,1
				c-14-10.6-32.5-11.6-41.9-21.3c0.6-0.4,1-1,1.3-1.8c0.4,0.1,0.7,0.1,1.1,0.2C596.6,437.1,592.5,419.5,624.8,423.8z"/>
			<path class="st23" d="M622.6,458.1c-1,3.7-4.5,5.9-8.1,8.2c-1.4,0.9-0.5,6.4-2.9,6.4c-9.7,0.2-8.9,8.3-13.5,7.7
				c-0.8-0.1-1.4-0.3-2.1-0.5c-4.7-19.9-18.7-21.9-18-42.7c1.1,0.1,2,0,2.6-0.5C590.1,446.5,608.6,447.5,622.6,458.1z"/>
			<path class="st24" d="M596.1,479.9c-0.4-0.1-0.9-0.2-1.4-0.3c-5.5-0.8-10.8,4.5-15.7,3.8c-1.8-0.2-2-0.9-4.4-1.3
				c-2.9-0.4-5.9,0.3-8.7-0.1c-8.3-1.1-9.2-13.5-9.9-13.6c-0.4-0.1-1,0.5-1.6,0.5c-1.4-0.2-8.2-3.7-7.4-9.5c0.4-2.9-0.7-4.5-2.2-5.8
				c11.2-2.5,22.1-10.2,30.6-18.4c0.2,1,0.9,1.8,2.5,2c0,0,0,0,0.1,0C577.4,458,591.4,460,596.1,479.9z"/>
			<path class="st25" d="M585.6,377.1c5.1,0.9,9.1,3.8,12.6,6.5c-9,11-11.1,25.8-15.2,40c0.9-8.4-2.5-22.9-0.8-35.3
				C582.7,384.5,583.8,380.7,585.6,377.1z"/>
			<path class="st26" d="M583,423.7c-0.6,2.2-1.3,4.3-2,6.5c-0.3-0.1-0.5-0.2-0.8-0.2c-2.4-17-14.9-30.3-19.5-45.1
				c0.1-0.1,0.1-0.3,0.1-0.4c0.8-5.6,7.7-5.7,13.2-4.5c3.5-2.6,7.1-3.3,10.6-2.9c0.3,0,0.6,0.1,0.9,0.1c-1.8,3.6-2.8,7.4-3.4,11.3
				C580.5,400.8,584,415.3,583,423.7z"/>
			<path class="st27" d="M580.2,429.9c-0.2,0-0.3-0.1-0.5-0.1c-0.3,0-0.6-0.1-0.9,0c-9.6-9.7-25.7-9.9-37-18.9
				c-0.4-1.1-0.7-2.3-0.5-3.7c0.7-5.3,5.9-6.6,9.4-10c-1-0.7-1-2.6-0.9-3.8c1.1-8.3,9.5-6.7,10.8-8.7
				C565.3,399.5,577.8,412.9,580.2,429.9z"/>
			<path class="st28" d="M581.6,430.4c-0.1,0-0.1-0.1-0.2-0.1c-0.2-0.1-0.3-0.1-0.5-0.2c-0.3-0.1-0.5-0.2-0.8-0.2
				c-0.2,0-0.3-0.1-0.5-0.1c-0.3,0-0.6-0.1-0.9,0c-0.9,0.1-1.6,0.4-2.1,1c-0.7,0.7-1.1,1.7-1.3,2.9c-0.1,0.6-0.1,1.1,0,1.6
				c0.2,1,0.9,1.8,2.5,2c0,0,0,0,0.1,0c1.1,0.1,2,0,2.6-0.5c0.6-0.4,1-1,1.3-1.8c0.3-0.8,0.5-1.8,0.7-2.9
				C582.2,431.7,582.4,430.8,581.6,430.4z"/>
			<path class="st29" d="M578.8,429.8c-0.9,0.1-1.6,0.4-2.1,1c-6-4.7-13.5-7.6-21.2-8.6c-6.6-0.9-8.9,0-14-0.6
				c1-2.9,2.3-5.1,2.3-5.1c0.2-1.6-1.2-3.4-2-5.5C553.1,419.8,569.2,420.1,578.8,429.8z"/>
			<path class="st30" d="M576.7,430.7c-0.7,0.7-1.1,1.7-1.3,2.9c-0.1,0.6-0.1,1.1,0,1.6c-8.5,8.1-19.4,15.8-30.6,18.4
				c-2.2-2.1-5-3.7-4.4-8.5c0.3-2.2,1.9-4.3,2.2-6.1c0-0.2-3.1-7-2.3-12.9c0.2-1.6,0.7-3.2,1.2-4.6c5.1,0.6,7.4-0.3,14,0.6
				C563.2,423.2,570.7,426,576.7,430.7z"/>
			<path class="st31" d="M624.8,417.8c-0.1-4-5-4.7-6.2-7.7c-3.9-10-8.6-10-9.2-18.2c-0.1-0.8-0.5-2.1-1.7-2.2c0,0-0.1,0-0.1,0
				c-2.8-0.4-5.8-3.1-9.4-6c-9,11-11.1,25.8-15.2,40c-0.6,2.2-1.3,4.3-2,6.5c0.2,0.1,0.3,0.1,0.5,0.2c0.1,0,0.1,0.1,0.2,0.1
				c0.8,0.4,0.6,1.3,1,1.7c-0.1,1.1-0.3,2.1-0.7,2.9c0.4,0.1,0.7,0.1,1.1,0.2c13.6,1.9,9.4-15.7,41.7-11.4L624.8,417.8z"/>
		</g>
		<g id="XMLID_10_">
			<path class="st32" d="M462.2,380c0.4,2.4,0.7,4.9,0.7,7.4c0,16.7-9.5,33.5-26.8,39.5c-4.5,1.6-9.2,3.5-14.1,5.3
				c-5.9-30.2-16.5-28.3-26.3-56.6c0.3,0.1,0.6,0.1,0.9,0.1c0.7,0,1.6-0.2,2.3-0.6c12.9,4.5,26.4,5.7,40.1,5.7
				C444.1,380.7,453.9,380.4,462.2,380z"/>
			<path class="st33" d="M462.2,380c-8.3,0.3-18.1,0.7-23.2,0.7c-13.7,0-27.3-1.2-40.1-5.7c0.8-0.4,1.4-1.2,1.4-2.2
				c0-0.3-0.1-0.7-0.2-1.1c15.6-3.2,31.1-18.7,43.3-27.6c-0.1,0.3-0.1,0.5-0.1,0.8C443.3,345,458.7,361,462.2,380z"/>
			<path class="st34" d="M444.4,340.4c0,1.4-0.7,2.7-1,3.8c-12.2,8.9-27.7,24.5-43.3,27.6c-0.4-1.2-1.5-2.4-2.6-2.9
				c12.6-15.3-0.6-36.2,13.7-53.3C422.6,317.5,444.4,331.2,444.4,340.4z"/>
			<path class="st35" d="M408.6,315.3c0.8,0,1.6,0.1,2.6,0.2c-14.2,17.1-1.1,38-13.7,53.3c-0.4-0.2-0.9-0.3-1.4-0.3
				c-0.2,0-0.5,0-0.8,0.1c-12.6-17-16.9-13.9-36.4-31.9C379,325.8,408,315.3,408.6,315.3z"/>
			<path class="st36" d="M399.1,429.5c0,2.2-0.1,4.4-0.5,6.6c-8.4-1.2-13.7-5.9-13.7-5.9s-2.1,3.3-8.8,3.3
				c-15.6,0-28.1-24.5-33.8-44.7c16.9-3.6,32.7-12.8,49.3-17.8c0,0,0,0,0,0.1c0,1.7,0.9,3,2.1,3.8c-1.7,3.3-3.8,6.5-3.8,10.4
				C390,392.5,399.1,414,399.1,429.5z"/>
			<path class="st37" d="M395,368.7c-0.3,0-0.6,0.1-0.9,0.3c-14.9-12.8-31.1-18.4-47.3-24.7c3.2-2.5,7.4-5,12.1-7.6
				c19.4,18,23.8,14.9,36.4,31.9C395.2,368.6,395.1,368.7,395,368.7z"/>
			<path class="st38" d="M400.1,371.8c-0.4-1.2-1.5-2.4-2.6-2.9c-0.4-0.2-0.9-0.3-1.4-0.3c-0.2,0-0.5,0-0.8,0.1c-0.1,0-0.2,0-0.3,0
				c-0.3,0-0.6,0.1-0.9,0.3c-0.2,0.1-0.4,0.2-0.7,0.2c-1.4,0-1.8,0.5-1.8,1.9c0,0,0,0,0,0.1c0,1.7,0.9,3,2.1,3.8
				c0.6,0.4,1.2,0.6,1.9,0.7c0.3,0.1,0.6,0.1,0.9,0.1c0.7,0,1.6-0.2,2.3-0.6c0.8-0.4,1.4-1.2,1.4-2.2
				C400.3,372.5,400.2,372.2,400.1,371.8z"/>
			<path class="st39" d="M394.1,368.9c-0.2,0.1-0.4,0.2-0.7,0.2c-1.4,0-1.8,0.5-1.8,1.9c-16.6,5-32.4,14.2-49.3,17.8
				c-2.2-7.8-3.4-14.9-3.4-19.8c0-8.8,2.4-14.7,2.4-14.7c0-0.3-1.1-1.5-1.1-1.9c0,0,0,0,0,0c0.4-2.4,2.9-5.2,6.7-8
				C363.1,350.5,379.2,356.1,394.1,368.9z"/>
			<path class="st40" d="M422,432.1c-6.5,2.3-13.1,4.2-19.6,4.2c-1.4,0-2.7-0.1-3.9-0.3c0.3-2.2,0.5-4.4,0.5-6.6
				c0-15.5-9.1-37-9.1-44.4c0-3.8,2.1-7.1,3.8-10.4c0.6,0.4,1.2,0.6,1.9,0.7C405.5,403.8,416.1,401.9,422,432.1z"/>
		</g>
		<g id="XMLID_24_">
			<path class="st0" d="M616.3,586.1c0.4,2.8,0.7,5.7,0.7,8.7c0,19.6-9.5,39.4-26.8,46.5c-4.5,1.8-9.2,4.2-14.1,6.2
				c-5.9-35.6-16.5-33.4-26.3-66.6c0.3,0.1,0.6,0.1,0.9,0.1c0.7,0,1.6-0.2,2.3-0.7c12.9,5.3,26.4,6.7,40.1,6.7
				C598.2,586.9,608.1,586.5,616.3,586.1z"/>
			<path class="st1" d="M616.3,586.1c-8.3,0.4-18.1,0.9-23.2,0.9c-13.7,0-27.3-1.4-40.1-6.7c0.8-0.5,1.4-1.4,1.4-2.6
				c0-0.4-0.1-0.8-0.2-1.2c15.6-3.7,31.1-22.1,43.3-32.5c-0.1,0.3-0.1,0.6-0.1,0.9C597.4,544.8,612.8,563.7,616.3,586.1z"/>
			<path class="st2" d="M598.5,539.4c0,1.6-0.7,3.1-1,4.5c-12.2,10.5-27.7,28.8-43.3,32.5c-0.4-1.4-1.5-2.8-2.6-3.5
				c12.6-18-0.6-42.6,13.7-62.8C576.7,512.5,598.5,528.5,598.5,539.4z"/>
			<path class="st3" d="M562.7,509.9c0.8,0,1.6,0.1,2.6,0.3c-14.2,20.1-1.1,44.8-13.7,62.8c-0.4-0.2-0.9-0.4-1.4-0.4
				c-0.2,0-0.5,0-0.8,0.1c-12.6-20-16.9-16.4-36.4-37.6C533.1,522.2,562.1,509.9,562.7,509.9z"/>
			<path class="st4" d="M553.2,644.3c0,2.6-0.1,5.1-0.5,7.7c-8.4-1.4-13.7-7-13.7-7s-2.1,3.9-8.8,3.9c-15.6,0-28.1-28.9-33.8-52.6
				c16.9-4.2,32.7-15.1,49.3-21c0,0,0,0,0,0.1c0,2,0.9,3.5,2.1,4.5c-1.7,3.9-3.8,7.7-3.8,12.2C544.1,600.8,553.2,626.1,553.2,644.3z
				"/>
			<path class="st5" d="M549.2,572.7c-0.3,0-0.6,0.2-0.9,0.3c-14.9-15.1-31.1-21.7-47.3-29c3.2-2.9,7.4-5.9,12.1-8.9
				c19.4,21.2,23.8,17.6,36.4,37.6C549.3,572.7,549.2,572.7,549.2,572.7z"/>
			<path class="st6" d="M554.2,576.4c-0.4-1.4-1.5-2.8-2.6-3.5c-0.4-0.2-0.9-0.4-1.4-0.4c-0.2,0-0.5,0-0.8,0.1c-0.1,0-0.2,0-0.3,0.1
				c-0.3,0-0.6,0.2-0.9,0.3c-0.2,0.1-0.4,0.2-0.7,0.2c-1.4,0-1.8,0.6-1.8,2.2c0,0,0,0,0,0.1c0,2,0.9,3.5,2.1,4.5
				c0.6,0.4,1.2,0.7,1.9,0.9c0.3,0.1,0.6,0.1,0.9,0.1c0.7,0,1.6-0.2,2.3-0.7c0.8-0.5,1.4-1.4,1.4-2.6
				C554.4,577.2,554.4,576.8,554.2,576.4z"/>
			<path class="st7" d="M548.3,573c-0.2,0.1-0.4,0.2-0.7,0.2c-1.4,0-1.8,0.6-1.8,2.2c-16.6,5.9-32.4,16.8-49.3,21
				c-2.2-9.2-3.4-17.6-3.4-23.3c0-10.4,2.4-17.3,2.4-17.3c0-0.4-1.1-1.7-1.1-2.3c0,0,0,0,0-0.1c0.4-2.8,2.9-6.1,6.7-9.5
				C517.2,551.3,533.4,557.9,548.3,573z"/>
			<path class="st8" d="M576.2,647.4c-6.5,2.7-13.1,5-19.6,5c-1.4,0-2.7-0.1-3.9-0.3c0.3-2.6,0.5-5.2,0.5-7.7
				c0-18.3-9.1-43.6-9.1-52.2c0-4.5,2.1-8.3,3.8-12.2c0.6,0.4,1.2,0.7,1.9,0.9C559.7,614,570.3,611.8,576.2,647.4z"/>
		</g>
		<g id="XMLID_25_">
			<path class="st0" d="M642.1,245.9c1.9,2.7,3.6,5.5,5.2,8.4c10.5,19.6,14,43.3,4.9,57.3c-2.4,3.6-4.7,7.9-7.2,11.8
				c-23.5-33.2-30.2-26.8-55.4-56.1c0.2-0.1,0.5-0.1,0.7-0.3c0.6-0.3,1.1-0.9,1.4-1.6c12.5,0.2,23.4-3.9,33.6-9.3
				C629,254.1,636.1,249.7,642.1,245.9z"/>
			<path class="st1" d="M642.1,245.9c-6,3.7-13.1,8.1-16.9,10.1c-10.2,5.5-21.1,9.5-33.6,9.3c0.3-0.8,0.3-1.9-0.3-3.1
				c-0.2-0.4-0.5-0.8-0.8-1.2c9.7-10,11.4-34.5,14.9-49.9c0.1,0.4,0.3,0.7,0.4,1C605.8,212.2,627.5,225,642.1,245.9z"/>
			<path class="st2" d="M603.7,206.3c0.9,1.6,1.2,3.4,1.7,4.9c-3.5,15.4-5.3,39.9-14.9,49.9c-1.1-1.3-2.6-2.2-3.8-2.4
				c-0.2-23.1-23.3-42.4-23.4-68.3C573.1,188.2,597.9,195.5,603.7,206.3z"/>
			<path class="st3" d="M561.1,191.2c0.6-0.3,1.3-0.6,2.1-0.7c0.2,25.9,23.2,45.2,23.4,68.3c-0.5-0.1-0.9,0-1.2,0.2
				c-0.1,0.1-0.4,0.2-0.5,0.4c-20.1-15-21.5-9.6-47.3-23C545.7,215.4,560.7,191.4,561.1,191.2z"/>
			<path class="st4" d="M626.1,329.6c1.4,2.6,2.6,5.2,3.8,7.9c-7,1.9-14-1.5-14-1.5s0.5,4.7-4.5,7.4c-11.6,6.2-36.4-17.7-53.5-39.1
				c10.4-11,16.3-28.2,25.6-40.7c0,0,0,0,0,0.1c1.1,2,2.6,3.2,4,3.6c0.8,4.5,1.3,9.2,3.7,13.7C596,289.6,616.3,311.2,626.1,329.6z"
				/>
			<path class="st5" d="M584.7,259.5c-0.3,0.1-0.4,0.4-0.5,0.7c-19.2-9.1-34.8-9.3-50.9-10.1c0.9-4.2,2.4-8.9,4.2-13.7
				c25.9,13.4,27.2,8.1,47.3,23C584.8,259.4,584.8,259.4,584.7,259.5z"/>
			<path class="st6" d="M590.5,261.1c-1.1-1.3-2.6-2.2-3.8-2.4c-0.5-0.1-0.9,0-1.2,0.2c-0.1,0.1-0.4,0.2-0.5,0.4
				c-0.1,0-0.1,0.1-0.2,0.2c-0.3,0.1-0.4,0.4-0.5,0.7c-0.1,0.2-0.2,0.4-0.4,0.5c-1.1,0.6-1,1.3-0.2,2.9c0,0,0,0,0,0.1
				c1.1,2,2.6,3.2,4,3.6c0.7,0.2,1.3,0.2,1.9,0.1c0.2-0.1,0.5-0.1,0.7-0.3c0.6-0.3,1.1-0.9,1.4-1.6c0.3-0.8,0.3-1.9-0.3-3.1
				C591.1,261.9,590.8,261.5,590.5,261.1z"/>
			<path class="st7" d="M584.2,260.1c-0.1,0.2-0.2,0.4-0.4,0.5c-1.1,0.6-1,1.3-0.2,2.9c-9.3,12.5-15.3,29.8-25.6,40.7
				c-6.6-8.3-12-16.2-15-21.9c-5.6-10.4-7.5-18.3-7.5-18.3c-0.2-0.4-1.8-1.3-2.1-1.8c0,0,0,0,0-0.1c-1.2-3-1.1-7.2,0-12.2
				C549.4,250.8,565,251,584.2,260.1z"/>
			<path class="st8" d="M644.9,323.4c-3.4,5.3-7.1,10.2-11.9,12.8c-1,0.5-2.1,1-3.1,1.2c-1.1-2.7-2.4-5.3-3.8-7.9
				c-9.8-18.3-30.1-40-34.8-48.6c-2.4-4.5-2.9-9.2-3.7-13.7c0.7,0.2,1.3,0.2,1.9,0.1C614.7,296.6,621.5,290.2,644.9,323.4z"/>
		</g>
	</g>
	<g id="XMLID_29_">
		<path class="st0" d="M169.2,449.1c2,2.6,3.8,5.3,5.4,8.3c10.5,19.6,10.6,45.1-4.8,62.4c-4,4.5-8,9.6-12.3,14.6
			c-25.6-32.1-36.2-23.6-64.9-51c0.4-0.1,0.7-0.2,1-0.4c0.8-0.4,1.7-1.2,2.2-2.1c17.1-2.3,32.9-9,48.2-17.1
			C149.6,460.8,160.3,454.5,169.2,449.1z"/>
		<path class="st1" d="M169.2,449.1c-9,5.3-19.7,11.6-25.2,14.6c-15.2,8.1-31,14.8-48.2,17.1c0.6-1,0.8-2.2,0.2-3.4
			c-0.2-0.4-0.5-0.8-0.9-1.1c15.3-13,22.7-40.6,30.6-58.3c0.1,0.4,0.2,0.7,0.4,1C126.2,419.1,153.4,428.8,169.2,449.1z"/>
		<path class="st2" d="M124.4,413c0.9,1.6,0.9,3.6,1.3,5.1c-8,17.7-15.3,45.3-30.6,58.3c-1.2-1.2-3.1-2-4.8-1.9
			c4.4-25.5-23.5-42.3-18.5-71C85.9,399,118.7,402.2,124.4,413z"/>
		<path class="st3" d="M68.9,404.8c0.9-0.5,1.9-0.9,3-1.2c-5,28.6,22.8,45.4,18.5,71c-0.6,0-1.2,0.2-1.7,0.4
			c-0.2,0.1-0.6,0.3-0.8,0.6c-24.7-12.5-27.6-6.3-60.5-16C42.7,434.7,68.2,405.1,68.9,404.8z"/>
		<path class="st4" d="M130.4,545c1.4,2.6,2.6,5.2,3.6,8c-10.1,3.6-18.9,1.1-18.9,1.1s-0.3,5.2-7.7,9.1
			c-17.3,9.2-46.6-12.2-65.7-32.6c16.5-14.2,28.2-34.5,43.5-50.3c0,0,0,0,0,0.1c1.1,2,2.9,3,4.8,3.2c0.2,4.8-0.1,9.9,2.4,14.5
			C97,506.8,120.6,526.7,130.4,545z"/>
		<path class="st5" d="M87.6,475.7c-0.4,0.2-0.6,0.5-0.8,0.8c-24.6-6.2-46.1-3.3-68-0.9c2-4.8,5-10.3,8.6-16.1
			c32.9,9.6,35.8,3.5,60.5,16C87.7,475.6,87.6,475.6,87.6,475.7z"/>
		<path class="st6" d="M95.1,476.4c-1.2-1.2-3.1-2-4.8-1.9c-0.6,0-1.2,0.2-1.7,0.4c-0.2,0.1-0.6,0.3-0.8,0.6
			c-0.1,0.1-0.2,0.1-0.3,0.2c-0.4,0.2-0.6,0.5-0.8,0.8c-0.2,0.2-0.4,0.5-0.7,0.6c-1.6,0.9-1.7,1.7-0.9,3.3c0,0,0,0,0,0.1
			c1.1,2,2.9,3,4.8,3.2c0.9,0.1,1.8,0,2.6-0.3c0.4-0.1,0.7-0.2,1-0.4c0.8-0.4,1.7-1.2,2.2-2.1c0.6-1,0.8-2.2,0.2-3.4
			C95.8,477.1,95.5,476.7,95.1,476.4z"/>
		<path class="st7" d="M86.7,476.5c-0.2,0.2-0.4,0.5-0.7,0.6c-1.6,0.9-1.7,1.7-0.9,3.3c-15.3,15.8-27,36-43.5,50.3
			c-7.4-7.8-13.2-15.5-16.3-21.2c-5.6-10.4-6.7-18.7-6.7-18.7c-0.2-0.4-2.2-1-2.5-1.6c0,0,0,0,0-0.1c-1-3.1,0-7.8,2.4-13.5
			C40.6,473.3,62.1,470.3,86.7,476.5z"/>
		<path class="st8" d="M157.6,534.4c-5.7,6.6-11.9,12.8-19,16.6c-1.5,0.8-3,1.5-4.5,2c-1-2.8-2.2-5.4-3.6-8
			c-9.8-18.3-33.4-38.2-38.1-46.9c-2.4-4.5-2.1-9.6-2.4-14.5c0.9,0.1,1.8,0,2.6-0.3C121.4,510.8,131.9,502.3,157.6,534.4z"/>
	</g>
	<g id="XMLID_21_">
		<path class="st32" d="M359.4,151.4c0.4,1.8,0.6,3.6,0.6,5.4c0,12.3-7.7,24.7-21.8,29.1c-3.7,1.2-7.5,2.6-11.4,3.9
			c-4.8-22.3-13.4-20.9-21.4-41.7c0.2,0,0.5,0.1,0.7,0.1c0.6,0,1.3-0.1,1.9-0.4c10.5,3.3,21.5,4.2,32.6,4.2
			C344.6,151.9,352.7,151.7,359.4,151.4z"/>
		<path class="st33" d="M359.4,151.4c-6.7,0.3-14.7,0.5-18.8,0.5c-11.1,0-22.2-0.9-32.6-4.2c0.6-0.3,1.1-0.9,1.1-1.6
			c0-0.3-0.1-0.5-0.2-0.8c12.7-2.3,25.3-13.8,35.2-20.4c-0.1,0.2-0.1,0.4-0.1,0.6C344,125.6,356.6,137.4,359.4,151.4z"/>
		<path class="st34" d="M344.9,122.2c0,1-0.6,2-0.8,2.8c-9.9,6.6-22.5,18-35.2,20.4c-0.3-0.9-1.2-1.8-2.2-2.2
			c10.3-11.3-0.5-26.7,11.1-39.3C327.2,105.3,344.9,115.4,344.9,122.2z"/>
		<path class="st35" d="M315.8,103.7c0.6,0,1.3,0.1,2.1,0.2c-11.6,12.6-0.9,28-11.1,39.3c-0.4-0.1-0.7-0.2-1.1-0.2
			c-0.2,0-0.4,0-0.6,0.1c-10.2-12.5-13.8-10.3-29.6-23.5C291.7,111.4,315.3,103.7,315.8,103.7z"/>
		<path class="st36" d="M308.1,187.9c0,1.6-0.1,3.2-0.4,4.8c-6.8-0.9-11.1-4.4-11.1-4.4s-1.7,2.4-7.1,2.4
			c-12.6,0-22.8-18.1-27.5-32.9c13.7-2.6,26.6-9.4,40.1-13.1c0,0,0,0,0,0c0,1.2,0.7,2.2,1.7,2.8c-1.3,2.4-3.1,4.8-3.1,7.6
			C300.7,160.6,308.1,176.5,308.1,187.9z"/>
		<path class="st37" d="M304.8,143.1c-0.3,0-0.5,0.1-0.7,0.2c-12.1-9.4-25.3-13.6-38.5-18.2c2.6-1.8,6-3.7,9.8-5.6
			c15.8,13.3,19.4,11,29.6,23.5C304.9,143,304.8,143,304.8,143.1z"/>
		<path class="st38" d="M308.9,145.4c-0.3-0.9-1.2-1.8-2.2-2.2c-0.4-0.1-0.7-0.2-1.1-0.2c-0.2,0-0.4,0-0.6,0.1c-0.1,0-0.2,0-0.2,0
			c-0.3,0-0.5,0.1-0.7,0.2c-0.2,0.1-0.4,0.1-0.6,0.1c-1.2,0-1.5,0.4-1.5,1.4c0,0,0,0,0,0c0,1.2,0.7,2.2,1.7,2.8
			c0.5,0.3,1,0.5,1.6,0.6c0.2,0,0.5,0.1,0.7,0.1c0.6,0,1.3-0.1,1.9-0.4c0.6-0.3,1.1-0.9,1.1-1.6C309,145.9,309,145.6,308.9,145.4z"
			/>
		<path class="st39" d="M304.1,143.2c-0.2,0.1-0.4,0.1-0.6,0.1c-1.2,0-1.5,0.4-1.5,1.4c-13.5,3.7-26.4,10.5-40.1,13.1
			c-1.8-5.7-2.8-11-2.8-14.6c0-6.5,1.9-10.8,1.9-10.8c0-0.2-0.9-1.1-0.9-1.4c0,0,0,0,0,0c0.4-1.8,2.4-3.8,5.5-5.9
			C278.8,129.6,291.9,133.8,304.1,143.2z"/>
		<path class="st40" d="M326.7,189.8c-5.3,1.7-10.7,3.1-15.9,3.1c-1.1,0-2.2-0.1-3.2-0.2c0.3-1.6,0.4-3.2,0.4-4.8
			c0-11.5-7.4-27.3-7.4-32.7c0-2.8,1.7-5.2,3.1-7.6c0.5,0.3,1,0.5,1.6,0.6C313.3,168.9,321.9,167.6,326.7,189.8z"/>
	</g>
	<g id="XMLID_19_">
		<path class="st32" d="M409.6,203.7c0.6-1.5,1.4-2.8,2.4-4.1c6.6-8.2,20.7-10.6,36.5-2.8c4.1,2,8.6,4,13.1,6.2
			c-7.3,18.6,1.7,24.3-1.8,44.4c-0.2-0.2-0.4-0.4-0.6-0.6c-0.6-0.5-1.3-0.9-2-1.2c-8.3-10.3-18.4-19.3-29.1-27.9
			C424,214.6,416.2,208.6,409.6,203.7z"/>
		<path class="st33" d="M409.6,203.7c6.6,5,14.4,11,18.4,14.1c10.7,8.6,20.8,17.6,29.1,27.9c-0.8-0.3-1.5-0.3-1.9,0.2
			c-0.1,0.2-0.2,0.4-0.3,0.6c-13.4-8.2-31.7-10.2-44.7-13.4c0.2-0.1,0.3-0.2,0.4-0.3C410.5,232.8,404.8,215.2,409.6,203.7z"/>
		<path class="st34" d="M407.8,234.4c0.5-0.7,1.6-0.9,2.3-1.3c13.1,3.3,31.3,5.2,44.7,13.4c-0.2,0.9,0.2,2.1,0.9,3.1
			c-15.9-0.3-13.9,18.2-31.7,17.8C415.8,259.2,404.2,238.9,407.8,234.4z"/>
		<path class="st35" d="M425.9,269.1c-0.6-0.5-1.2-1.1-1.9-1.7c17.9,0.4,15.8-18.1,31.7-17.8c0.3,0.4,0.6,0.7,0.9,1
			c0.2,0.1,0.4,0.3,0.6,0.5c3.1,16.2,7.7,17.5,15.8,38.5C453.2,282.4,426.4,269.5,425.9,269.1z"/>
		<path class="st36" d="M478.5,218.6c0.9-1.1,1.8-2.1,3-2.9c6.1,5.8,8.3,11.5,8.3,11.5s3-0.3,8.2,3.9c12.1,9.7,12.2,29.6,8.7,43.2
			c-14.6-8.8-30.6-14.1-45.5-22c0,0,0,0,0,0c0.7-0.8,0.5-2-0.2-3.2c2.6-0.6,5.5-0.9,7-2.8C470.9,242.6,472.3,226.3,478.5,218.6z"/>
		<path class="st37" d="M457.6,251.2c0.3,0.2,0.5,0.3,0.8,0.4c6.6,15.6,17,28.5,27.2,41.7c-3.5-0.8-7.8-2.1-12.4-3.8
			c-8.1-21-12.7-22.2-15.8-38.5C457.4,251.1,457.5,251.1,457.6,251.2z"/>
		<path class="st38" d="M454.9,246.5c-0.2,0.9,0.2,2.1,0.9,3.1c0.3,0.4,0.6,0.7,0.9,1c0.2,0.1,0.4,0.3,0.6,0.5
			c0.1,0.1,0.2,0.1,0.2,0.1c0.3,0.2,0.5,0.3,0.8,0.4c0.2,0.1,0.4,0.2,0.6,0.3c1.1,0.9,1.6,0.9,2.2,0.2c0,0,0,0,0,0
			c0.7-0.8,0.5-2-0.2-3.2c-0.3-0.6-0.7-1.1-1.2-1.6c-0.2-0.2-0.4-0.4-0.6-0.6c-0.6-0.5-1.3-0.9-2-1.2c-0.8-0.3-1.5-0.3-1.9,0.2
			C455,246,454.9,246.2,454.9,246.5z"/>
		<path class="st39" d="M458.4,251.6c0.2,0.1,0.4,0.2,0.6,0.3c1.1,0.9,1.6,0.9,2.2,0.2c15,7.9,30.9,13.2,45.5,22
			c-1.3,5.2-3.2,9.5-5.1,11.9c-3.5,4.3-7.6,5.8-7.6,5.8c-0.1,0.2,0.3,1.4,0.1,1.7c0,0,0,0,0,0c-1.3,0.9-4.3,0.7-8.4-0.2
			C475.3,280.1,465,267.3,458.4,251.6z"/>
		<path class="st40" d="M461.5,203c6,2.9,11.9,6.1,17,10.1c1.1,0.9,2,1.7,2.9,2.6c-1.1,0.9-2.1,1.9-3,2.9
			c-6.1,7.7-7.5,23.9-10.4,27.6c-1.5,1.9-4.4,2.2-7,2.8c-0.3-0.6-0.7-1.1-1.2-1.6C463.2,227.3,454.2,221.6,461.5,203z"/>
	</g>
	<g id="XMLID_20_">
		<path class="st32" d="M180.2,346.2c0.7-1.4,1.6-2.7,2.5-3.9c6.6-8.2,18.2-12.6,29.6-8.4c3,1.1,6.2,2.1,9.4,3.3
			c-8.8,17.4-2.6,20.9-8.6,38.9c-0.1-0.1-0.3-0.3-0.4-0.4c-0.4-0.3-0.9-0.6-1.4-0.7c-4.9-7.6-11.5-13.8-18.7-19.6
			C189.9,353.4,184.6,349.4,180.2,346.2z"/>
		<path class="st33" d="M180.2,346.2c4.4,3.3,9.7,7.2,12.4,9.3c7.1,5.7,13.7,12,18.7,19.6c-0.6-0.1-1.2,0-1.6,0.5
			c-0.1,0.2-0.2,0.4-0.3,0.6c-9.4-5-23.6-3.7-33.5-4.4c0.1-0.1,0.3-0.2,0.4-0.4C176.2,371.3,174.5,357,180.2,346.2z"/>
		<path class="st34" d="M173.8,373.2c0.5-0.7,1.4-1,2-1.5c9.9,0.7,24.1-0.5,33.5,4.4c-0.3,0.8-0.2,1.8,0.2,2.6
			c-12.6,2.3-14,18.1-28.2,20.6C176.1,393.5,170.2,377.7,173.8,373.2z"/>
		<path class="st35" d="M182.6,400.5c-0.4-0.3-0.8-0.7-1.2-1.2c14.2-2.5,15.6-18.3,28.2-20.6c0.1,0.3,0.3,0.5,0.6,0.7
			c0.1,0.1,0.3,0.2,0.4,0.3c-0.1,13.6,3.3,13.9,6.4,30.9C202.1,407.6,182.9,400.7,182.6,400.5z"/>
		<path class="st36" d="M232.6,348c0.9-1.1,1.8-2.1,2.8-3c3.9,4.1,4.8,8.6,4.8,8.6s2.4-0.7,5.9,2c8.1,6.5,4.9,23.8,0,36.2
			c-10.2-5.3-22.1-7.3-32.7-11.8c0,0,0,0,0,0c0.7-0.8,0.7-1.9,0.4-2.8c2.2-0.9,4.5-1.7,6.1-3.6C222.7,370.1,226.5,355.7,232.6,348z"
			/>
		<path class="st37" d="M210.7,379.8c0.2,0.1,0.4,0.2,0.6,0.3c2.7,12.5,8.9,22.1,14.9,31.9c-2.7-0.1-5.8-0.6-9.3-1.3
			c-3-17-6.5-17.3-6.4-30.9C210.6,379.7,210.7,379.7,210.7,379.8z"/>
		<path class="st38" d="M209.3,376.1c-0.3,0.8-0.2,1.8,0.2,2.6c0.1,0.3,0.3,0.5,0.6,0.7c0.1,0.1,0.3,0.2,0.4,0.3
			c0.1,0,0.1,0.1,0.2,0.1c0.2,0.1,0.4,0.2,0.6,0.3c0.1,0,0.3,0.1,0.4,0.2c0.8,0.6,1.1,0.5,1.7-0.2c0,0,0,0,0,0
			c0.7-0.8,0.7-1.9,0.4-2.8c-0.2-0.4-0.4-0.8-0.7-1.2c-0.1-0.1-0.3-0.3-0.4-0.4c-0.4-0.3-0.9-0.6-1.4-0.7c-0.6-0.1-1.2,0-1.6,0.5
			C209.5,375.7,209.4,375.9,209.3,376.1z"/>
		<path class="st39" d="M211.3,380c0.1,0,0.3,0.1,0.4,0.2c0.8,0.6,1.1,0.5,1.7-0.2c10.6,4.5,22.5,6.5,32.7,11.8
			c-1.9,4.8-4.1,8.8-6,11.2c-3.5,4.3-7,6.3-7,6.3c-0.1,0.2,0,1.2-0.2,1.4c0,0,0,0,0,0c-1.2,1-3.6,1.3-6.7,1.2
			C220.2,402.1,214,392.5,211.3,380z"/>
		<path class="st40" d="M221.7,337.2c4.3,1.6,8.5,3.4,11.9,6.1c0.7,0.6,1.4,1.2,1.9,1.8c-1,0.9-2,2-2.8,3
			c-6.1,7.7-9.9,22.1-12.8,25.7c-1.5,1.9-3.9,2.6-6.1,3.6c-0.2-0.4-0.4-0.8-0.7-1.2C219.1,358,212.8,354.5,221.7,337.2z"/>
	</g>
	<g id="XMLID_22_">
		<path class="st22" d="M392.1,227l0.7,28.3c-0.3,2.1-2.5,4-2.8,5.8c0,0.3,0.6,2.9,0.3,4.8c-0.1,0.4-0.1,0.8-0.3,1.2
			c-19.8-12.9-45.6-14.6-59-26.3c0.8-0.4,1.3-1.1,1.7-2c0.5,0.1,1,0.2,1.6,0.2C353.3,241.6,347,220.9,392.1,227z"/>
		<path class="st23" d="M390.1,267.1c-1.3,4.3-6.1,6.8-11,9.3c-1.9,1-0.5,7.5-3.8,7.5c-13.5-0.1-12.1,9.5-18.5,8.6
			c-1.1-0.1-2-0.4-2.9-0.6c-7.1-23.5-26.7-26.3-26.4-50.6c1.6,0.2,2.7,0,3.6-0.5C344.5,252.5,370.3,254.2,390.1,267.1z"/>
		<path class="st24" d="M353.9,291.9c-0.6-0.2-1.2-0.3-1.9-0.4c-7.7-1.1-14.9,5-21.8,4c-2.5-0.3-2.8-1.2-6.2-1.6
			c-4-0.6-8.2,0.2-12.1-0.3c-11.6-1.6-13.2-16.1-14.2-16.2c-0.5-0.1-1.3,0.6-2.2,0.5c-2-0.3-11.5-4.6-10.6-11.4
			c0.5-3.4-1.2-5.3-3.2-6.9c15.5-2.6,30.4-11.3,42.1-20.6c0.3,1.2,1.4,2.1,3.6,2.4c0,0,0.1,0,0.1,0
			C327.2,265.6,346.8,268.4,353.9,291.9z"/>
		<path class="st25" d="M336.1,171c7.1,1.3,12.8,4.7,17.8,8c-12.1,12.6-14.7,30-19.9,46.4c1.1-9.8-4.2-26.9-2.2-41.4
			C332.4,179.6,333.7,175.2,336.1,171z"/>
		<path class="st26" d="M333.9,225.5c-0.8,2.5-1.7,5-2.6,7.5c-0.4-0.1-0.7-0.2-1.1-0.3c-3.9-20-21.7-36-28.5-53.5
			c0.1-0.1,0.2-0.3,0.2-0.5c0.9-6.5,10.6-6.4,18.2-4.9c4.7-3,9.7-3.7,14.7-3c0.4,0.1,0.9,0.1,1.3,0.2c-2.4,4.2-3.7,8.6-4.4,13.1
			C329.8,198.6,335,215.7,333.9,225.5z"/>
		<path class="st27" d="M330.2,232.7c-0.2-0.1-0.5-0.1-0.7-0.1c-0.4-0.1-0.9-0.1-1.2-0.1c-13.7-11.7-36-12.4-52.1-23.3
			c-0.6-1.3-1-2.7-0.8-4.3c0.9-6.2,8-7.6,12.8-11.4c-1.4-0.8-1.5-3-1.3-4.4c1.3-9.6,13.1-7.6,14.8-9.8
			C308.5,196.7,326.3,212.7,330.2,232.7z"/>
		<path class="st28" d="M332.2,233.3c-0.1,0-0.2-0.1-0.3-0.1c-0.2-0.1-0.4-0.2-0.6-0.2c-0.4-0.1-0.7-0.2-1.1-0.3
			c-0.2-0.1-0.5-0.1-0.7-0.1c-0.4-0.1-0.9-0.1-1.2-0.1c-1.2,0.1-2.1,0.4-2.9,1.1c-0.9,0.8-1.5,2-1.7,3.4c-0.1,0.7-0.1,1.3,0.1,1.9
			c0.3,1.2,1.4,2.1,3.6,2.4c0,0,0.1,0,0.1,0c1.6,0.2,2.7,0,3.6-0.5c0.8-0.4,1.3-1.1,1.7-2c0.4-0.9,0.7-2.1,0.8-3.4
			C333.1,234.9,333.4,233.8,332.2,233.3z"/>
		<path class="st29" d="M328.3,232.5c-1.2,0.1-2.1,0.4-2.9,1.1c-8.5-5.7-19.1-9.3-29.8-10.7c-9.3-1.3-12.5-0.3-19.5-1.2
			c1.4-3.3,3.1-5.9,3.1-5.9c0.3-1.9-1.8-4-3-6.6C292.3,220.1,314.6,220.9,328.3,232.5z"/>
		<path class="st30" d="M325.4,233.6c-0.9,0.8-1.5,2-1.7,3.4c-0.1,0.7-0.1,1.3,0.1,1.9c-11.6,9.3-26.5,18-42.1,20.6
			c-3.1-2.5-7.1-4.5-6.3-10.1c0.4-2.6,2.5-5,2.8-7.1c0-0.2-4.6-8.3-3.6-15.2c0.2-1.8,0.9-3.7,1.5-5.4c7.1,0.8,10.2-0.1,19.5,1.2
			C306.4,224.3,316.9,227.9,325.4,233.6z"/>
		<path class="st31" d="M391.9,219.9c-0.3-4.7-7.1-5.7-8.9-9.2c-5.7-11.8-12.3-12-13.3-21.6c-0.1-0.9-0.8-2.5-2.4-2.7
			c0,0-0.1,0-0.1,0c-3.9-0.5-8.1-3.9-13.3-7.3c-12.1,12.6-14.7,30-19.9,46.4c-0.8,2.5-1.7,5-2.6,7.5c0.2,0.1,0.4,0.1,0.6,0.2
			c0.1,0,0.2,0.1,0.3,0.1c1.1,0.5,0.9,1.5,1.4,2.1c-0.2,1.3-0.4,2.4-0.8,3.4c0.5,0.1,1,0.2,1.6,0.2c19,2.6,12.6-18.2,57.8-12.1
			L391.9,219.9z"/>
	</g>
	<g id="XMLID_26_">
		<path class="st22" d="M438.7,103.3l0.4,27c-0.3,2-2.3,3.9-2.5,5.6c0,0.3,0.5,2.7,0.2,4.5c-0.1,0.4-0.1,0.8-0.2,1.2
			c-17.3-12.1-39.9-13.5-51.6-24.4c0.7-0.4,1.2-1.1,1.5-2c0.5,0.1,0.9,0.2,1.4,0.2C404.5,117.7,399.1,98,438.7,103.3z"/>
		<path class="st23" d="M436.5,141.6c-1.2,4.2-5.4,6.5-9.7,9c-1.7,1-0.5,7.1-3.4,7.2c-11.8,0.1-10.8,9.2-16.4,8.4
			c-0.9-0.1-1.7-0.4-2.5-0.6c-6-22.3-23.2-24.8-22.7-48c1.4,0.2,2.4,0,3.2-0.5C396.6,128.1,419.3,129.5,436.5,141.6z"/>
		<path class="st24" d="M404.5,165.6c-0.5-0.1-1.1-0.3-1.7-0.4c-6.8-0.9-13.2,4.9-19.2,4.1c-2.2-0.3-2.4-1.1-5.4-1.5
			c-3.5-0.5-7.2,0.3-10.7-0.2c-10.2-1.4-11.4-15.2-12.3-15.4c-0.5-0.1-1.2,0.6-1.9,0.5c-1.7-0.2-10.1-4.3-9.2-10.7
			c0.4-3.2-1-5-2.7-6.6c13.7-2.7,26.9-11.1,37.2-20.1c0.3,1.2,1.2,2,3.1,2.2c0,0,0,0,0.1,0C381.3,140.8,398.5,143.3,404.5,165.6z"/>
		<path class="st25" d="M390.1,50.5c6.2,1.1,11.2,4.4,15.5,7.5c-10.8,12.2-13.2,28.7-18,44.5c1-9.3-3.4-25.6-1.5-39.5
			C386.7,58.7,388,54.5,390.1,50.5z"/>
		<path class="st26" d="M387.6,102.5c-0.7,2.4-1.5,4.8-2.4,7.2c-0.3-0.1-0.6-0.2-0.9-0.3c-3.2-19.1-18.7-34.2-24.5-50.8
			c0.1-0.1,0.1-0.3,0.2-0.4c0.8-6.2,9.4-6.3,16.1-4.9c4.2-2.9,8.6-3.6,13-3c0.4,0.1,0.8,0.1,1.1,0.2c-2.2,4-3.4,8.2-4,12.6
			C384.3,76.9,388.7,93.2,387.6,102.5z"/>
		<path class="st27" d="M384.3,109.4c-0.2,0-0.4-0.1-0.6-0.1c-0.4-0.1-0.7-0.1-1.1,0c-11.9-11-31.5-11.5-45.5-21.7
			c-0.5-1.2-0.9-2.6-0.7-4.1c0.8-6,7.1-7.3,11.4-11.1c-1.3-0.8-1.3-2.9-1.1-4.2c1.3-9.2,11.6-7.4,13.1-9.5
			C365.6,75.3,381.1,90.4,384.3,109.4z"/>
		<path class="st28" d="M386,110c-0.1,0-0.2-0.1-0.2-0.1c-0.2-0.1-0.4-0.2-0.6-0.2c-0.3-0.1-0.6-0.2-0.9-0.3c-0.2,0-0.4-0.1-0.6-0.1
			c-0.4-0.1-0.7-0.1-1.1,0c-1.1,0.1-1.9,0.4-2.5,1.1c-0.8,0.8-1.3,1.9-1.5,3.2c-0.1,0.7-0.1,1.3,0,1.8c0.3,1.2,1.2,2,3.1,2.2
			c0,0,0,0,0.1,0c1.4,0.2,2.4,0,3.2-0.5c0.7-0.4,1.2-1.1,1.5-2c0.4-0.9,0.6-2,0.8-3.2C386.8,111.5,387,110.5,386,110z"/>
		<path class="st29" d="M382.6,109.3c-1.1,0.1-1.9,0.4-2.5,1.1c-7.4-5.3-16.6-8.7-26-9.9c-8.1-1.1-10.9-0.2-17.1-0.9
			c1.2-3.2,2.8-5.7,2.8-5.7c0.2-1.8-1.5-3.8-2.6-6.2C351.1,97.8,370.7,98.3,382.6,109.3z"/>
		<path class="st30" d="M380.1,110.3c-0.8,0.8-1.3,1.9-1.5,3.2c-0.1,0.7-0.1,1.3,0,1.8c-10.3,9-23.5,17.4-37.2,20.1
			c-2.7-2.4-6.2-4.2-5.4-9.6c0.3-2.5,2.3-4.8,2.5-6.8c0-0.2-3.9-7.9-3-14.5c0.2-1.7,0.8-3.5,1.4-5.2c6.2,0.7,9-0.2,17.1,0.9
			C363.4,101.7,372.6,105,380.1,110.3z"/>
		<path class="st31" d="M438.6,96.5c-0.2-4.5-6.2-5.3-7.7-8.7c-4.9-11.2-10.7-11.3-11.5-20.5c-0.1-0.9-0.7-2.3-2.1-2.5
			c0,0-0.1,0-0.1,0c-3.4-0.5-7.1-3.6-11.6-6.8c-10.8,12.2-13.2,28.7-18,44.5c-0.7,2.4-1.5,4.8-2.4,7.2c0.2,0.1,0.4,0.1,0.6,0.2
			c0.1,0,0.2,0.1,0.2,0.1c1,0.4,0.8,1.5,1.2,2c-0.2,1.2-0.4,2.3-0.8,3.2c0.5,0.1,0.9,0.2,1.4,0.2c16.6,2.3,11.3-17.5,50.9-12.1
			L438.6,96.5z"/>
	</g>
	<g id="XMLID_30_">
		<path class="st22" d="M509.7,80.9L530,98.4c1.4,1.5,2,3.8,3.2,5c0.2,0.2,2.2,1.5,3.5,2.9c0.3,0.3,0.5,0.6,0.8,0.9
			c-15.7,1.6-25.3,13.1-38,12.4c-0.1-0.7-0.4-1.4-0.9-2.1c0.2-0.2,0.5-0.4,0.7-0.6C507.4,109.1,490.6,99.2,509.7,80.9z"/>
		<path class="st23" d="M537.5,107.2c2.7,3.4,2.8,7.3,3,11.3c0.1,1.6,5.2,4.9,4.1,6.6c-4.4,6.6,2.7,11.9,0,14.5
			c-0.5,0.4-0.9,0.7-1.4,1c-19-11.3-27.4-3.5-44.6-18.9c0.7-0.7,0.9-1.3,0.9-2.1C512.2,120.3,521.9,108.7,537.5,107.2z"/>
		<path class="st24" d="M543.3,140.5c-0.3,0.2-0.6,0.4-0.9,0.7c-3.3,3.1-1.4,10.5-4.3,13.2c-1,1-1.7,0.6-3.2,2
			c-1.7,1.6-2.5,4.1-4.2,5.7c-4.9,4.7-15.8-3.7-16.2-3.3c-0.2,0.2,0,1-0.4,1.4c-0.8,0.8-7,2.7-11.5-2c-2.2-2.3-4.1-2.8-6-2.8
			c3.2-9.3,1.9-22.1-0.9-33.6c1,0.6,1.9,0.7,2.9-0.2c0,0,0,0,0,0C515.9,137.1,524.3,129.2,543.3,140.5z"/>
		<path class="st25" d="M451.6,73c3.2-2.7,7.6-3.3,11.5-3.6c5,13.9,16.5,26.1,26.5,39.1c-6.6-6.7-20.5-14.9-30.1-25
			C456.5,80.3,453.8,76.8,451.6,73z"/>
		<path class="st26" d="M489.6,108.5c1.5,2,3,4,4.5,6c-0.2,0.1-0.4,0.2-0.6,0.3c-15.5-10.7-32.7-12.1-47.4-19.8
			c-0.1-0.1-0.2-0.3-0.3-0.4c-4.3-4.5-1.1-9.3,2.5-12c-0.6-4.2,0.6-7.1,2.7-9.1c0.2-0.2,0.4-0.3,0.6-0.5c2.2,3.8,4.9,7.2,7.9,10.4
			C469.1,93.5,483,101.8,489.6,108.5z"/>
		<path class="st27" d="M493.5,114.8c-0.1,0.1-0.2,0.2-0.3,0.3c-0.2,0.2-0.3,0.4-0.5,0.6c-12.8-0.6-20.6,9.8-33.6,10.9
			c-1.1-0.5-2.3-1.2-3.3-2.3c-4.1-4.3-2.8-8.7-3.9-13.5c-1.1,0.2-2.7-1.2-3.6-2.1c-6.4-6.7-1.1-11.2-2.2-13.5
			C460.8,102.7,478,104.1,493.5,114.8z"/>
		<path class="st28" d="M494.6,114.3c-0.1,0-0.1,0-0.2,0.1c-0.1,0.1-0.3,0.1-0.4,0.2c-0.2,0.1-0.4,0.2-0.6,0.3
			c-0.1,0.1-0.2,0.2-0.3,0.3c-0.2,0.2-0.3,0.4-0.5,0.6c-0.4,0.6-0.4,1.3-0.2,2.1c0.3,0.9,0.9,2,1.9,2.9c0.5,0.5,0.9,0.9,1.4,1.2
			c1,0.6,1.9,0.7,2.9-0.2c0,0,0,0,0,0c0.7-0.7,0.9-1.3,0.9-2.1c-0.1-0.7-0.4-1.4-0.9-2.1c-0.5-0.8-1.3-1.6-2.1-2.5
			C496,114.8,495.3,114,494.6,114.3z"/>
		<path class="st29" d="M492.8,115.7c-0.4,0.6-0.4,1.3-0.2,2.1c-6.8,0.6-12.8,3.5-17.4,7.8c-3.9,3.8-4.3,5.9-7.2,8.8
			c-1.9-2.8-3.2-5.2-3.2-5.2c-1.3-1.3-3.4-1.6-5.6-2.7C472.1,125.5,480,115,492.8,115.7z"/>
		<path class="st30" d="M492.6,117.8c0.3,0.9,0.9,2,1.9,2.9c0.5,0.5,0.9,0.9,1.4,1.2c2.8,11.5,4.1,24.3,0.9,33.6
			c-2.8-0.1-5.5,0.6-9.3-3.3c-1.7-1.8-2.7-4.4-4.1-5.8c-0.2-0.2-7.4-3-12-7.8c-1.2-1.3-2.3-2.7-3.3-4.2c2.9-2.9,3.3-5.1,7.2-8.8
			C479.7,121.3,485.8,118.4,492.6,117.8z"/>
		<path class="st31" d="M504.6,76.5c-3.4-2.8-6.4-0.1-9.4-1.5c-10.2-4.6-12.5-1.5-19.7-7.1c-0.7-0.5-2-1.2-2.7-0.5c0,0,0,0-0.1,0.1
			c-1.7,1.6-5.4,1.6-9.5,1.9c5,13.9,16.5,26.1,26.5,39.1c1.5,2,3,4,4.5,6c0.1-0.1,0.2-0.1,0.4-0.2c0,0,0.1,0,0.2-0.1
			c0.7-0.3,1.4,0.5,1.9,0.6c0.9,0.9,1.6,1.7,2.1,2.5c0.2-0.2,0.5-0.4,0.7-0.6c8-7.7-8.8-17.7,10.3-36L504.6,76.5z"/>
	</g>
	<g id="XMLID_31_">
		<path class="st22" d="M710.6,392.1l2.9,38.4c0,2.9-1.3,5.9-1.3,8.5c0,0.4,0.6,3.8,0.6,6.4c0,0.6,0,1.2-0.1,1.7
			c-13.7-13.9-30.2-11.4-39.7-24.8c0.5-0.8,0.7-1.8,0.9-3.1c0.3,0,0.7,0,1,0C687.3,419.3,681.5,392.2,710.6,392.1z"/>
		<path class="st23" d="M712.8,447.1c-0.4,6.2-3.3,10.3-6.1,14.7c-1.1,1.8,0.4,10.3-1.8,10.9c-8.5,2.4-6.9,15.1-11,15.1
			c-0.7,0-1.3-0.2-1.9-0.3c-6.5-30.6-19.2-30.8-21.1-63.9c1,0,1.7-0.5,2.2-1.3C682.6,435.6,699.1,433.2,712.8,447.1z"/>
		<path class="st24" d="M692,487.5c-0.4-0.1-0.8-0.2-1.2-0.2c-5,0-9,9.5-13.5,9.5c-1.6,0-1.9-1.1-4-1.1c-2.6,0-5.2,1.8-7.7,1.8
			c-7.5,0-9.8-19.5-10.4-19.5c-0.3,0-0.8,1.1-1.3,1.1c-1.3,0-7.7-4.1-7.7-13.5c0-4.7-1.2-6.9-2.6-8.8c9.6-6.5,18.3-21.1,24.9-35.8
			c0.3,1.6,1,2.6,2.5,2.6c0,0,0,0,0,0C672.8,456.7,685.4,456.9,692,487.5z"/>
		<path class="st25" d="M670.3,326.4c4.6,0.4,8.5,4,11.9,7.7c-6.6,19.4-6.7,43.5-8.6,66.9c-0.2-13.5-5-35.8-5-55.9
			C668.7,338.7,669.1,332.5,670.3,326.4z"/>
		<path class="st26" d="M673.6,400.9c-0.3,3.6-0.6,7.2-1,10.7c-0.2-0.1-0.5-0.2-0.7-0.2c-4.2-26.5-16.9-45-22.7-67.5
			c0.1-0.2,0.1-0.4,0.1-0.7c0-9,6.1-10.7,11.1-10c2.7-4.9,5.9-6.8,9.1-6.8c0.3,0,0.6,0,0.8,0c-1.2,6.1-1.6,12.4-1.6,18.7
			C668.6,365.1,673.4,387.4,673.6,400.9z"/>
		<path class="st27" d="M671.9,411.4c-0.2,0-0.3,0-0.4,0c-0.3,0-0.5,0-0.8,0.1c-9.7-13.3-23.9-10.2-35-22c-0.5-1.7-0.9-3.5-0.9-5.7
			c0-8.6,4.4-11.8,7.2-18c-1-0.9-1.2-3.8-1.2-5.8c0-13.4,7.6-12.8,8.5-16.1C655,366.4,667.7,384.9,671.9,411.4z"/>
		<path class="st28" d="M673.2,411.9c-0.1,0-0.1-0.1-0.2-0.1c-0.1-0.1-0.3-0.1-0.4-0.2c-0.2-0.1-0.5-0.2-0.7-0.2c-0.2,0-0.3,0-0.4,0
			c-0.3,0-0.5,0-0.8,0.1c-0.8,0.3-1.3,1-1.7,2c-0.5,1.2-0.8,3-0.8,4.9c0,1,0.1,1.8,0.2,2.6c0.3,1.6,1,2.6,2.5,2.6c0,0,0,0,0,0
			c1,0,1.7-0.5,2.2-1.3c0.5-0.8,0.7-1.8,0.9-3.1c0.2-1.4,0.2-3,0.2-4.7C673.9,413.8,673.9,412.3,673.2,411.9z"/>
		<path class="st29" d="M670.6,411.5c-0.8,0.3-1.3,1-1.7,2c-5.9-6.2-12.9-9.1-19.8-9.1c-6,0-7.9,1.9-12.5,2c0.6-4.8,1.4-8.6,1.4-8.6
			c0-2.6-1.5-5.1-2.5-8.4C646.7,401.3,660.9,398.2,670.6,411.5z"/>
		<path class="st30" d="M668.9,413.5c-0.5,1.2-0.8,3-0.8,4.9c0,1,0.1,1.8,0.2,2.6c-6.6,14.7-15.3,29.3-24.9,35.8
			c-2.2-2.9-4.9-4.8-4.9-12.6c0-3.6,1.2-7.3,1.2-10.2c0-0.3-3.6-10.4-3.6-20c0-2.5,0.2-5.2,0.5-7.6c4.5-0.2,6.5-2,12.5-2
			C656,404.4,663,407.4,668.9,413.5z"/>
		<path class="st31" d="M709.9,382.5c-0.6-6.3-5-6.4-6.4-10.9c-4.6-15-8.8-14-10.3-26.9c-0.1-1.3-0.7-3.2-1.8-3.2c0,0-0.1,0-0.1,0
			c-2.5,0-5.5-3.7-9-7.5c-6.6,19.4-6.7,43.5-8.6,66.9c-0.3,3.6-0.6,7.2-1,10.7c0.1,0,0.3,0.1,0.4,0.2c0.1,0,0.1,0.1,0.2,0.1
			c0.8,0.4,0.7,1.9,1.1,2.6c0,1.8,0,3.4-0.2,4.7c0.3,0,0.7,0,1,0c12.2,0,6.4-27.1,35.6-27.1L709.9,382.5z"/>
	</g>
	<g id="XMLID_28_">
		<path class="st22" d="M149.4,230.5l23.5-21c2-1.3,5.3-0.7,7-1.8c0.3-0.2,2-2.6,3.8-3.7c0.4-0.3,0.8-0.5,1.2-0.6
			c3.5,26.6,20.8,50.3,20.7,70.4c-1-0.4-1.9-0.3-3,0c-0.3-0.5-0.6-1-0.9-1.5C190.1,253.8,177.1,274.2,149.4,230.5z"/>
		<path class="st23" d="M185,203.4c4.6-2,10.2,0.5,15.9,2.9c2.3,1,6.7-5,9.1-2c9.8,11.8,16.9,3.8,20.8,10c0.7,1,1.1,2,1.6,3
			c-14.8,23.1-2.9,42.2-23.7,59.4c-1-1.5-2-2.4-3-2.8C205.8,253.7,188.4,229.9,185,203.4z"/>
		<path class="st24" d="M232.4,217.1c0.3,0.6,0.6,1.3,1,1.9c4.7,7.5,15.1,9.5,19.3,16.1c1.5,2.4,1,3.3,3.1,6.5
			c2.5,3.9,6.1,7,8.6,10.8c7.1,11.3-4.1,23.1-3.5,24.1c0.3,0.5,1.5,0.7,2,1.5c1.2,1.9,4.5,13.3-1.9,17.4c-3.2,2-3.6,4.8-3.6,7.8
			c-13.6-11.7-31.8-18.4-48.2-21.9c0.8-1.2,0.8-2.7-0.6-4.8c0,0,0,0,0-0.1C229.5,259.4,217.6,240.2,232.4,217.1z"/>
		<path class="st25" d="M142.7,319.6c-4.1-7.1-5.3-14.6-6.1-21.3c19.6,1.5,36.2-8.7,54-16c-9.1,6.1-19.8,23-33.6,31.7
			C152.7,316.6,148,318.7,142.7,319.6z"/>
		<path class="st26" d="M190.6,282.3c2.7-1.1,5.5-2.2,8.3-3.1c0.2,0.4,0.3,0.8,0.5,1.2c-14.2,17.8-14.8,44.8-24.7,63.4
			c-0.2,0-0.4,0.1-0.5,0.2c-6.2,3.9-13.2-4.6-17.4-12.4c-6-2-10.2-5.8-13.3-10.7c-0.3-0.4-0.5-0.8-0.8-1.3c5.3-0.9,10-2.9,14.3-5.6
			C170.7,305.2,181.5,288.4,190.6,282.3z"/>
		<path class="st27" d="M199.4,280.3c0.1,0.2,0.3,0.5,0.4,0.7c0.3,0.4,0.6,0.8,0.9,1.1c0.1,20.3,15.7,40.4,18.2,62.2
			c-0.7,1.5-1.6,2.9-3.1,3.8c-5.9,3.7-12.3-1.5-19.1-3c0.3,1.9-1.5,3.5-2.8,4.4c-9.2,5.8-16-5.9-19.2-5.8
			C184.6,325.2,185.2,298.1,199.4,280.3z"/>
		<path class="st28" d="M198.5,278.1c0,0.1,0.1,0.2,0.1,0.3c0.1,0.3,0.2,0.5,0.3,0.7c0.2,0.4,0.3,0.8,0.5,1.2
			c0.1,0.2,0.3,0.5,0.4,0.7c0.3,0.4,0.6,0.8,0.9,1.1c0.9,1,1.9,1.6,3,1.7c1.3,0.2,2.8-0.1,4.1-1c0.7-0.4,1.2-0.9,1.6-1.4
			c0.8-1.2,0.8-2.7-0.6-4.8c0,0,0,0,0-0.1c-1-1.5-2-2.4-3-2.8c-1-0.4-1.9-0.3-3,0c-1.1,0.3-2.3,0.9-3.5,1.7
			C199.1,276.2,198,276.8,198.5,278.1z"/>
		<path class="st29" d="M200.6,282.1c0.9,1,1.9,1.6,3,1.7c1.4,11.5,6,23.3,12.6,33.7c5.7,9,8.8,11.1,13.2,17.8
			c-3.8,1.2-7.3,1.6-7.3,1.6c-1.8,1.1-2.1,4.4-3.4,7.3C216.4,322.5,200.7,302.5,200.6,282.1z"/>
		<path class="st30" d="M203.6,283.9c1.3,0.2,2.8-0.1,4.1-1c0.7-0.4,1.2-0.9,1.6-1.4c16.3,3.5,34.6,10.2,48.2,21.9
			c0.1,4.5,1.3,9.4-4,12.8c-2.5,1.6-6.1,1.4-8.1,2.6c-0.2,0.1-3.7,9.9-10.3,14.1c-1.7,1.1-3.8,1.9-5.7,2.5
			c-4.4-6.8-7.6-8.8-13.2-17.8C209.6,307.2,205,295.4,203.6,283.9z"/>
		<path class="st31" d="M143.5,235.8c-3.8,3.7,0.4,10.3-1.4,14.3c-5.9,13.4-1.2,19.3-8.6,27.1c-0.7,0.8-1.5,2.5-0.5,4.1
			c0,0,0.1,0.1,0.1,0.1c2.4,3.8,2.7,9.9,3.5,16.8c19.6,1.5,36.2-8.7,54-16c2.7-1.1,5.5-2.2,8.3-3.1c-0.1-0.2-0.2-0.5-0.3-0.7
			c0-0.1-0.1-0.2-0.1-0.3c-0.4-1.3,0.6-1.9,0.7-2.7c1.2-0.8,2.4-1.4,3.5-1.7c-0.3-0.5-0.6-1-0.9-1.5c-11.6-18.4-24.7,2-52.4-41.7
			L143.5,235.8z"/>
	</g>
</g>
</svg>
