<?xml version="1.0" encoding="utf-8"?>
<!-- Generator: Adobe Illustrator 24.0.3, SVG Export Plug-In . SVG Version: 6.00 Build 0)  -->
<svg version="1.1" id="Layer_55" xmlns="http://www.w3.org/2000/svg" xmlns:xlink="http://www.w3.org/1999/xlink" x="0px" y="0px"
	 viewBox="0 0 599.3 587.9" style="enable-background:new 0 0 599.3 587.9;" xml:space="preserve">
<style type="text/css">
	.st0{fill:#7E596C;}
	.st1{fill:#2F2B00;}
	.st2{fill:url(#SVGID_1_);}
	.st3{fill:url(#SVGID_2_);}
	.st4{fill:url(#SVGID_3_);}
	.st5{fill:url(#SVGID_4_);}
	.st6{fill:url(#SVGID_5_);}
	.st7{fill:url(#SVGID_6_);}
	.st8{fill:url(#SVGID_7_);}
	.st9{fill:url(#SVGID_8_);}
	.st10{fill:url(#SVGID_9_);}
	.st11{fill:url(#SVGID_10_);}
	.st12{fill:url(#SVGID_11_);}
	.st13{fill:url(#SVGID_12_);}
	.st14{fill:url(#SVGID_13_);}
	.st15{fill:url(#SVGID_14_);}
	.st16{fill:url(#SVGID_15_);}
	.st17{fill:url(#SVGID_16_);}
	.st18{fill:url(#SVGID_17_);}
	.st19{fill:url(#SVGID_18_);}
	.st20{fill:url(#SVGID_19_);}
	.st21{fill:url(#SVGID_20_);}
	.st22{fill:url(#SVGID_21_);}
	.st23{fill:url(#SVGID_22_);}
	.st24{fill:url(#SVGID_23_);}
	.st25{fill:url(#SVGID_24_);}
	.st26{fill:url(#SVGID_25_);}
	.st27{fill:url(#SVGID_26_);}
</style>
<g>
	<circle class="st0" cx="312.5" cy="315.3" r="126.4"/>
	<path class="st1" d="M312.5,428.4c-62.4,0-113.1-50.8-113.1-113.1s50.8-113.1,113.1-113.1s113.1,50.8,113.1,113.1
		S374.9,428.4,312.5,428.4z"/>
	<g>
		
			<linearGradient id="SVGID_1_" gradientUnits="userSpaceOnUse" x1="12.9538" y1="459.2457" x2="297.7766" y2="459.2457" gradientTransform="matrix(8.970000e-02 0.996 -0.996 8.970000e-02 694.6283 -36.2374)">
			<stop  offset="0" style="stop-color:#B8D9AB"/>
			<stop  offset="0.2478" style="stop-color:#97BC8A"/>
			<stop  offset="0.6339" style="stop-color:#165812"/>
			<stop  offset="1" style="stop-color:#002302"/>
		</linearGradient>
		<path class="st2" d="M306.1,297.7c-12-65.7-94.3-158.4-103-255.4c-5.4-59.5-2.7,25.5-2.1,32.1c4.8,53.8,33.7,108.6,37.7,114.8
			C261.5,225,268.7,275,306.1,297.7z"/>
		
			<linearGradient id="SVGID_2_" gradientUnits="userSpaceOnUse" x1="474.4831" y1="256.9232" x2="360.1078" y2="434.6821" gradientTransform="matrix(8.970000e-02 0.996 -0.996 8.970000e-02 694.6283 -36.2374)">
			<stop  offset="0" style="stop-color:#B8D9AB"/>
			<stop  offset="0.2478" style="stop-color:#97BC8A"/>
			<stop  offset="0.6339" style="stop-color:#165812"/>
			<stop  offset="1" style="stop-color:#002302"/>
		</linearGradient>
		<path class="st3" d="M303.7,307.5c70.1,53.5,154,198.4,154,198.4c-1.5,0.5-25.4-19-40.5-39.2C373.3,407.7,331.9,372.6,303.7,307.5
			z"/>
		
			<linearGradient id="SVGID_3_" gradientUnits="userSpaceOnUse" x1="234.2071" y1="597.558" x2="247.713" y2="458.9144" gradientTransform="matrix(8.970000e-02 0.996 -0.996 8.970000e-02 694.6283 -36.2374)">
			<stop  offset="0" style="stop-color:#B8D9AB"/>
			<stop  offset="0.2478" style="stop-color:#97BC8A"/>
			<stop  offset="0.6339" style="stop-color:#165812"/>
			<stop  offset="1" style="stop-color:#002302"/>
		</linearGradient>
		<path class="st4" d="M206.4,248.3c-29.5-12-55.1-31.3-74.3-56.4c35.9,66,105.9,116.6,182.3,118.9L206.4,248.3z"/>
		
			<linearGradient id="SVGID_4_" gradientUnits="userSpaceOnUse" x1="332.0352" y1="159.8079" x2="322.6476" y2="397.5742" gradientTransform="matrix(8.970000e-02 0.996 -0.996 8.970000e-02 694.6283 -36.2374)">
			<stop  offset="0" style="stop-color:#B8D9AB"/>
			<stop  offset="0.2478" style="stop-color:#97BC8A"/>
			<stop  offset="0.6339" style="stop-color:#165812"/>
			<stop  offset="1" style="stop-color:#002302"/>
		</linearGradient>
		<path class="st5" d="M304.2,311c5.2-0.1,10.3-0.5,15.5-0.9c26.5-2.4,52.7-8.5,79.3-10.9c53.8-4.8,82.1,11.5,153.5,5.1
			c70.3-6.3-58.6,24.9-85.9,27.4c-38.5,3.5-78.2,1.2-116-1.8C334.2,328.6,318.8,319.7,304.2,311z"/>
		
			<linearGradient id="SVGID_5_" gradientUnits="userSpaceOnUse" x1="587.8204" y1="-39.8878" x2="526.1422" y2="215.3009" gradientTransform="matrix(-0.1728 0.985 -0.985 -0.1728 572.4622 -172.4751)">
			<stop  offset="0" style="stop-color:#B8D9AB"/>
			<stop  offset="0.2478" style="stop-color:#97BC8A"/>
			<stop  offset="0.6339" style="stop-color:#165812"/>
			<stop  offset="1" style="stop-color:#002302"/>
		</linearGradient>
		<path class="st6" d="M296.1,294.9c2.6-2.3,5.8-2.8,9-2.3c3.2,0.6,61.4,73.6,117,83.3c54.2,9.5,76.5,24.5,94.5,27.6
			c6.5,1.1-45.6,3.9-110.9-7.5c-10.6-1.9-21.2-5.4-31.4-10.5C338.6,367.7,300.3,337.6,296.1,294.9z"/>
		
			<linearGradient id="SVGID_6_" gradientUnits="userSpaceOnUse" x1="531.3723" y1="342.3301" x2="283.7354" y2="435.108" gradientTransform="matrix(8.970000e-02 0.996 -0.996 8.970000e-02 694.6283 -36.2374)">
			<stop  offset="0" style="stop-color:#B8D9AB"/>
			<stop  offset="0.2478" style="stop-color:#97BC8A"/>
			<stop  offset="0.6339" style="stop-color:#165812"/>
			<stop  offset="1" style="stop-color:#002302"/>
		</linearGradient>
		<path class="st7" d="M300.8,281c16.6,19.2,91.7,257.1,91.7,257.1c-4.2-5.4-16.7-27.8-56.2-127.2c-12.5-31.6-35.7-65.9-38.7-100.1
			C296.7,300.8,297.5,290.9,300.8,281z"/>
		
			<linearGradient id="SVGID_7_" gradientUnits="userSpaceOnUse" x1="505.3681" y1="672.0019" x2="304.1862" y2="439.8004" gradientTransform="matrix(8.970000e-02 0.996 -0.996 8.970000e-02 694.6283 -36.2374)">
			<stop  offset="0" style="stop-color:#B8D9AB"/>
			<stop  offset="0.2478" style="stop-color:#97BC8A"/>
			<stop  offset="0.6339" style="stop-color:#165812"/>
			<stop  offset="1" style="stop-color:#002302"/>
		</linearGradient>
		<path class="st8" d="M304.4,304.1C243,319.9,70.3,497.7,70.3,497.7c0.2,0.9,3.2-0.8,9.5-5.7c57.4-44.6,104-93.8,165.9-130.3
			C269.9,347.4,296.2,333.2,304.4,304.1z"/>
		
			<linearGradient id="SVGID_8_" gradientUnits="userSpaceOnUse" x1="70.1067" y1="476.0963" x2="317.6945" y2="476.0963" gradientTransform="matrix(8.970000e-02 0.996 -0.996 8.970000e-02 694.6283 -36.2374)">
			<stop  offset="0" style="stop-color:#B8D9AB"/>
			<stop  offset="0.2478" style="stop-color:#97BC8A"/>
			<stop  offset="0.6339" style="stop-color:#165812"/>
			<stop  offset="1" style="stop-color:#002302"/>
		</linearGradient>
		<path class="st9" d="M309.9,308C210.7,138,185.6,193.2,168,81.6c-1.7,10.7-1.9,21-1,31c6,66.3,118.4,207,139.6,205.1
			c3.8-0.3,4.8-2.3,4.4-6C310.8,310.4,310.5,309,309.9,308z"/>
		
			<linearGradient id="SVGID_9_" gradientUnits="userSpaceOnUse" x1="189.5083" y1="299.007" x2="322.8032" y2="299.007" gradientTransform="matrix(8.970000e-02 0.996 -0.996 8.970000e-02 694.6283 -36.2374)">
			<stop  offset="0" style="stop-color:#B8D9AB"/>
			<stop  offset="0.2478" style="stop-color:#97BC8A"/>
			<stop  offset="0.6339" style="stop-color:#165812"/>
			<stop  offset="1" style="stop-color:#002302"/>
		</linearGradient>
		<path class="st10" d="M308.6,322.7c83.5-53.8,152.4-14.1,224.6-154.1c-69.6,114.7-232.5,90.4-227.6,144.8
			C305.9,316.5,307.1,319.9,308.6,322.7z"/>
		
			<linearGradient id="SVGID_10_" gradientUnits="userSpaceOnUse" x1="535.9559" y1="592.9173" x2="331.6892" y2="400.0367" gradientTransform="matrix(8.970000e-02 0.996 -0.996 8.970000e-02 694.6283 -36.2374)">
			<stop  offset="0" style="stop-color:#B8D9AB"/>
			<stop  offset="0.2478" style="stop-color:#97BC8A"/>
			<stop  offset="0.6339" style="stop-color:#165812"/>
			<stop  offset="1" style="stop-color:#002302"/>
		</linearGradient>
		<path class="st11" d="M312.6,318.7c-17.5,32.2-109.5,105-102.3,222.3c-1.1-6.4-2-12.8-2.6-19.3
			c-10.3-113.8,68.7-206.6,101.6-209.6c2.4-0.2,3.9,1.1,4,2.2C313.4,315.7,312.5,317.5,312.6,318.7z"/>
		
			<linearGradient id="SVGID_11_" gradientUnits="userSpaceOnUse" x1="347.8294" y1="175.8691" x2="320.0814" y2="420.9919" gradientTransform="matrix(8.970000e-02 0.996 -0.996 8.970000e-02 694.6283 -36.2374)">
			<stop  offset="0" style="stop-color:#B8D9AB"/>
			<stop  offset="0.2478" style="stop-color:#97BC8A"/>
			<stop  offset="0.6339" style="stop-color:#165812"/>
			<stop  offset="1" style="stop-color:#002302"/>
		</linearGradient>
		<path class="st12" d="M301,300.5c73.7,38.1,488.6,59.3,60.8,34.5C337,333.6,312.2,322.6,301,300.5z"/>
		
			<linearGradient id="SVGID_12_" gradientUnits="userSpaceOnUse" x1="37.5441" y1="401.3716" x2="314.6302" y2="401.3716" gradientTransform="matrix(8.970000e-02 0.996 -0.996 8.970000e-02 694.6283 -36.2374)">
			<stop  offset="0" style="stop-color:#B8D9AB"/>
			<stop  offset="0.2478" style="stop-color:#97BC8A"/>
			<stop  offset="0.6339" style="stop-color:#165812"/>
			<stop  offset="1" style="stop-color:#002302"/>
		</linearGradient>
		<path class="st13" d="M310.7,314.3c24.3-55.2,13.1-279.1,13.1-279.1c-4.6-3.5-11.2,36.3-18.2,154.2c-1.8,30.2-5,58.1-10.5,87.9
			c-0.4,2.2-0.5,4.4-0.3,6.4C295.8,295.2,305.2,304.3,310.7,314.3z"/>
		
			<linearGradient id="SVGID_13_" gradientUnits="userSpaceOnUse" x1="209.3867" y1="680.6561" x2="321.992" y2="447.8111" gradientTransform="matrix(8.970000e-02 0.996 -0.996 8.970000e-02 694.6283 -36.2374)">
			<stop  offset="0" style="stop-color:#B8D9AB"/>
			<stop  offset="0.2478" style="stop-color:#97BC8A"/>
			<stop  offset="0.6339" style="stop-color:#165812"/>
			<stop  offset="1" style="stop-color:#002302"/>
		</linearGradient>
		<path class="st14" d="M307.9,309.1C232,280.9,92.3,312.4,42.8,201.5c12.9,109.1,126.3,120.9,235.9,111
			C288.4,311.6,298.1,310.5,307.9,309.1z"/>
		
			<linearGradient id="SVGID_14_" gradientUnits="userSpaceOnUse" x1="32.7665" y1="280.4114" x2="330.4437" y2="378.8339" gradientTransform="matrix(8.970000e-02 0.996 -0.996 8.970000e-02 694.6283 -36.2374)">
			<stop  offset="0" style="stop-color:#B8D9AB"/>
			<stop  offset="0.2478" style="stop-color:#97BC8A"/>
			<stop  offset="0.6339" style="stop-color:#165812"/>
			<stop  offset="1" style="stop-color:#002302"/>
		</linearGradient>
		<path class="st15" d="M310.8,307.3c42.3-20.8,257.3-396.5,2.2-9.4C311.2,300.7,310.5,304.3,310.8,307.3z"/>
		
			<linearGradient id="SVGID_15_" gradientUnits="userSpaceOnUse" x1="426.1046" y1="725.6661" x2="303.2491" y2="442.8058" gradientTransform="matrix(8.970000e-02 0.996 -0.996 8.970000e-02 694.6283 -36.2374)">
			<stop  offset="0" style="stop-color:#B8D9AB"/>
			<stop  offset="0.2478" style="stop-color:#97BC8A"/>
			<stop  offset="0.6339" style="stop-color:#165812"/>
			<stop  offset="1" style="stop-color:#002302"/>
		</linearGradient>
		<path class="st16" d="M301.1,310.5c-9.1,0-18.1,0.4-27.1,1.2C193.3,319,57.3,375.5,36.6,457.4c11.1-53.9,137.6-93.6,192.5-100.4
			C258.8,353.3,282.4,333,301.1,310.5z"/>
		
			<linearGradient id="SVGID_16_" gradientUnits="userSpaceOnUse" x1="592.9202" y1="405.5529" x2="365.6394" y2="428.1004" gradientTransform="matrix(8.970000e-02 0.996 -0.996 8.970000e-02 694.6283 -36.2374)">
			<stop  offset="0" style="stop-color:#B8D9AB"/>
			<stop  offset="2.795228e-02" style="stop-color:#ABCE9E"/>
			<stop  offset="7.167349e-02" style="stop-color:#A0C493"/>
			<stop  offset="0.1332" style="stop-color:#99BE8C"/>
			<stop  offset="0.3041" style="stop-color:#97BC8A"/>
			<stop  offset="0.6339" style="stop-color:#165812"/>
			<stop  offset="1" style="stop-color:#002302"/>
		</linearGradient>
		<path class="st17" d="M312.8,312.5c5.4,31.5,10.2,62.4,13.1,93.7c5,56,0,122.6,0.2,124.9c4.4,49.3-38-107.4-39.9-128.7
			C283.2,369.8,289.1,338.6,312.8,312.5z"/>
		
			<linearGradient id="SVGID_17_" gradientUnits="userSpaceOnUse" x1="26.0912" y1="442.0703" x2="318.4607" y2="442.0703" gradientTransform="matrix(8.970000e-02 0.996 -0.996 8.970000e-02 694.6283 -36.2374)">
			<stop  offset="0" style="stop-color:#B8D9AB"/>
			<stop  offset="0.2478" style="stop-color:#97BC8A"/>
			<stop  offset="0.6339" style="stop-color:#165812"/>
			<stop  offset="1" style="stop-color:#002302"/>
		</linearGradient>
		<path class="st18" d="M307.2,318.4c-1-11.5-1.7-23-2.8-34.6c-8-89.2-62.9-151.1-70.8-238.7c-3.6-39.8,1.1,17.3,3.8,47.8
			c0.6,6.6,9.6,88.6,16.5,113.3C265.6,247.5,287.7,281.7,307.2,318.4z"/>
		
			<linearGradient id="SVGID_18_" gradientUnits="userSpaceOnUse" x1="301.7865" y1="208.323" x2="334.6998" y2="421.1141" gradientTransform="matrix(8.970000e-02 0.996 -0.996 8.970000e-02 694.6283 -36.2374)">
			<stop  offset="0" style="stop-color:#B8D9AB"/>
			<stop  offset="0.2478" style="stop-color:#97BC8A"/>
			<stop  offset="0.6339" style="stop-color:#165812"/>
			<stop  offset="1" style="stop-color:#002302"/>
		</linearGradient>
		<path class="st19" d="M313.3,309.4c20-4.3,40.2-7.1,60.4-9c44.4-4,113-3.3,113.5-3.3c80-7.2-43.5,29.7-69,32
			C382.1,332.4,345.3,326.2,313.3,309.4z"/>
		
			<linearGradient id="SVGID_19_" gradientUnits="userSpaceOnUse" x1="325.2564" y1="667.8721" x2="315.9636" y2="417.3577" gradientTransform="matrix(8.970000e-02 0.996 -0.996 8.970000e-02 694.6283 -36.2374)">
			<stop  offset="0" style="stop-color:#B8D9AB"/>
			<stop  offset="0.2478" style="stop-color:#97BC8A"/>
			<stop  offset="0.6339" style="stop-color:#165812"/>
			<stop  offset="1" style="stop-color:#002302"/>
		</linearGradient>
		<path class="st20" d="M305.4,307c-26.1-0.9-52.5-0.2-78.8,2.2C183.8,313.1,47.2,350,47.2,350c0.2,2.1,11.1,2.4,38,0
			c1.4-0.1,66.6-0.5,125-5.7c74-6.7,85.5-9.3,101.7-33.2c0.2-0.2,0.2-0.5,0.2-0.7C312,308.8,308.1,307.1,305.4,307z"/>
		
			<linearGradient id="SVGID_20_" gradientUnits="userSpaceOnUse" x1="119.2437" y1="378.4678" x2="319.1883" y2="378.4678" gradientTransform="matrix(8.970000e-02 0.996 -0.996 8.970000e-02 694.6283 -36.2374)">
			<stop  offset="0" style="stop-color:#B8D9AB"/>
			<stop  offset="0.2478" style="stop-color:#97BC8A"/>
			<stop  offset="0.6339" style="stop-color:#165812"/>
			<stop  offset="1" style="stop-color:#002302"/>
		</linearGradient>
		<path class="st21" d="M294,320.3c94.1-39.4,34.7-116.9,86.6-208.6c-34,33.3-31.5,87.1-76.7,182.3
			C299.7,303.1,296.3,311.7,294,320.3z"/>
		
			<linearGradient id="SVGID_21_" gradientUnits="userSpaceOnUse" x1="487.2012" y1="456.5436" x2="293.7259" y2="429.5562" gradientTransform="matrix(8.970000e-02 0.996 -0.996 8.970000e-02 694.6283 -36.2374)">
			<stop  offset="0" style="stop-color:#B8D9AB"/>
			<stop  offset="0.2478" style="stop-color:#97BC8A"/>
			<stop  offset="0.6339" style="stop-color:#165812"/>
			<stop  offset="1" style="stop-color:#002302"/>
		</linearGradient>
		<path class="st22" d="M315.5,314.5C303.4,471.2,279.8,477,259,515.7c0,0,12.3-136.7,49.9-197.6
			C310.4,315.8,313.3,315.5,315.5,314.5z"/>
		
			<linearGradient id="SVGID_22_" gradientUnits="userSpaceOnUse" x1="137.0563" y1="285.8727" x2="371.9886" y2="412.8704" gradientTransform="matrix(8.970000e-02 0.996 -0.996 8.970000e-02 694.6283 -36.2374)">
			<stop  offset="0" style="stop-color:#B8D9AB"/>
			<stop  offset="0.2478" style="stop-color:#97BC8A"/>
			<stop  offset="0.6339" style="stop-color:#165812"/>
			<stop  offset="1" style="stop-color:#002302"/>
		</linearGradient>
		<path class="st23" d="M305.1,319.3c71.6-21.8,122.3-102.5,149.5-176.5c-32.4,41.4-68.9,80.1-114,109.5
			C317.4,267.5,307.4,293,305.1,319.3z"/>
		
			<linearGradient id="SVGID_23_" gradientUnits="userSpaceOnUse" x1="468.5528" y1="565.7343" x2="276.024" y2="379.9619" gradientTransform="matrix(8.970000e-02 0.996 -0.996 8.970000e-02 694.6283 -36.2374)">
			<stop  offset="0" style="stop-color:#B8D9AB"/>
			<stop  offset="0.2478" style="stop-color:#97BC8A"/>
			<stop  offset="0.6339" style="stop-color:#165812"/>
			<stop  offset="1" style="stop-color:#002302"/>
		</linearGradient>
		<path class="st24" d="M309.8,322.1c-5.8,7.1-213.1,312.7-120.7,163.2c36.5-59,39-156.1,114.5-171.8c0.2,0,0.5-0.1,0.7-0.1
			c2.4-0.2,6.5,0.6,7.3,4c0,0.2,0.1,0.3,0.1,0.5C311.9,319.2,311,320.6,309.8,322.1z"/>
		
			<linearGradient id="SVGID_24_" gradientUnits="userSpaceOnUse" x1="286.4195" y1="267.3227" x2="342.579" y2="443.3169" gradientTransform="matrix(8.970000e-02 0.996 -0.996 8.970000e-02 694.6283 -36.2374)">
			<stop  offset="0" style="stop-color:#B8D9AB"/>
			<stop  offset="0.2478" style="stop-color:#97BC8A"/>
			<stop  offset="0.6339" style="stop-color:#165812"/>
			<stop  offset="1" style="stop-color:#002302"/>
		</linearGradient>
		<path class="st25" d="M323.1,307.1c26-15.7,57.4-23,87.7-25.7c22-2,42.5-1.3,63.6-3.2c78-7-124.5,40-131.1,40.6
			c-11.8,1.1-35.2,2.4-35.4-0.4C307.7,315.7,323.1,307.1,323.1,307.1z"/>
		
			<linearGradient id="SVGID_25_" gradientUnits="userSpaceOnUse" x1="313.0494" y1="397.0262" x2="313.2704" y2="397.7188" gradientTransform="matrix(8.970000e-02 0.996 -0.996 8.970000e-02 694.6283 -36.2374)">
			<stop  offset="0" style="stop-color:#B8D9AB"/>
			<stop  offset="0.2478" style="stop-color:#97BC8A"/>
			<stop  offset="0.6339" style="stop-color:#165812"/>
			<stop  offset="1" style="stop-color:#002302"/>
		</linearGradient>
		<path class="st26" d="M327.5,311.2l-0.8,0.1L327.5,311.2z"/>
		
			<linearGradient id="SVGID_26_" gradientUnits="userSpaceOnUse" x1="554.8002" y1="-1215.5065" x2="405.1429" y2="-1236.3818" gradientTransform="matrix(-0.9916 0.1295 -0.1295 -0.9916 575.2308 -974.4207)">
			<stop  offset="0" style="stop-color:#B8D9AB"/>
			<stop  offset="0.2478" style="stop-color:#97BC8A"/>
			<stop  offset="0.6339" style="stop-color:#165812"/>
			<stop  offset="1" style="stop-color:#002302"/>
		</linearGradient>
		<path class="st27" d="M312,319.2c-27.6,7.6-102.2-21-127-33.1c0,0,84.9-2.6,125.2,26.3C313.7,315,315,318.4,312,319.2z"/>
	</g>
</g>
</svg>
